<?xml version="1.0" encoding="UTF-8"?>
<svg id="Layer_1" xmlns="http://www.w3.org/2000/svg" viewBox="0 0 379.26 258.18">
  <defs>
    <style>
      .cls-1 {
        fill: #fff;
      }
    </style>
  </defs>
  <path d="M90.71,64.46c-.7.65-1.05.87-1.27,1.18-2.6,3.77-5.1,7.62-7.79,11.33-2.97,4.09-6,8.16-9.21,12.06-4.96,6.01-9.73,12.25-15.28,17.67-4.27,4.18-9.29,7.86-15.26,9.5-4.51,1.24-7.16-.22-9.69-4.08-1.81-2.77-4.06-5.25-5.98-7.95-1.48-2.09-2.86-4.26-4.09-6.5-3.5-6.41-6.63-12.96-8.76-20.03-2.85-9.46-7.04-18.57-9.26-28.15C1.44,37.96-.47,26.17.14,14.17.3,11.11-.08,8.02.02,4.95c.04-1.16.43-2.6,1.2-3.39,1.31-1.36,2.92-.73,4.27.33.92.72,1.88,1.41,2.66,2.26,2.94,3.17,5.86,6.36,8.7,9.63,3.14,3.62,7.14,5.52,11.82,5.68,13.05.44,26.1.61,39.14,1.09,5.01.19,8.51-1.83,10.78-6.1,2.18-4.1,4.12-8.31,6.29-12.41.42-.8,1.34-1.71,2.16-1.85,1.46-.25,3.17-.57,4.05,1.42,1.42,3.18,3,6.29,4.47,9.46,2.49,5.38,6.45,8.2,12.59,8.59,12.6.8,25.18,2.11,37.77,3.05,2.01.15,4.11-.88,6.13-.74,5.63.38,11.26.98,16.87,1.7,7.84,1,15.62,2.51,23.49,3.22,10.52.95,21.08,1.38,31.62,1.96,10.8.6,21.6,1.21,32.4,1.64,4.56.18,9.17.18,13.71-.23,2.35-.21,4.6-1.51,6.91-2.28.81-.27,1.67-.43,2.58-.35-1.16.54-2.32,1.07-3.48,1.61.06.2.12.4.18.6,3.43-.4,6.85-.94,10.29-1.17,6.71-.46,13.43-1.08,20.14-1.03,5.73.04,9.79,3.82,12.51,8.36,5.48,9.15,10.06,18.83,12.34,29.3,2.93,13.48,5.67,27.01,7.95,40.61,2.5,14.92,6.81,29.29,11.67,43.55,6.59,19.35,13.27,38.67,18.36,58.5,1.23,4.81,3.17,9.44,4.55,14.23.82,2.85,1.34,5.82,1.68,8.77.11.96-.75,2.04-1.16,3.07-.99-.44-2.35-.61-2.92-1.37-2.86-3.81-5.96-7.54-8.15-11.73-3.81-7.27-7.28-14.75-10.39-22.35-2.39-5.82-3.99-11.96-5.97-17.95-3.31-10.01-6.76-19.99-9.95-30.04-2.73-8.63-5.24-17.34-7.74-26.04-2.79-9.66-5.46-19.35-8.19-29.02-.18-.63-.42-1.24-1.2-2-.33,1.18-.85,2.34-.98,3.55-1.69,15.45-4.17,30.82-4.23,46.42-.05,11.06.04,22.13-.56,33.17-.5,9.17.1,18.48-3.03,27.41-4.41,12.57-10.36,24.33-18.25,35.04-3.76,5.11-7.79,10.11-12.32,14.52-2.93,2.86-7,4.65-11.4,4.55-4.62-.11-7.87-2.95-7.41-7.45.79-7.65,2.24-15.24,3.62-22.82.66-3.62,1.81-7.15,2.73-10.71-.2-.13-.4-.25-.6-.38-.91,1.18-1.81,2.37-2.73,3.55-3.18,4.05-6.12,8.33-9.66,12.04-2.17,2.28-5.37,3.54-7.95,5.47-7.16,5.36-13.56,1.75-19.82-1.73-3.43-1.91-4.15-5.82-2.49-9.42,4.18-9.1,9.94-17.24,15.33-25.62,6.78-10.55,13.51-21.17,19.59-32.13,3.43-6.18,4.08-12.98,1.78-20.23-3.92-12.36-8.45-24.25-16.99-34.29-2.24-2.63-3.99-5.67-6.01-8.59-10.19,5.74-21.12,6.76-32.28,5.97-7.36-.53-14.68-1.68-22.02-2.56-.98-.12-1.96-.28-3.27-.46-.51,2.42-1.08,4.73-1.46,7.06-1.7,10.58-3.62,21.13-4.95,31.76-2.44,19.41-5.81,38.63-10.92,57.52-1.97,7.28-5.36,13.8-10.76,19.33-3.24,3.31-6.68,3.68-10.66,2.62-12.21-3.25-17.44-12.32-15.11-24.89,1.34-7.26,1.59-14.71,2.56-22.04,1.58-11.86,3.47-23.69,5.02-35.56,2.02-15.43,3.67-30.92,3.15-46.48-.17-5.22-1.93-10.41-3.26-15.54-.22-.84-1.99-1.49-3.15-1.76-.4-.09-1.48,1.15-1.66,1.91-2.27,9.97-4.53,19.94-6.59,29.95-1.93,9.36-3.81,18.74-5.34,28.16-1.34,8.23-4.18,15.88-7.66,23.37-3.08,6.62-5.62,13.55-9.28,19.83-3.18,5.46-7.33,10.48-13.12,13.66-2,1.1-4.07,2.09-6.15,3.05-2.09.97-4.16,2.11-6.37,2.69-4.64,1.22-9.12-.22-13.38-1.82-2.86-1.07-3.22-4.21-3.19-6.79.04-2.86.47-5.86,1.46-8.53,3.33-9.04,7.3-17.85,10.4-26.97,2.81-8.25,4.8-16.78,7.13-25.19,1.6-5.77,3.21-11.53,4.7-17.32.27-1.04-.02-2.21-.05-3.32-.02-.82-.22-1.69,0-2.45.85-3.13,1.08-6.78,2.91-9.2,3.81-5.06,3.37-11,4.41-16.55,1.08-5.74.89-11.71,1.2-17.58.05-.89-.18-1.79-.34-3.26ZM85.26,116.31c-.31.76-.69,1.51-.92,2.29-2.84,10.08-5.49,20.22-8.55,30.24-2.54,8.33-5.5,16.53-8.36,24.77-1.61,4.63-3.54,9.15-5.02,13.82-1.21,3.8-1.93,7.75.02,10.86.49-1.45.95-3.38,1.78-5.14,1.12-2.37,3.11-4.5,3.61-6.95.34-1.71,1.48-1.93,2.3-2.69.29-.26,1.98.29,2.08.69.23.97.2,2.23-.27,3.08-2.2,4-4.19,8.06-4.95,12.82,1.21.26,2.29.49,4,.85-1.45-1.13-2.28-1.78-3.39-2.64,1.66-.67,3.33-.8,3.91-1.66,2.18-3.25,5.39-5.93,5.75-10.29.07-.84,1.36-1.86,2.31-2.25.56-.23,2.01.42,2.27,1.02.35.81.23,2.09-.19,2.91-1.05,2.07-2.49,3.94-3.54,6-.35.7-.01,1.75.01,2.64,1.09-.1,2.19-.1,3.24-.34.35-.08.52-.8.82-1.2,2.3-3.04,4.52-6.17,7.01-9.05.6-.7,2.14-.6,3.24-.86-.01,1.03.03,2.06-.05,3.09-.04.62-.26,1.24-.4,1.86.23.11.46.22.7.33,3.06-2.96,6.29-5.85,8.14-9.79,2.51-5.33,4.82-10.77,7.01-16.24,2.63-6.55,5.77-13,7.41-19.8,3.24-13.4,5.59-27.01,8.32-40.54,1.54-7.66,3.03-15.33,4.68-22.97.68-3.16,2.62-4.23,5.45-3.43,2.34.65,4.01,3.09,3.94,5.55-.02.98.1,2.01.38,2.95,1.78,5.8,2.11,11.67,1.95,17.74-.5,18.74-2.77,37.3-5.26,55.84-1.1,8.15-2.52,16.26-3.59,24.41-.92,7-1.58,14.03-2.31,21.05-.43,4.19.54,8.19,2.58,11.76,1.16,2.02,3.16,3.55,4.79,5.3-1.92-6.67-1.26-13.26-1.2-19.78,0-.77,1.01-1.52,1.55-2.29.82.79,2.11,1.47,2.35,2.4.32,1.29-.31,2.79-.26,4.18.18,4.29,0,8.67.89,12.83,1,4.68,2.39,5.18,6.97,4.74-.57-4.07-1.42-8.14-1.61-12.24-.14-3.11.44-6.29,1.01-9.38.12-.67,1.55-1.1,2.38-1.64.42.8,1.23,1.64,1.18,2.41-.21,3.14-.78,6.26-1.06,9.4-.31,3.5.18,6.9,1.62,10.17,2.18-.71,3.34-1.8,2.79-4.09-.31-1.28-.51-2.6-.63-3.91-.4-4.31-.66-8.66.98-12.78.33-.83,1.65-1.28,2.52-1.9.24.94.66,1.87.68,2.81.07,4.34.03,8.68.03,13.02.27.08.54.15.81.23,1.54-3.62,3.61-7.12,4.53-10.9,2.86-11.79,5.55-23.63,7.81-35.54,1.89-9.95,3.09-20.04,4.59-30.07.99-6.66,1.99-13.31,2.93-19.98,1.28-9.13,2.48-18.27,3.79-27.4.11-.73.85-1.37,1.29-2.05.32.82.96,1.67.89,2.45-.34,3.64-.81,7.27-1.39,10.88-.29,1.8.24,2.65,2.05,2.87,7.75.94,15.46,2.31,23.24,2.81,9.43.6,18.8-.22,27.57-4.34.8-.37,1.54-.85,2.41-1.34-.36-.56-.57-.9-.8-1.24-.23-.34-.59-.65-.7-1.02-.2-.7-.26-1.44-.38-2.16.72.29,1.74.36,2.13.89,4.8,6.68,9.54,13.4,14.24,20.16,3.47,5,6.6,10.19,8.43,16.06,1.31,4.21,2.46,8.48,4.09,12.56,3.03,7.58,1.39,14.89-2.23,21.38-6.18,11.08-13.34,21.62-19.99,32.44-4.91,7.99-9.82,16-14.44,24.16-2.18,3.84-.33,6.94,3.97,7.74.31-1.63.38-3.34.96-4.87,1.7-4.48,3.5-8.92,5.49-13.28.34-.74,1.77-.99,2.69-1.46.1.97.56,2.11.22,2.89-1.94,4.5-4.29,8.83-6.06,13.38-1.81,4.67-1.15,5.54,3.64,6.52.13.03.3-.1.17-.05.41-1.59.52-3.15,1.19-4.4,2.44-4.6,5-9.14,7.71-13.58.39-.64,1.87-.62,2.85-.9-.17.92-.07,2.05-.57,2.74-3.44,4.78-6.83,9.56-8.49,15.82,1.19-.2,2.25-.19,3.13-.57,6-2.62,10.85-6.71,14.78-11.9,3.66-4.83,7.32-9.65,10.86-14.57,2.08-2.89,4.24-5.8,5.81-8.97,4.1-8.25,7.79-16.71,11.88-24.97,1.96-3.95,2.47-7.92,1.21-12.03-1.9-6.19-3.89-12.37-6.14-18.44-2.27-6.14-4.93-12.14-7.37-18.22-.4-1-.55-2.11-.81-3.17.26-.1.51-.19.77-.29.4.35.96.63,1.17,1.07,2.13,4.59,4.5,9.1,6.23,13.84,2.93,8.04,5.4,16.25,8.16,24.35,1.5,4.39,1.44,8.74-.53,12.86-3.69,7.72-7.79,15.23-11.4,22.99-2.54,5.45-6.05,10.32-7.91,16.22-2.74,8.67-5.07,17.37-6.49,26.32-.13.83-.21,1.66-.32,2.49.4-.27.56-.56.65-.87.97-3.52,1.77-7.11,2.99-10.54.38-1.07,2.07-2.62,2.81-2.44,1.86.44.94,2.04.44,3.25-.22.54-.57,1.04-.7,1.59-1.27,5.47-2.84,10.89-3.62,16.43-.5,3.59,1.27,4.4,4.66,3.07.35-5.15.34-10.25,1.16-15.21.53-3.19,2.15-6.24,3.56-9.23.31-.66,1.79-.76,2.73-1.12.06.94.52,2.16.1,2.76-3.17,4.53-3.31,9.87-4.08,14.99-.3,2.01.35,4.16.65,7.02,2.14-1.27,3.84-1.89,5-3.05,2.69-2.71,5.2-5.6,7.62-8.55,8.75-10.65,15-22.74,19.82-35.56,1.71-4.56,3.38-9.36,3.78-14.16.98-11.92,1.35-23.91,1.72-35.87.25-8.14-.25-16.31.2-24.43.48-8.53,1.66-17.02,2.61-25.52.82-7.42,1.74-14.83,2.64-22.25.03-.28.29-.53,1.03-1.79.38.95.84,1.52.75,1.99-.7,3.49,1.87,5.99,2.66,9.03,2.75,10.62,5.73,21.18,8.76,31.72,3.28,11.42,6.62,22.83,10.13,34.18,2.16,6.98,4.86,13.8,6.98,20.79,4.24,13.95,9.14,27.61,16.94,40.03,2.16,3.43,4.66,6.64,7.01,9.95.23-.13.46-.26.7-.4-.19-1.13-.27-2.29-.59-3.38-.87-3.03-1.89-6.02-2.75-9.05-3.29-11.59-6.38-23.24-9.85-34.78-2.07-6.9-4.7-13.64-7.08-20.45l.07.07c-2.1-6.42-4.2-12.83-6.31-19.25-.29.06-.59.13-.88.19-.11.71-.2,1.42-.32,2.12-.13.78-.29,1.56-.59,3.17-2.34-1.65-4.36-2.84-6-4.43-.39-.37.51-2.07.81-3.16.02-.08.02-.17.02-.25.15-1.72.83-1.92,2.28-1.02.84.53,1.95.64,3.5,1.1-.86-2.9-1.65-5.01-2.11-7.18-3.6-17.16-7.47-34.26-10.6-51.51-2.81-15.45-7.61-30.1-15.15-43.85-1.56-2.85-3.42-5.34-6.54-6.9-4.67-2.34-9.49-2.08-14.36-1.53-8.26.93-16.49,2.24-24.77,2.87-5.78.44-11.63.26-17.43-.05-10.05-.55-20.07-1.94-30.12-2.04-18.11-.19-36.03-1.89-53.84-5.04-7.36-1.3-14.75-2.33-22.3-1.69-3.53.3-7.13.18-10.67-.09-10.44-.8-20.85-1.9-31.29-2.64-4.84-.35-8.71-2.23-11.43-6.12-1.56-2.22-2.56-4.83-3.82-7.26-1.12-2.16-2.26-4.3-3.53-6.72-2.63,4.97-4.89,9.46-7.36,13.85-2.74,4.88-6.85,7.46-12.64,7.17-7.05-.35-14.11-.58-21.18-.78-4.49-.12-8.98-.05-13.46-.14-4.14-.08-8.28-.2-12.41-.42-.63-.03-1.34-.6-1.8-1.11-4.23-4.57-8.41-9.19-12.62-13.78-.63-.69-1.37-1.27-2.35-2.17,0,3.77.08,6.99-.02,10.21-.29,9.2.52,18.29,3.1,27.14,4.13,14.21,8.32,28.39,12.63,42.54.76,2.51,1.99,4.94,3.38,7.18,4.19,6.76,8.61,13.38,12.84,20.12.8,1.27,1.7,1.85,3.05,1.4,1.64-.55,3.25-1.24,4.83-1.97,1.73-.8,3.44-1.67,5.11-2.59,2.06-1.13,4.31-2.08,6.07-3.58,7.02-5.97,12.33-13.46,17.89-20.7,2.72-3.53,4.97-7.42,7.55-11.06,2.07-2.93,4.32-5.74,6.81-9.01-1.41-.27-2.16-.41-2.52-.48-.69,1.17-1.18,2.01-1.68,2.85-.65-.67-1.23-1.42-1.96-1.99-.63-.5-1.4-.85-2.15-1.2-.96-.44-1.95-.8-2.93-1.2.58-.86,1.16-1.72,1.75-2.56.18-.26.41-.48.14-.17-.09-1.68-.16-2.76-.22-3.85,1.11.35,2.23.69,3.55,1.1.39-.29.99-.97,1.73-1.23.78-.28,1.85-.46,2.51-.13.47.24.86,1.61.6,2.14-1.33,2.65.36,3.84,2.35,5.16.75-1.76,1.49-3.49,2.23-5.21.26.03.53.07.79.1.28.71.75,1.41.81,2.14.32,3.81.53,7.63.8,11.44.68,9.46-2.22,18.44-3.87,27.57-1.09,6.03-2.84,11.95-4.3,17.92l.07-.08Z"/>
  <path d="M379.26,236.05c-1,.84-1.57,1.32-2.29,1.93-.62-1.23-1.1-2.2-1.96-3.91,1.66.78,2.68,1.25,4.25,1.98Z"/>
  <path d="M43.04,100c-2.3-.35-4.35-.62-6.39-.99-4.89-.88-6.41-4.92-7.93-8.79-.83-2.14-1.17-4.47-1.66-6.73-.71-3.23,2.3-4.52,3.74-6.49,2.77-3.79,3.9-3.73,7.84-1.06.89.61,1.76,1.3,2.75,1.71.57.24,1.59.25,1.99-.11,2.99-2.66,5.99-1.64,8.69.18,2.25,1.51,4.11,3.59,6.15,5.42.62.55,1.16,1.28,1.88,1.62,2.15,1.01,1.9,2.3.81,3.98-.88,1.36-1.37,2.98-2.33,4.28-3.91,5.3-10.08,5.48-15.53,6.98ZM54.67,84.42l.35-.91c-1.65-1.34-3.2-2.87-5-3.97-1.37-.84-3.17-1.52-4.5.21-1.61,2.07-3.26,1.85-5.12.44-.86-.65-1.81-1.16-2.68-1.8-2.76-2.03-3.36-1.94-5.29.95-.36.54-.62,1.14-1,1.85,7.57,3.39,15.7,1.03,23.24,3.23ZM32.05,90.83c1.82,5.69,9.76,8.43,14.34,5.23-2.37-.64-4.81-1.12-7.12-1.96-2.39-.87-4.65-2.09-7.22-3.27ZM34.65,89.01c5.27,4.09,14.05,5.35,18.04,2.65-6.01-.88-11.84-1.74-18.04-2.65ZM52.34,89.08c.4-.24,1.06-.65,1.73-1.05-.62-.46-1.18-1.14-1.87-1.33-1.25-.35-2.58-.51-3.89-.56-.49-.02-1,.49-1.5.75.39.45.7,1.15,1.18,1.3,1.24.39,2.56.54,4.35.88ZM35.2,85.16c-.02.22-.05.44-.07.65,3.58,2.02,7.13,2.31,8.44.38-2.9-.36-5.63-.7-8.37-1.04Z"/>
  <path d="M69.62,39.25c3.1,1.17,6.22,2.3,9.29,3.54,1.85.74,2.22,1.92,1.08,3.74-1.76,2.79-3,5.97-5.03,8.53-2.99,3.77-7.38,3.34-10.2-.61-.61-.86-1.1-1.8-2.01-2.61.18,1.26.49,2.51.5,3.77,0,.69-.5,1.37-.78,2.06-.47-.55-1.18-1.03-1.35-1.66-.34-1.27-.55-2.63-.5-3.94.03-.92.57-1.82,1.42-2.58-.28-3.13-.61-6.26-.82-9.4-.14-2.13.51-3.41,3.12-3.29,2.84.12,5.7-.29,8.61-.95-1.6-.24-3.19-.5-4.79-.73-2.8-.4-5.6-.72-8.38-1.2-.51-.09-.9-.78-1.35-1.2.48-.38.93-.83,1.45-1.13.25-.14.66-.08.98-.02,6.99,1.46,13.98,2.88,20.94,4.46.82.19,1.45,1.23,2.17,1.88-.94.3-1.87.84-2.82.86-3.87.1-7.74.04-11.61.04.03.15.07.29.1.44ZM64.26,40.57c-.16,4.14.06,7.99,2.02,11.53,1.31,2.35,2.75,3.06,4.51,2.45-4.75-3.04-4.41-7.67-3.48-12.35-1.05-.56-1.97-1.05-3.06-1.63ZM74.98,43.91c-.88,3.24-1.68,6.22-2.49,9.2l.66.31c1.41-2.71,2.83-5.42,4.37-8.37-.99-.45-1.69-.76-2.54-1.14Z"/>
  <path d="M33.8,45.71c-.53,1.63-.85,3.38-1.67,4.85-.72,1.3-1.82,2.6-3.07,3.37-3.1,1.91-5.75.97-7.17-2.44-2.04-4.91-2.13-10.04-1.14-15.18.14-.74,1.31-1.28,2.09-1.98-.42-.15-1.18-.28-1.73-.68-.55-.41-.9-1.1-1.33-1.66.7-.22,1.55-.8,2.08-.59,3.56,1.39,7.02,3,10.56,4.43,2.64,1.06,3.9,2.84,4.16,5.74.56,6,1.34,11.99-2.82,17.15-.51.63-1.53.86-2.31,1.27.04-.86-.24-1.93.17-2.56,2.3-3.6,2.98-7.5,2.18-11.72ZM32.48,40.23c-.23-.04-.47-.09-.7-.13-.81,1.98-1.45,4.07-2.5,5.91-.46.8-1.85,1.65-2.67,1.52-.88-.14-1.85-1.28-2.27-2.22-.41-.91-.2-2.11-.22-3.19-.03-1.3,0-2.59,0-3.89-.2.01-.41.02-.61.03-.32,4.31-.59,8.62.99,12.83.52,1.37,1.62,1.68,2.8.83.79-.57,1.73-1.25,2.04-2.09,1.17-3.15,2.11-6.39,3.14-9.6Z"/>
  <path d="M91.72,171.18c-.27.82-.27,1.18-.43,1.28-2.11,1.27-3.6,3.02-4.45,5.35-.02.06-1.87-.17-2.28-.71-1.03-1.36-1.86-1.78-3.15-.4-.3.32-.88.48-1.35.53-.74.08-1.49,0-2.24,0,.07-.83-.18-1.91.25-2.46,1.5-1.92,1.64-3.26-.65-4.75-1.71-1.11-1.27-2.47.63-3.16,1.28-.47,2.44-1.34,3.75-1.65.81-.2,2.49.12,2.59.52.67,2.59,2.61,3.11,4.79,3.67,1,.26,1.8,1.25,2.54,1.79Z"/>
  <path d="M48.9,65.53c-.74-4.57-1.58-8.64-1.98-12.76-.16-1.7.49-3.53,1.05-5.21.15-.45,1.32-.56,2.03-.82.11.77.37,1.56.29,2.31-.15,1.52-.84,3.08-.65,4.53.51,3.78,1.43,7.5,2.05,11.26.16.97.17,2.52-.39,2.93-.75.55-2.31.65-3.19.23-3.97-1.86-7.94-1.24-11.94-.41-3.1.64-4.04.27-4.65-2.37-.15-.65.34-1.44.53-2.16.65.22,1.68.27,1.89.71.71,1.48,1.67,1.1,2.89.94,3.99-.53,8.03-1.48,12.07.83Z"/>
  <path d="M104.93,42.98c.35,1.11,1.25,2.59.88,3.06-1.61,2.02-4.35,2.03-5.76.45-.43-.48-1.17-.84-1.82-.94-1.95-.29-2.75-1.73-2.56-4.54.1-1.41-.11-2.84-.11-4.26,0-.52.07-1.3.4-1.5.35-.22,1.07,0,1.55.22.5.22.89.66,1.53,1.16.24-.72.33-1.29.61-1.73.35-.54.91-1.39,1.31-1.35.7.06,1.41.63,1.99,1.13.24.21.25.79.22,1.19-.16,2.26-.08,4.28,2.98,4.42.32.02.79.83.85,1.32.03.32-.49.82-.88,1.04-.47.26-1.06.3-1.19.34Z"/>
  <path d="M105.25,116.91c.42-.83.84-1.66,1.26-2.48.89.71,2.27,1.26,2.57,2.16.71,2.15.6,4.67,3.7,5.11.25.03.55,1.56.49,1.58-2.01.83.29,4.58-2.56,4.29-1.75-.18-3.25-1.04-4.47.86-.64-.54-1.92-1.26-1.82-1.6.51-1.82-.49-2.57-1.78-3.34-.49-.29-.97-.72-1.23-1.21-.39-.72-.57-1.56-.85-2.34.77-.07,1.58-.34,2.29-.18,2.71.63,3.05.36,2.39-2.86Z"/>
  <path d="M147.28,93.62c-.14-1.74-.29-3.49-.43-5.23.16-.08.32-.17.48-.25.4.6.8,1.19,1.19,1.79.65,1,1.48,1.93,1.89,3.02.38,1.01.5,2.21.4,3.29-.16,1.7-.55,3.29,1.53,4.2.4.17.81,1.37.62,1.6-.39.47-1.17.67-1.82.87-.85.26-1.74.39-2.6.6-.24.06-.56.35-.66.28-1.39-1.04-2.86-2.02-4.06-3.25-.34-.35.1-1.45.15-2.21.06-.83.21-1.68.08-2.48-.11-.71-.72-1.36-.8-2.07-.07-.64.27-1.33.44-2,.7.26,1.45.43,2.08.81.37.22.54.77.81,1.18.24-.05.48-.1.72-.15Z"/>
  <path d="M280.08,86.63c.46-.34.75-.67,1.12-.82.99-.41,2-.74,3.01-1.1.17,1.16.7,2.42.42,3.46-.5,1.83-2.03,3.33-1.15,5.61.15.38-1.95,1.79-3.16,2.42-.33.17-1.23-.75-1.87-1.17-.74-.48-1.41-1.17-2.22-1.4-1.28-.36-2.53-.33-2.88-2.13-.38-1.98,1.19-1.77,2.1-2.44.59-.44,1-1.23,1.28-1.95.27-.68.27-1.47.39-2.21.74.38,1.49.74,2.22,1.14.21.11.38.3.75.6Z"/>
  <path d="M297.96,135.33c.64,1.5,1.09,2.57,1.54,3.63-1,.33-2,.67-3.57,1.19-.04.17-.14,1.06-.47,1.87-.21.51-.79,1.26-1.14,1.23-.51-.05-1.32-.65-1.39-1.11-.28-1.91-.4-3.69-3.17-3.34-.29.04-1.11-1.61-1.13-2.49-.03-1.28.31-2.62.72-3.86.31-.95.96-1.79,1.46-2.67.73.49,1.45,1,2.21,1.45.57.34,1.19.8,1.81.84,3.48.22,3.76.53,3.15,3.28Z"/>
  <path d="M220.05,39.86c.44-.62.75-1.34,1.3-1.78.56-.45,1.49-1.03,1.97-.84.57.23,1.25,1.3,1.15,1.87-.4,2.17-.69,4.18,1.27,5.84.11.09-.45,1.32-.94,1.69-.97.72-2.28,1.03-3.16,1.82-1.35,1.22-2.21,1.41-2.83-.54-.14-.44-.31-1.14-.6-1.22-2.86-.78-2.07-2.61-1.72-3.52-.73-2.31-2.07-4.86-1.58-5.3,2.23-1.94,3.08,1.35,5.15,1.97Z"/>
  <path d="M152.47,140.94c-.38,3.21-.66,5.97-1.06,8.73-.07.47-.61,1.25-.92,1.24-.66-.01-1.61-.26-1.91-.75-.88-1.44-1.7-2.31-3.68-2.02-1.47.21-2.07-1.22-1.2-2.36,1.02-1.33.81-2.25.03-3.54-.39-.64-.11-1.68-.13-2.53.76.03,1.52.1,2.28.07.66-.03,1.33-.09,1.95-.29.82-.27,1.87-1.2,2.33-.95.97.52,1.62,1.64,2.3,2.4Z"/>
  <path d="M124.13,49.02s.22-.71.67-.98c.57-.35,1.53-.7,1.98-.44.58.33,1.1,1.25,1.14,1.94.11,1.95-.97,4.16,1.62,5.46.19.09-.32,1.89-.77,2.76-.16.31-1.46.49-1.65.25-1.41-1.78-3.17-.76-4.81-.83-1.13-.04-2.25-.49-3.38-.76.39-.9.83-1.79,1.15-2.71.3-.87.58-1.77.67-2.68.09-.96-.06-1.95-.1-2.93.96.26,1.92.51,3.48.93Z"/>
  <path d="M163.44,87.42l3.31-1.39c.31,1.34.98,2.72.85,4.01-.16,1.55-.59,2.87,1.24,3.7.3.14.6,1.12.47,1.24-1.35,1.22-2.69,2.54-4.28,3.33-.34.17-1.69-1.67-2.57-2.59.17-.23.33-.45.5-.68-.64-.03-1.32.06-1.91-.12-.64-.2-1.51-.53-1.7-1.02-.19-.48.33-1.25.59-1.88.22-.55.8-1.12.73-1.6-.5-3.25-.26-3.5,2.78-3Z"/>
  <path d="M158.21,41.47c-.49.83-.88,2.11-1.33,2.13-.84.03-1.83-.52-2.54-1.09-.88-.71-1.75-1.6-2.24-2.6-.35-.72-.43-2.18.02-2.56,1.16-1.01.6-1.78.29-2.83-.26-.88-.02-1.91,0-2.87.73.5,1.47.99,2.19,1.5.19.13.36.31.77.68.4-.7.65-1.39,1.12-1.88.66-.69,1.48-1.23,2.23-1.84.32.98.97,1.99.89,2.94-.14,1.53-.76,3.01-1.03,3.98.87,1.36,1.47,2.32,2.08,3.28-.83.39-1.65.79-2.44,1.16Z"/>
  <path d="M117.61,38.35c-1.08,2.28-1.81,2.43-3.67.91-.56-.46-1.21-.81-1.86-1.14-1.53-.77-2.17-1.98-1.23-3.43.84-1.29.57-2.17-.11-3.37-.6-1.05-.76-2.35-1.12-3.54.26-.18.53-.36.79-.54.94.76,1.88,1.52,2.98,2.41.26-.33.47-.78.82-1.02.5-.34,1.21-.83,1.63-.68.47.16.84.92,1.05,1.5.16.43.07,1-.02,1.48-.51,2.47-.42,4.51,2.84,4.81.41.04,1.14,1.07,1.02,1.42-.19.56-.88,1.09-1.48,1.34-.46.19-1.1-.07-1.64-.13Z"/>
  <path d="M210.7,97c-.48-1.34-1-2.79-1.51-4.23,1.17.17,2.35.34,3.92.57.1-.37.22-1.24.58-2,.25-.53.89-1.31,1.23-1.25.6.11,1.47.68,1.59,1.21.32,1.44.16,2.99.5,4.42.2.84.99,1.55,1.56,2.29.46.6.97,1.15,1.46,1.72-.57.4-1.09,1.04-1.71,1.15-1.72.31-3.5.6-5.23.5-1.17-.07-2.64-.55-3.3-1.38-.38-.48.58-2.02.91-2.99Z"/>
  <path d="M98.2,156.18c.5,1.33,1.01,2.66,1.49,3.99.14.38.33.82.25,1.19-.25,1.29-4.98,2.6-6,1.77-.97-.79-2.03-1.48-3.09-2.15-1.19-.75-1.51-1.54-.7-2.87.68-1.11,1.03-2.44,1.51-3.67.12-.3.18-.89.28-.9,1.81-.04,3.66-.19,5.42.11.7.12,1.22,1.29,1.82,1.98-.33.19-.65.37-.98.56Z"/>
  <path d="M304.8,153.51c-1.47,2.53-2.55,5.02-4.22,7.01-1.02,1.22-2.37-.08-2.9-1.21-.66-1.39-1.31-2.45-2.92-3.07-1.53-.58-1.34-2.59.11-3.59.8-.55,1.79-1.01,2.31-1.77,1.63-2.39,3.69-.51,5.46-.49.68,0,1.34,1.87,2.16,3.11Z"/>
  <path d="M101.78,102.03c.49-1.1.76-1.96,1.24-2.69.32-.49,1.06-1.21,1.38-1.1.58.19,1.24.83,1.43,1.42.29.92.25,1.96.28,2.95.04,1.63-.32,3.34,1.7,4.25.27.12.17,1.37.01,2.04-.09.4-.71.64-.93,1.05-1.06,1.9-1.79,2.05-3.14.33-1.01-1.3-1.71-2.79-3.81-2.39-.17.03-1.09-1.68-.85-2.05.79-1.2.29-1.88-.33-2.86-.38-.61-.17-1.6-.23-2.41.72.17,1.45.29,2.15.52.29.09.5.41,1.11.94Z"/>
  <path d="M153.84,174.4c-2.34,0-4.99.4-7.4-.18-1.1-.27-2.6-2.67-2.37-3.77.35-1.69-.23-2.79-.69-4.14-.23-.67.03-1.51.07-2.27.73.2,1.46.39,2.18.6,1.22.35,2.46.66,3.64,1.11.84.32,2.07.67,2.33,1.32.91,2.3,1.48,4.74,2.24,7.34Z"/>
  <path d="M234.37,87.89c.37-.54.97-1.63,1.78-2.53.42-.47,1.31-.96,1.81-.82.51.15,1.25,1.17,1.13,1.6-.7,2.55,1.21,5.35-.76,7.75-.62.76-1.11,1.93-1.88,2.16-.53.16-1.44-.98-1.9-1.33-1.47-.58-2.8-.86-3.77-1.6-.37-.28.09-1.64.11-1.79-.67-1.7-1.16-2.94-1.65-4.17,1.56.22,3.12.45,5.13.73Z"/>
  <path d="M154.25,73.62c.73-1.23,1.23-2.28,1.93-3.17.4-.5,1.13-.74,1.71-1.09.38.65,1,1.28,1.08,1.97.1.96-.34,1.98-.29,2.96.05.92.53,1.82.63,2.75.09.82.2,1.87-.21,2.48-1.73,2.57-1.75,2.46-4.09.49-.53-.45-1.53-.39-2.32-.5-1.57-.22-2.16-.88-1.6-2.55.26-.76-.08-1.72-.18-2.59-.11-.95-.25-1.89-.37-2.84.89.4,1.79.77,2.66,1.2.28.14.49.41,1.05.9Z"/>
  <path d="M19.84,26.38c-.53.94-.94,1.66-1.35,2.38-.73-.43-1.49-.82-2.18-1.3-1.01-.71-2.06-1.42-2.92-2.29-.45-.45-.53-1.26-.78-1.9.57-.2,1.17-.63,1.72-.58,6.91.74,13.41,2.7,19.08,6.87.5.37.56,1.34.83,2.03-.67,0-1.42.21-1.99-.02-4.21-1.7-8.39-3.49-12.41-5.18Z"/>
  <path d="M257.09,206.21c-.2.73-.33,1.21-.46,1.69-.46,1.65-.73,3.21.97,4.46.38.28.32,1.16.46,1.77-.58.09-1.2.37-1.73.24-2.32-.53-4.61-1.15-6.91-1.78-1.82-.49-2.69-2.85-1.23-3.53,1.9-.89,1.92-2.38,2.25-3.92.4-1.85,1.23-2.48,2.93-1.13.36.29,1.02.39,1.49.31,1.82-.34,2.11.76,2.24,1.89Z"/>
  <path d="M184.12,81.43c1.49-.75,2.52-1.27,3.55-1.79.5,1.22,1,2.44,1.48,3.67.31.8.44,1.72.91,2.41.77,1.12.97,1.86-.55,2.46-.62.24-1.05.97-1.67,1.24-.67.3-1.52.56-2.2.41-1-.22-2.12-.63-2.83-1.32-.78-.77-1.87-2.52-1.59-2.87,1.21-1.52.54-2.4-.37-3.61-.44-.59-.3-1.62-.43-2.45.83.26,1.71.44,2.48.82.55.27.98.81,1.21,1.02Z"/>
  <path d="M249.95,73.04c-.66-1.68-1.19-3.02-1.72-4.35,1.4.31,2.8.63,4.37.98,0,0,.15-.17.32-.35.74-.77,1.63-2.27,2.2-2.16,1.81.36,1,2.04,1.12,3.3.07.82.47,1.69.96,2.38.51.72,1.29,1.24,1.95,1.85-.81.44-1.62.88-2.13,1.15-.49,1.02-.68,2.28-1.38,2.69-.98.58-2.58.52-2.37-1.24.23-1.9-.56-1.77-1.8-1.37-.47.15-.99.53-1.41.43-.78-.18-1.5-.62-2.24-.95.39-.6.72-1.26,1.2-1.79.31-.35.82-.51.94-.58Z"/>
  <path d="M229.01,74.08c-.31-1.08-.83-2.12-.78-3.13.02-.32,1.56-.56,3.06-1.05-.43.4-.31.29-.19.18.82-.77,1.65-1.54,2.47-2.32.6,1.21,1.67,2.41,1.68,3.62.02,1.82,0,3.2,2.16,3.65.33.07.81,1.22.7,1.34-.85.83-1.94,1.44-2.76,2.29-1.17,1.22-2.1.98-3.15-.11-.24-.25-.74-.24-1.12-.37-.94-.31-2.44-.42-2.67-1.01-.31-.82.34-2.01.59-3.09Z"/>
  <path d="M196.1,40.96c-.22-1.32-.44-2.64-.65-3.95,1.39.35,2.79.69,4.18,1.04-.03.13-.06.27-.09.4.15-.05.32-.08.46-.16.96-.59,1.92-1.19,2.88-1.79.39,1.09.8,2.18,1.17,3.28.07.22-.14.63-.03.72,2.69,2.21.33,4-.53,5.85-.32.68-1.06,1.16-1.61,1.73-.4-.64-1.11-1.26-1.13-1.91-.06-1.78-.86-1.99-2.42-1.83-.83.09-1.95-.38-2.51-.99-.27-.3.45-1.5.72-2.29-.15-.03-.29-.06-.44-.09Z"/>
  <path d="M152.31,52.62c.54-.19,1.39-.49,2.25-.8.31.95.84,1.89.9,2.85.11,1.74-.29,3.33,1.31,4.92,1.71,1.7-1.52,2.02-1.74,3.42-.02.11-1.72.32-2.06-.05-1.1-1.17-2.11-2.02-3.89-2.16-1.22-.1-2.02-1.43-.77-2.58,1.37-1.25,1.81-2.37.68-4.03-.31-.46.02-1.36.06-2.06,1.02.15,2.04.3,3.27.48Z"/>
  <path d="M103.57,67.92c-1.36-.14-2.4-.24-3.45-.35.14-1.03.27-2.07.48-3.61.02.03-.48-.35-.66-.85-.26-.7-.28-1.49-.4-2.23.75,0,1.54-.15,2.23.05,1,.3,1.89,1.18,2.72-.34.32-.58,1.45-1.37,1.63-1.25.76.54,1.7,1.33,1.82,2.14.21,1.4.11,2.75,1.56,3.63.24.14.03,1.01.02,1.55-2.84-.43-.91,4.41-3.85,3.55-.91-.26-1.5-1.61-2.1-2.29Z"/>
  <path d="M165.12,165.53c0,1.44.56,3.6-1.95,4.29-.71.2-2.09.04-2.31-.39-.8-1.58-1.73-2.01-3.4-1.4-.44.16-1.3-.25-1.66-.66-.25-.29-.04-1.05.1-1.57.37-1.38.97-2.72,1.2-4.11.25-1.51.8-2.07,2.32-1.52.83.3,1.74.55,2.61.55,3.07,0,3.44.33,3.2,3.42-.02.33-.06.66-.12,1.38Z"/>
  <path d="M138.95,71.46c-.64,1.08-1.13,1.92-1.62,2.75-.67-.78-1.32-1.58-2.03-2.32-.51-.53-1.09-1-1.68-1.44-.16-.12-.55.07-.71-.05-.44-.32-.82-.74-1.22-1.11,1.86-1.93-1.41-3.91.05-5.64.25-.3,1.97.63,3.45,1.15.13-.36.35-1.11.66-1.84.33-.77.73-1.5,1.1-2.26,1.19.62,2.87.82,2.49,2.81-.21,1.05-.59,2.08-.69,3.14-.06.57.2,1.25.5,1.76.41.69,1,1.27,1.51,1.9-.71.45-1.42.9-1.8,1.14Z"/>
  <path d="M317.76,67.92s.13,0,.28-.08c1.03-.5,2.05-1.02,3.07-1.53.01,1.31.1,2.63.02,3.93-.09,1.41-.07,2.93-.61,4.19-.48,1.13-1.52,2.61-2.53,2.8-2.08.39-2.29-1.29-2.34-2.52-1.4-1.04-2.79-2.09-4.19-3.13.81-.77,1.61-1.53,2.51-2.39.3-.8.7-1.86,1.1-2.92.79.48,1.58.97,2.68,1.64Z"/>
  <path d="M82.54,146.33c.19-.04.99-.16,1.74-.42,2-.71,2.72-.24,3.03,1.8.21,1.43.55,2.87,1.06,4.21.82,2.11-1.16,2.52-2.1,3.37-.43.39-1.83-.14-2.71-.46-.89-.32-1.64-1.16-2.54-1.31-2.4-.4-2.8-1.14-1.54-3.2.29-.47.42-1.22.27-1.74-.58-2.05.29-2.6,2.79-2.25Z"/>
  <path d="M193.97,52.94c.28-.49.4-.81.61-1.04.67-.7,1.37-1.36,2.06-2.04.49,1.02,1.4,2.04,1.38,3.05-.04,2.05-.75,3.95,1.75,5.32,1.36.74.53,1.87-.73,2.26-1.02.31-2.08.54-3.14.67-2,.25-4.61-2.84-4.28-4.79.12-.68-.41-1.45-.55-2.19-.18-.94-.26-1.9-.38-2.85.83.35,1.67.69,2.49,1.06.22.1.39.28.78.57Z"/>
  <path d="M225.8,56.32c-.2-2.08-.34-3.57-.48-5.06,1.17.51,2.33,1.03,3.85,1.7.33-.53.75-1.5,1.44-2.23.41-.44,1.36-.83,1.82-.64.47.19.86,1.11.89,1.72.03.8-.25,1.64-.54,2.41-.48,1.24-.53,2.2.91,2.85.44.2,1.04,1.01.93,1.26-.22.49-.84.87-1.37,1.14-1.72.86-3.48,2.09-5.02-.37-.13-.2-.94.1-1.39,0-.85-.18-1.67-.48-2.5-.74.45-.64.89-1.29,1.35-1.92.14-.19.35-.33.1-.11Z"/>
  <path d="M136.36,32.17c1.68-.52,2.83-.88,3.98-1.23.31,1.26.65,2.51.9,3.78.06.29-.35.77-.23.93,1.65,2.23-.1,3.53-1.3,5-.25.31-.6.95-.69.91-1.48-.58-3.02-1.09-4.32-1.97-.56-.38-.7-1.54-.8-2.37-.12-.93.1-1.89.03-2.83-.04-.64-.46-1.27-.45-1.9,0-.61.33-1.21.52-1.81.63.26,1.31.44,1.86.82.38.26.57.79.49.68Z"/>
  <path d="M92.26,16.11c0,1.31.27,2.23-.07,2.76-.43.67-1.48,1.57-2.03,1.43-1.74-.43-3.43-1.21-5.05-2.03-1.48-.76-1.94-1.83-.82-3.44.93-1.34,1.53-2.93,2.25-4.41.78-1.59,1.72-1.71,3.15-.66,2.45,1.78,2.48,4.33,2.56,6.36Z"/>
  <path d="M175.66,59.63c-.92.63-1.84,1.27-2.76,1.9-.36-.9-.71-1.8-1.23-3.11.18.03-.22.02-.57-.12-.71-.29-1.74-.49-1.98-1.01-.24-.55.28-1.45.5-2.2.19-.64.46-1.26.6-1.92.18-.88.26-1.77.38-2.66.88.26,1.77.52,3.15.94-.41.07-.24.07-.09.01.9-.41,1.8-.83,2.7-1.24.17,1.14.35,2.28.49,3.43.1.8-.02,1.67.24,2.4.31.84.94,1.55,1.43,2.32-.93.35-1.86.69-2.8,1.04-.02.08-.04.15-.05.23Z"/>
  <path d="M176.1,37.9c.09-1.58.16-2.61.22-3.63,1.28.56,2.55,1.12,4.25,1.87.18-.23.61-1.01,1.25-1.55.53-.45,1.31-.6,1.97-.89.22.72.69,1.47.61,2.16-.11.96-.67,1.86-.96,2.82-.16.54-.46,1.32-.22,1.66,2.09,2.98-.5,3.18-2.24,3.79-1.06.37-5.94-3.26-5.78-4.37.13-.86.79-1.64.9-1.86Z"/>
  <path d="M303.18,57.03c-1.5.12-2.31.18-3.12.24.12.13.25.25.37.38-.78.74-1.57,1.48-2.35,2.22-1.32-2.51-3.42-4.11-5.99-5.21-.11-.05-.07-1.1.19-1.29,1.24-.91,1.9-1.96,1.38-3.52,1.03-.21,2.05-.42,3.08-.62.03.11.05.22.08.33.94-.23,1.89-.47,2.83-.7.17.99.25,2.01.55,2.95.31.99.8,1.93,1.3,2.85.37.67.89,1.27,1.68,2.37Z"/>
  <path d="M243.25,44.85c-.54-1.49-.93-2.57-1.32-3.66,1.1.11,2.21.22,2.89.28,1.58-.58,2.91-1.06,4.25-1.55.45,1.41.89,2.82,1.34,4.23-.23.11-.47.23-.7.34.48.28,1.03.49,1.41.87.47.47.81,1.08,1.2,1.63-.57.23-1.14.47-1.71.68-.15.05-.43-.07-.48,0-1.72,2.49-3.82,1.4-5.89.64-.85-.31-1.7-.64-2.55-.96.44-.71.88-1.42,1.32-2.13.13-.21.27-.4.25-.37Z"/>
  <path d="M103.22,80.86c.54-.88.83-1.61,1.34-2.11.47-.46,1.19-.67,1.8-.99.33.68,1.04,1.43.93,2.03-.33,1.76-.97,3.41,1.47,4.2.29.09.58,1.32.42,1.46-.72.57-1.61.94-2.39,1.35-.42.67-.86,1.38-1.31,2.09-.7-.46-1.34-1.15-2.1-1.35-2.67-.68-3.84-2.14-3.08-4.92.05-.19-.52-.5-.55-.78-.08-.74-.01-1.49,0-2.24.67.08,1.37.08,2.01.28.44.13.8.53,1.47,1Z"/>
  <path d="M146.03,120.79c.3-.32.8-1.19,1.56-1.56.68-.33,1.78-.39,2.41-.05.43.23.7,1.5.46,2.06-.59,1.37-.87,2.32.12,3.84,1.31,2.01-1.57,2.61-2.13,4.1-.71-.43-1.41-.89-2.15-1.28-.65-.35-1.33-.84-2.03-.89-1.79-.11-2.44-.71-1.62-2.5.22-.48-.01-1.17-.04-1.76-.05-1.05-.1-2.09-.16-3.14,1,.33,2,.65,3.58,1.17Z"/>
  <path d="M168.46,66.68c-.02-.09-.27-.75-.21-1.38.05-.52.34-1.18.75-1.44.38-.24,1.48-.18,1.53-.02.7,2.13,4.67-.28,4.39,3.2-.05.63.51,1.33.88,1.95.46.77,1.02,1.49,1.54,2.23-.86.21-1.73.42-2.59.61-.23.05-.48.04-.82.06-.16.55-.18,1.2-.51,1.6-.42.51-1.09.8-1.65,1.19-.38-.55-.77-1.1-1.14-1.66-.46-.68-.77-1.53-1.38-2.01-.73-.57-1.7-.84-2.57-1.24.48-.83.96-1.67,1.79-3.12Z"/>
  <path d="M203.49,81.68c-.32-.7-.83-1.49-1.01-2.34-.16-.78.04-1.65.07-2.47.78.38,1.56.75,2.32,1.17.2.11.32.37.47.55,2.76-.86,3.71,0,3.81,3.01.04,1.16.72,2.29,1.07,3.44.24.8.42,1.62.62,2.43-.82.13-1.75.56-2.46.34-2.16-.7-4.27-1.6-6.34-2.54-.41-.19-.91-1.17-.77-1.37.51-.74,1.27-1.3,2.21-2.19Z"/>
  <path d="M49.04,36.1c.9-.16,1.85-.34,2.81-.51.24,1.62.48,3.23.8,5.32,2.35,1.81,2.33,1.93-.02,4.07-1.15,1.04-2.13.71-2.59-.4-.68-1.63-1.87-1.53-3.22-1.57-.72-.02-1.42-.49-2.13-.76.33-.73.71-1.44.98-2.19.24-.67.44-1.38.48-2.08.07-1.12,0-2.24-.01-3.37.96.49,1.92.98,2.91,1.48Z"/>
  <path d="M264.74,99.96c.66-.84,1.1-1.5,1.65-2.06.37-.37.96-.87,1.34-.79.44.09.97.71,1.08,1.18.2.87.5,2.1.07,2.66-1.36,1.78-1.22,3.15.39,4.59.18.16.12.95-.08,1.09-.36.24-.96.37-1.35.24-1.11-.36-2.14-1.35-3.3.01-.11.13-1.55-.62-1.54-.65.78-2.05-4.44-1.69-1.81-4.51.4-.43.22-1.41.27-2.13.06-.9.09-1.8.13-2.69.75.51,1.54.98,2.23,1.56.34.29.5.79.92,1.51Z"/>
  <path d="M118.29,71.29c.32-.75.68-1.86,1.25-2.84.28-.48,1.13-1.11,1.45-.98.56.22,1.16.91,1.31,1.51.5,2.12,1.06,4.28,1.08,6.44,0,.93-1.08,2.44-1.96,2.69-1.52.43-3.35.4-4.89-.03-1.35-.37-.87-1.61-.3-2.67.22-.4-.19-1.15-.35-1.73-.26-.92-.56-1.84-.84-2.76.95.11,1.89.22,3.26.37Z"/>
  <path d="M167.68,136.02c-.72.3-1.35.74-2.01.79-.86.07-1.76-.11-2.62-.3-1.61-.35-3.28-.61-4.76-1.28-.37-.17-.51-2.18-.08-2.53,1.02-.82,1.5-1.53,1.35-2.88-.05-.47.74-1.12,1.27-1.55.28-.23.83-.07,1.19-.24,3.37-1.58,3.48-1.43,3.72,2.43.08,1.37.83,2.69,1.3,4.03.13.38.32.74.66,1.52Z"/>
  <path d="M260.13,117.4c-.11-.45-.24-.76-.26-1.08-.09-1-.14-2-.21-3,.81.35,1.59.75,2.42,1.05.76.28,1.59.38,2.34.68.65.26,1.47.54,1.8,1.07.9,1.44-.93,6.79-2.52,7.37-.58.21-1.43-.03-2.06-.3-.81-.36-1.58-.88-2.26-1.46-2.75-2.34-2.71-2.54.74-4.33Z"/>
  <path d="M102.11,144.06c-.12-.03-.65,0-.73-.18-.88-2.11-4.01-2.68-3.8-5.57.04-.49-.52-.99-.64-1.52-.15-.67-.14-1.38-.21-2.07.68-.03,1.36-.07,2.04-.1.79-.04,1.71.17,2.34-.17,1.7-.92,2.78-.48,3.16,1.4.24,1.16.64,2.31,1.13,3.39.72,1.61-1.33,4.91-3.28,4.82Z"/>
  <path d="M265.93,183.62c2.53.04,3.4,1.16,2.53,3.17-.79,1.83-1.84,3.56.16,5.31.09.08-.78,1.54-.87,1.51-2.14-.82-4.25-1.75-6.34-2.69-.2-.09-.49-.38-.47-.54.2-1.42.81-2.88.63-4.24-.33-2.46,1.11-2.29,2.67-2.29.65,0,1.31-.18,1.69-.23Z"/>
  <path d="M201.31,66.71c1.36-.35,2.57-1.04,3.08-.7.7.47.8,1.77,1.29,2.64.48.85,1.15,1.59,1.67,2.42.32.51.74,1.12.7,1.65-.03.32-.85.6-1.34.85-.89.44-1.79.9-2.72,1.23-.64.23-1.75.59-1.97.32-1.1-1.32-2.09-2.78-2.9-4.3-.37-.69-.24-1.64-.34-2.48-.09-.82-.17-1.64-.25-2.47.8.21,1.6.4,2.39.63.23.07.42.23.37.2Z"/>
  <path d="M272.31,47c-.75.29-1.85.85-3.02,1.09-.57.12-1.27-.36-1.91-.57,1.36-2.15-4.91-2.62-1.18-5.39.52-.39.49-1.53.72-2.32.19-.67.4-1.33.6-2,.61.27,1.22.55,1.84.82.55.24,1.12.7,1.66.67,2.59-.12,3.34.93,2.43,3.37-.46,1.23-.68,2.55-1.14,4.32Z"/>
  <path d="M213.35,56.5c.03-.08.09-.58.36-.78.59-.44,1.3-.74,1.96-1.09.34.75,1.09,1.6.95,2.24-.38,1.65-.35,2.98.76,4.41.83,1.07.61,2.17-1.08,2.54-.56.12-.96.86-1.5,1.21-.57.37-1.58,1.03-1.76.87-.86-.79-1.34-2.07-2.27-2.71-1.93-1.32-.58-2.14-.13-2.67-.18-1.62-.31-2.82-.44-4.02h3.15Z"/>
  <path d="M10.4,40.58c-.35-1.6-.67-3.08-.98-4.55,1,.22,1.99.45,3.35.75.09-.17.29-.8.7-1.22.46-.47,1.12-.75,1.69-1.11.23.66.75,1.37.62,1.96-.41,1.91-1.04,3.73,1.42,4.83.21.09.15,1.44-.19,1.92-.53.75-1.5,1.85-2.11,1.75-2.04-.35-4-1.16-6-1.8.56-.93,1.11-1.87,1.51-2.53Z"/>
  <path d="M353.5,162.85c.19,1.56-.82,3.31.87,4.66.29.23.35,1.22.1,1.54-.23.3-1.04.3-1.54.19-.53-.11-.99-.51-1.79-.95-.16,1.14-.29,2.06-.43,3.1-1.91.28-2.43-.84-2.42-2.43.01-1.37.09-2.64-1.69-3.12-.43-.12-1.01-1.13-.9-1.57.47-1.86,1.18-3.67,1.8-5.5.7.44,1.8.72,2.04,1.34.74,1.94,2.24,2.51,4.03,2.81,0,0-.07-.07-.07-.07Z"/>
  <path d="M273.03,175.23c-3.96-.07-4.89-1.52-3.99-4.56.3-1.02-.07-2.24-.16-3.37-.13-1.5-.01-2.56,2-1.81.8.3,1.77.19,2.66.2,1.89.01,2.88,1.21,2.49,3.04-.35,1.68-.44,3.45-1.08,5.01-.33.82-1.59,1.25-1.92,1.49Z"/>
  <path d="M316.43,53.38c-.84.73-1.49,1.41-2.25,1.91-.56.37-1.3.75-1.91.67-.37-.05-.91-.97-.88-1.47.08-1.45-.22-2.18-1.89-2.07-.51.03-1.25-.67-1.54-1.22-.14-.26.52-.97.85-1.44.51-.74,1.18-1.41,1.56-2.21.68-1.43,1.35-2.29,2.96-.97.47.39,1.31.48,1.98.46,2.03-.07,2.81.95,2.16,2.95-.37,1.14-.71,2.29-1.04,3.38Z"/>
  <path d="M299.95,82.11c.82,0,1.75-.26,2.27.08.41.27.48,1.31.42,1.98-.18,2.23-.49,4.45-.79,6.99-1.61.01-4.27,1.28-4.8-2.54-.04-.3-.67-.48-.9-.8-.63-.88-1.2-1.81-1.79-2.71.78-.49,1.56-.98,2.09-1.31.55-1.15,1.03-2.16,1.51-3.18.67.5,1.34,1,1.98,1.48Z"/>
  <path d="M85.19,116.39c1.45.32,2.9.64,4.36.95-.06.14-.12.27-.17.41,1.08-.18,2.67-.87,3.11-.43.71.72.68,2.19.95,3.34.51,2.24-1.07,3.53-2.41,4.77-.46.43-1.58.13-2.41.17.52-2.24-5.43-1.03-2.45-4.59.1-.12.14-.29.02-.03-.35-1.8-.64-3.24-.92-4.67,0,0-.07.08-.07.08Z"/>
  <path d="M119.01,97.65c-.49.85-.97,1.7-1.45,2.54-.79-.6-1.55-1.24-2.37-1.79-.93-.63-1.85-1.47-2.89-1.69-1.63-.35-2.2-.96-1.51-2.53.16-.36.38-.85.26-1.15-.85-2.13-.41-3.1,2.04-2.47.14.04.32-.05.47-.11,3.29-1.47,3.37-1.36,3.92,2.13.26,1.63.95,3.19,1.54,5.07Z"/>
  <path d="M274.87,75.56c-1.52.44-2.79.92-4.1,1.13-.52.09-1.19-.32-1.7-.66-.63-.41-1.2-.94-1.73-1.48-.54-.56-1.28-1.13-1.41-1.8-.08-.43.69-1.33,1.24-1.52,1.73-.57,1.14-1.64.93-2.8-.12-.64.18-1.36.3-2.04.62.26,1.24.51,1.86.78.41.18.9.63,1.19.53,2.8-1.02,2.85,1.01,2.27,2.46-.74,1.83-.53,3.06.83,4.32.2.19.19.6.32,1.08Z"/>
  <path d="M297.16,112.15c1.11,0,2.79-.45,3.21.09.92,1.19.63,2.62-.45,4.05-.58.77-.1,2.33-.1,3.95-1.53-.42-2.98-.6-4.21-1.22-1.51-.76-2.52-2.52-4.56-2.21.1-.77-.06-1.74.35-2.28.8-1.05,1.79-2.1,2.93-2.68.74-.37,1.9.12,2.87.22-.02.02-.03.05-.05.07Z"/>
  <path d="M149.38,183.52c0,1.49.03,2.99-.03,4.48,0,.24-.39.5-.63.7-.81.68-1.61,1.39-2.47,2-.49.34-1.09.52-1.65.77-.19-.5-.34-1-.56-1.49-.39-.86-.99-1.67-1.19-2.57-.39-1.8-.58-3.64-.79-5.46-.02-.15.47-.48.75-.51,1.55-.16,3.14-.51,4.64-.27.96.15,1.78,1.19,2.66,1.84-.24.17-.49.35-.73.52Z"/>
  <path d="M303.23,179.63c-.45-.14-1.11-.32-1.76-.54-.45-.16-.89-.52-1.33-.52-.88,0-2.4.54-2.54.27-.76-1.43-1.18-3.04-1.68-4.61-.09-.28.09-.64.07-.96-.18-3.63-.18-3.57,3.44-3.47,1.58.04,2.52.51,2.73,2.17.3,2.42.67,4.82,1.07,7.66Z"/>
  <path d="M169.01,108.81c.4,1.49.88,2.97,1.15,4.49.09.52-.19,1.51-.53,1.63-1.37.48-2.83.86-4.27.95-.68.04-1.51-.53-2.08-1.04-.54-.48-.83-1.23-1.23-1.87,2.8-.53-1.73-5.32,2.85-4.89.57.05,1.19-.53,1.8-.75.63-.23,1.42-.69,1.91-.49.53.22.78,1.1,1.15,1.68-.25.1-.5.19-.76.29Z"/>
  <path d="M282.78,60.72c-3.26.7-7.4-1.17-8.2-3.76-.19-.62.84-1.62,1.81-2.21-.03-.57-.18-1.16-.07-1.71.13-.68.46-1.32.71-1.98.6.32,1.18.67,1.8.95.68.31,1.36.73,2.08.82,1.83.23,3.01,1.66,2.01,3.02-1.25,1.7-1.37,3.19-.13,4.86Z"/>
  <path d="M299.94,45.64c-.2.06-1.08.23-1.9.57-2.6,1.06-3.28.61-3.04-2.03-.85-.27-1.76-.43-2.49-.88-.29-.18-.45-1.19-.22-1.51,1.04-1.47,2.23-2.82,3.37-4.22.62.51,1.25,1.03,2.01,1.65.42-.2.91-.57,1.44-.64.65-.09,1.6-.18,1.93.19.37.41.37,1.35.24,2-.29,1.43-.76,2.81-1.34,4.87Z"/>
  <path d="M277.26,153.34c-2.05-.1-4.16-.12-6.21-.42-.3-.04-.78-2-.49-2.25,1.54-1.3,1.37-2.64.6-4.18-.18-.35-.29-.83-.22-1.2.17-.89.48-1.75.73-2.63.7.57,1.38,1.17,2.09,1.72.69.53,1.36,1.3,2.15,1.48,1.71.4,2.04,1.48,1.89,2.94-.14,1.44-.34,2.88-.54,4.56Z"/>
  <path d="M257.29,57.94c.05-.13.15-.64.44-1,.37-.47,1.05-1.24,1.32-1.14.58.22,1.22.83,1.43,1.42.59,1.71.98,3.49,1.95,5.06-.52.95-.9,2.05-1.63,2.78-.42.42-1.48.41-2.19.27-.79-.15-1.5-.7-2.26-1.04-.85-.38-2.07-.5-2.46-1.15-.28-.46.52-1.59.8-2.31-.11-.96-.22-1.93-.33-2.9h2.95Z"/>
  <path d="M307.52,81.68c.77-1.12,1.33-1.93,1.88-2.73.66.52,1.32,1.04,1.84,1.45.9.06,2.1-.19,2.47.25.42.5.16,1.63.09,2.47-.12,1.5-.31,3-.51,4.94-1.08,0-2.7.47-3.72-.11-1.63-.91-3.03-2.4-4.22-3.89-1.12-1.4-.33-2.15,2.18-2.4Z"/>
  <path d="M298.75,100.17s.5-.26.95-.23c.6.03,1.46.1,1.72.48.28.4.2,1.36-.11,1.79-.82,1.13-1.53,2.09-.63,3.56.21.35-.4,1.74-.62,1.74-1.38-.01-2.77-.22-4.11-.52-.33-.08-.44-.88-.8-1.15-2.98-2.17-2.98-2.39-.33-3.66.44-1.72.79-3.1,1.14-4.48.84.75,1.68,1.49,2.8,2.48Z"/>
  <path d="M336.21,113.7c-1.96-.86-4.41.25-5.5-2.47-.17-.42-1.07-.5-1.41-.91-.48-.59-1.23-1.52-1.05-1.99.61-1.57,1.54-3.03,2.46-4.46.15-.23,1.29-.14,1.3-.09.4,2.49,4.18-.2,4.2,2.75,0,.25,0,.53-.12.73-1.01,1.77-1.14,3.46.23,5.13.14.17-.04.61-.11,1.32Z"/>
  <path d="M299.45,192.74c-.47.21-1.37.7-2.33,1.02-.49.16-1.27.23-1.61-.04-1-.8-2.15-1.66-2.63-2.77-.29-.68.53-1.84.94-3.05v-3.39c1.69.06,3.4-.03,5.05.26.49.09,1.11,1.25,1.1,1.91-.02,1.95-.32,3.91-.54,6.06Z"/>
  <path d="M328.43,85.76c1.4.21,2.4.35,3.4.5-.18,1.08-.23,2.2-.57,3.24-.47,1.46-1.15,2.86-1.85,4.56-1.21-1.04-4.77.82-4.4-3.36.03-.34-.86-.71-1.22-1.14-.77-.93-1.24-1.85.36-2.49.41-.16.76-.52,1.06-.87.54-.62,1.01-1.29,1.52-1.94.64.57,1.28,1.13,1.7,1.51Z"/>
  <path d="M249.96,93.72c.23-1.67.42-3.02.61-4.37.86.65,1.73,1.3,3.06,2.31,2.08-.18,2.36.37,2.77,3.42.31,2.3-.48,3.33-2.44,4.19-1.53.67-2.49.69-3.08-1.02-.1-.29-.22-.64-.44-.83q-2.56-2.19-.48-3.7Z"/>
  <path d="M284.55,108.18c.48.95,2.18,2.9-1.71,2.49-.83-.09-2.4,1.16-2.52,1-.9-1.26-1.85-2.39-3.34-2.97.47-1.09.93-2.19,1.4-3.28.14.06.27.13.41.19.33-1.09.65-2.17.98-3.26.84.47,1.67.95,2.83,1.61h2.65c-.2,1.21-.4,2.43-.7,4.21Z"/>
  <path d="M298.84,76.69c-2.23-1.16-5.42.42-6.91-2.82-.39-.86-.84-1.69-1.26-2.54.77-.36,1.53-.73,2.47-1.17.21-1.61.34-3.79,2.85-1.35.06.05.14.09.22.11q3.91,1.1,1.71,4.19c.49.99.97,1.97,1.46,2.96-.18.21-.36.41-.54.62Z"/>
  <path d="M291.02,214.27c-1.3.1-3.45,1.85-4.17-1.51-.06-.3-.81-.46-1.24-.69-1.82-.99-1.94-1.94-.48-3.35.31-.3.54-.73.72-1.13.33-.77.59-1.56.88-2.34.74.4,1.48.8,2.13,1.15.8-.17,1.67-.36,2.55-.55.16.99.5,2,.43,2.98-.13,1.74-.51,3.46-.82,5.44Z"/>
  <path d="M9.19,20.06c-.21-.14-1.33-.44-1.54-1.06-.69-2-1.15-4.09-1.47-6.19-.1-.67.4-2,.79-2.07.85-.15,2.15,0,2.68.58,1.5,1.64,2.81,3.48,3.97,5.38.86,1.41-1.34,3.32-4.44,3.35Z"/>
  <path d="M16.97,67.5c-.34-.29-1.01-.87-1.68-1.45.71-.35,1.42-.98,2.14-.98,1.84,0,2.57-1.14,3.34-2.52.92-1.64,1.96-3.25,3.15-4.69.3-.36,1.39-.08,2.12-.09-.1.65-.04,1.39-.33,1.94-.81,1.53-1.84,2.94-2.63,4.47-1.17,2.25-3.06,3.16-6.1,3.32Z"/>
  <path d="M362.07,189.8c-2.03,1.49-.09,4.68-3.11,5.3-.53.11-1.15.24-1.61.05-.75-.3-1.81-4.84-1.46-5.64.15-.36.19-.76.32-1.13.2-.56.45-1.11.67-1.67.56.27,1.11.55,1.68.8.54.25,1.14.41,1.63.73.6.39,1.12.92,1.89,1.55Z"/>
  <path d="M62,59.77c.45.47,1.25.93,1.29,1.43.21,3.36,2.63,5.2,4.69,7.35.56.58.69,1.58,1.02,2.38-.84-.3-1.91-.37-2.47-.95-1.6-1.67-3.22-3.4-4.39-5.37-.75-1.25-.73-2.96-1.06-4.47.31-.13.62-.25.92-.38Z"/>
  <path d="M55.23,67.17c.81,1.01,1.23,1.39,1.48,1.87,1.12,2.17,2.25,4.33,3.23,6.55.37.84.34,1.85.5,2.78-.81-.51-1.92-.83-2.36-1.55-1.37-2.23-2.57-4.57-3.63-6.96-.23-.52.39-1.42.78-2.69Z"/>
  <path class="cls-1" d="M52.34,89.08c-1.79-.34-3.11-.49-4.35-.88-.48-.15-.79-.85-1.18-1.3.5-.27,1.01-.77,1.5-.75,1.31.05,2.64.2,3.89.56.69.19,1.25.87,1.87,1.33-.67.41-1.33.81-1.73,1.05Z"/>
  <path class="cls-1" d="M35.2,85.16c2.74.34,5.47.68,8.37,1.04-1.31,1.93-4.86,1.64-8.44-.38.02-.22.05-.44.07-.65Z"/>
</svg>