<?xml version="1.0" encoding="UTF-8"?>
<svg id="Layer_1" xmlns="http://www.w3.org/2000/svg" viewBox="0 0 389.15 256.74">
  <defs>
    <style>
      .cls-1 {
        fill: #fff;
      }
    </style>
  </defs>
  <g>
    <path class="cls-1" d="M389.15,5.75V0h-5.33c1.98,1.71,3.77,3.64,5.33,5.75Z"/>
    <path d="M377.6,170.74c-2-12.67-7.65-24.07-12.26-35.83-3.13-7.96-6.6-15.78-9.84-23.7-2.34-5.74-4.48-11.57-6.83-17.31-1.34-3.26-3.02-6.39-4.4-9.64-1.07-2.51-1.84-5.16-2.91-7.67-2.98-7.02-6-14.03-9.1-21-.54-1.21-1.35-2.43-2.35-3.28-6.46-5.49-14.23-8.19-22.45-9.15-11.74-1.37-23.55-2.15-35.34-3.11-7.17-.58-14.37-.84-21.53-1.55-10.19-1.01-20.18-3.14-29.91-6.4-3.76-1.25-7.47-2.75-11.3-3.67-3.16-.3-6.3-.73-9.37-1.37-1.53-.32-3.04-.72-4.54-1.19-2.54-.22-5.11-.22-7.73.16-7.65,1.1-15.41,1.47-23.09,2.4-7.86.95-15.65,2.53-23.52,3.2-9.44.8-18.94.91-28.41,1.34-4.03.18-7.15-1.57-9.35-4.74-1.9-2.74-3.51-5.7-5.03-8.67-1.07-2.09-2.27-2.55-3.96-.83-1.45,1.47-2.49,3.38-4.01,4.76-1.75,1.59-3.68,3.67-5.79,4.03-3.42.57-7.27.63-10.55-.37-8.87-2.72-17.68-2.05-26.55-.74-3.51.52-6.99,1.33-10.44,2.18-4.23,1.05-8.38,2.43-12.63,3.38-4.22.95-5.19.22-7.53-3.36-3.14-4.79-6.45-9.48-9.82-14.11-.83-1.14-2.04-2.17-3.3-2.81-1.42-.72-3.16-.56-3.32,1.46C.11,17.06-.05,20.97.02,24.87c.07,4.34.5,8.68.73,13.02.44,8.07-.09,16.22,2.62,24.06,2.37,6.88,4.43,13.87,6.96,20.69.95,2.56,3.06,4.67,4.32,7.15,3.1,6.1,5.88,12.36,9.02,18.43,3.11,5.99,6.6,11.65,12.37,15.68,4.5,3.14,9.41,4.92,14.7,5.09,7.12.23,12.68-3.82,16.95-8.84,5.99-7.06,11.16-14.82,16.67-22.29,2.84-3.86,5.65-7.74,8.48-11.61.26.08.51.17.77.25-.39,2.81-.54,5.68-1.21,8.42-1.5,6.09-3.42,12.08-4.88,18.18-1.6,6.7-2.86,13.49-4.31,20.23-1.45,6.76-2.84,13.54-4.48,20.25-1.17,4.77-2.88,9.4-4.07,14.17-1.16,4.63-2.61,9-5.95,12.62-1.19,1.3-2.07,3.03-2.64,4.71-.72,2.13-.73,4.49-1.46,6.61-2.57,7.45-3.33,15.04-2.37,22.85.54,4.36,5.19,9.07,9.35,8.13,3.88-.88,8.06-2.42,11.03-4.94,5.55-4.71,10.88-9.75,13.21-17.28,1.79-5.76,4.84-11.13,7.28-16.69,2.65-6.06,5.3-12.12,7.84-18.23,3.23-7.75,6.34-15.56,9.5-23.34.07-.17.15-.34.17-.52.29-2.12.2-4.38.93-6.33,1.02-2.75,2.65-5.27,4.02-7.89.76,3.39,1.14,6.46,1.17,9.54.06,8.27-.33,16.56.04,24.82.26,5.8.85,11.74,2.43,17.3,1.68,5.91,5.15,11.07,9.68,15.53,3.91,3.86,10.5,4.35,13.43-.21,3.47-5.41,6.54-11.18,8.9-17.15,3.01-7.61,5.23-15.53,7.6-23.38,2.41-8.01,4.64-16.07,6.83-24.14.48-1.78,1.46-2.35,3.11-2.34,8.19.09,16.38.25,24.57.22,6.9-.03,13.88.26,20.7-.58,10.47-1.29,20.82-3.56,31.25-5.16,7.49-1.14,7.97-1.71,9.34,5.4.03.18.13.34.17.52,2.44,10.25,5.03,20.47,7.24,30.77,1.44,6.68,2.42,13.46,3.45,20.21.91,6.01,1.84,12.04,2.29,18.1.24,3.13-.19,6.51-2.7,8.91-6.13,5.86-12.62,11.24-20.29,15.08-4.64,2.32-9.17,4.89-13.62,7.56-3.73,2.23-5.33,7.55-3.79,11.6,1.35,3.57,4.68,5.34,9.49,4.15,5.77-1.43,11.38-3.5,17.11-5.3-1.13,1.75-2.69,3.45-3.43,5.45-1.05,2.84-1.74,5.88-2.14,8.89-.28,2.09,1.16,3.5,3.33,3.5,1.69,0,3.5-.13,5.06-.73,2.88-1.11,5.6-2.6,8.39-3.93,2.46-1.18,5.13-2.05,7.33-3.6,7.59-5.33,14.98-10.93,22.5-16.37,4.13-2.99,8.57-5.6,12.48-8.85,4.19-3.49,8.77-7.2,9.81-12.81,1.56-8.4,2.06-16.81-.28-25.4-2.07-7.59-3-15.54-3.93-23.4-1.06-9.03-1.68-18.13-2.25-27.21-.34-5.37-.35-10.77-.28-16.16.1-8.08-.23-16.24.84-24.21.79-5.85,3.47-11.46,5.5-17.1.19-.52,2.38-1.02,2.63-.71,1.92,2.4,4.13,4.79,5.24,7.58,3.75,9.37,6.93,18.97,10.62,28.37,3.46,8.82,7.26,17.52,10.98,26.24,3.93,9.2,7.97,18.36,11.94,27.55,2.09,4.84,3.98,9.78,6.28,14.52.58,1.19,2.39,1.79,3.63,2.65.57-1.44,1.21-2.85,1.68-4.32.15-.46-.09-1.08-.25-1.6-.67-2.17-1.67-4.29-2.02-6.5ZM77.31,218.09c-.23-.26-.47-.52-.7-.78.14-.62.41-1.25.37-1.85-.03-.45-.42-1.2-.73-1.24-.52-.07-1.18.2-1.63.54-.31.23-.41.79-.5,1.23-.35,1.73-.57,3.57-2.95,3.59-1.99.01-5.45-2.33-5.81-4.02-.11-.54.28-1.25.58-1.81.2-.37.79-.54.97-.91.5-1.06.88-2.18,1.31-3.28-1.01.27-2.01.54-3.22.86-.24-1.48-.51-3.19-.9-5.56,6.44,3.05,12.35,5.85,18.68,8.85-1.77,1.42-3.61,2.91-5.46,4.4ZM147.09,194.34c.28-2.33.64-3.92.58-5.5-.03-.75-.86-1.46-1.33-2.19-.41.77-.93,1.5-1.2,2.31-.21.63.07,1.43-.15,2.05-.41,1.12-.7,2.88-2.49,2.01-1.45-.7-2.82-1.79-1.81-3.89.49-1.03.83-2.19.97-3.32.07-.57-.45-1.22-.71-1.84-.44.57-.91,1.11-1.3,1.71-.17.27-.17.66-.24.98-4.21-.55-7.8-5.19-7.77-9.46,7.7,2.18,15.5,4.39,23.61,6.68-2.14,3.29-3.73,7.52-8.17,10.44ZM273.68,211.17c6.44-4.57,7.9-11.12,6.98-18.13-1.57-11.99-3.82-23.89-5.83-35.83-.27-1.6-.98-3.13-1.24-4.74-.83-5.17-.79-5.17,4.04-7.72,3.96,4.05,5.26,4.09,7.28,0,.98.34,1.97.85,3,.98.96.12,1.96-.16,3.21-.3.12.38.52,1.05.5,1.72-.15,4.61-.46,9.22-.57,13.84-.04,1.92.27,3.86.46,5.78.27,2.62.6,5.23.86,7.85.38,3.9.61,7.81,1.09,11.69.63,5.04,1.64,10.03,2.1,15.08.39,4.24.68,8.59.17,12.79-.6,4.87-5.11,6.5-8.84,8.58-3.72,2.08-7.42,4.19-11.18,6.2-1.26.67-2.64,1.28-4.03,1.51-1.96.33-3.5-.05-4.52-2.36-1.22-2.78-3.21-5.22-4.78-7.66,3.98-3.31,7.44-6.58,11.28-9.31ZM251.93,240.05c-.17-.23-.34-.46-.5-.7,1.02-1.06,2.19-2.02,3-3.22.55-.82.58-1.99.84-3.01-.98.32-2.25.35-2.88,1.01-1.92,2.01-3.48,4.37-5.43,6.35-.6.61-2.24.87-2.99.49-1.42-.73-2.79-1.87-3.7-3.18-.47-.67.12-2.07.22-3.14l-.06.08c.81-1.26,1.32-2.96,2.47-3.7,4.73-3.06,9.62-5.89,14.54-8.63.62-.35,2.28.03,2.67.61,2.09,3.08,3.93,6.32,6.29,10.21-4.96,2.34-9.71,4.58-14.46,6.82ZM271.82,250.67c-.07-3.08,4.48-4.98.89-7.83-2.25,3.32-4.23,6.57-6.58,9.53-.72.9-2.44,1-3.71,1.47-.33-1.12-1.17-2.38-.91-3.35,2.07-7.67,6.3-13.82,13.42-17.68.52-.28,1.89.13,2.29.65,2.45,3.21,4.73,6.55,7.42,10.33-4.63,2.49-8.53,4.57-12.82,6.87ZM367,154.68c-3.17-7.17-6.41-14.3-9.56-21.47-2.89-6.6-5.87-13.17-8.49-19.88-3.38-8.64-6.18-17.51-9.76-26.05-1.91-4.55-4.69-8.81-7.56-12.86-2.3-3.25-5.82-2.34-7.14,1.5-1.74,5.08-4.25,10.05-4.99,15.28-1.18,8.33-1.22,16.82-1.67,25.25-.14,2.55-.2,5.12-.05,7.66.53,9,.97,18.02,1.83,26.99.97,10.06,2.27,20.09,3.61,30.11.42,3.13,1.96,6.16,2.05,9.26.18,6.34-.09,12.72-.59,19.05-.13,1.72-1.54,3.48-2.69,4.96-4.13,5.32-9.53,9.2-15.05,12.95-6.39,4.34-12.65,8.87-18.96,13.31-.51.36-1.05.65-1.36.85-2.41-3.89-4.74-7.65-7.24-11.7,4.01-2.17,8.14-4.64,12.47-6.67,5.29-2.48,7.27-6.78,6.97-12.16-.35-6.35-1.15-12.67-1.79-19-.41-4.07-.82-8.14-1.32-12.2-.58-4.67-1.3-9.33-1.85-14-.19-1.59-.07-3.22-.06-4.83.01-1.72.1-3.44.09-5.17,0-.91-.32-1.85-.18-2.72.51-3.22,1.51-6.41-.29-9.6-.29-.51.03-1.35.05-1.6,2.46.59,4.79,1.05,7.04,1.75.67.21,1.33.97,1.65,1.64.33.71.07,1.68.38,2.4.27.61,1,1.46,1.48,1.44.59-.03,1.29-.78,1.66-1.39.3-.49.23-1.24.22-1.88-.05-2.04,1.1-2.25,2.68-1.77.61.19,1.17.6,1.78.68.57.08,1.51.05,1.7-.27.29-.52.37-1.5.06-1.96-.77-1.12-1.74-2.12-2.75-3.03-1.29-1.16-1.45-2.33-.72-3.89.6-1.3.96-2.73,1.23-4.15.11-.6-.08-1.6-.49-1.86-.43-.27-1.51-.1-1.91.28-1.7,1.64-2.66.51-3.78-.73-.89-.99-1.87-1.98-2.98-2.7-1.65-1.08-2.39-.08-2.42,1.5-.02,1.36.04,2.78.39,4.08.65,2.37-.02,3.84-2.39,4.6-.75.24-1.41.78-2.57,1.45-.75-5.4-1.46-10.49-2.19-15.71-2.74.65-2.86,1.73-2.5,3.76.9,5.05,1.32,10.19,1.35,15.46-2.33-2.71-4.78-5.2-5.08-8.87-.13-1.64,0-3.3-.23-4.92-.11-.77-.82-1.46-1.25-2.18-.65.51-1.44.92-1.91,1.57-.85,1.15-1.5,2.45-2.48,4.11-1.99-1.33-3.92-2.36-5.52-3.76-1.46-1.27-2.69-1.08-3.84.04-1.41,1.38.06,2.12.84,3.11,1.29,1.62,2.44,3.36,3.53,5.13,1.5,2.44.4,4.08-2.29,5.66-.65-2.05-1.23-3.88-1.81-5.72-1.57-5.04-3.18-10.06-4.68-15.12-.45-1.52-1.22-1.96-2.79-1.81-4.52.46-9.1.46-13.56,1.18-9.24,1.49-18.39,3.54-27.65,4.93-4.11.62-8.38.28-12.58.27-7.2-.03-14.41-.05-21.61-.27-2.99-.09-5.97-.61-8.94-1.08-3.28-.53-5.88.55-7.68,2.66.1,1.77.53,3.29.21,4.63-1.54,6.54-3.13,13.08-4.99,19.54-1.99,6.91-4.32,13.73-6.44,20.6-.43,1.38-.68,2.82-.88,4.25-.4,2.89-1.71,4.1-4.57,3.87-4.18-.33-8.27-.75-12.22-2.64-3.12-1.5-6.85-1.71-8.94-5.08-.22-.35-1.32-.16-2.29-.24-.13-.67-.32-1.44-.41-2.23-1.22-9.78-1.9-19.55-.61-29.39.22-1.67-.41-3.44-.24-5.12.18-1.78.96-3.5,1.3-5.27,1.35-6.95,2.61-13.92,3.97-20.87.3-1.51-.12-1.98-1.64-1.93-2.98.1-3.59,2.57-4.53,4.53-2.47,5.16-5.1,10.29-7.04,15.65-2.72,7.49-4.78,15.21-7.3,22.77-1.44,4.32-3.16,8.55-4.86,12.78-2.79,6.99-5.56,14-8.53,20.92-2.21,5.16-4.72,10.2-7.11,15.28-1.11,2.38-2.21,4.76-3.38,7.11-.4.81-.96,1.56-1.56,2.24-2.61,2.99-4.47,3.48-8.02,1.75-4.83-2.35-9.53-4.96-14.36-7.32-1.51-.74-1.72-1.72-1.35-3.08.8-2.98,1.99-5.92,2.36-8.95.59-4.84,2.78-8.53,5.94-12.19,1.99-2.3,2.56-5.86,3.66-8.89.73-1.99,1.27-4.05,1.9-6.08.36,0,.73,0,1.09,0,.39,1.84,1.04,3.67,1.1,5.53.07,2.25.1,4.63-2.88,5.63-.76.26-1.42,1.94-1.4,2.96,0,.51,1.61,1.1,2.57,1.44,1.02.36,2.13.45,3.51.73.04.93-.04,1.93.18,2.85.14.6.73,1.08,1.12,1.62.47-.37,1.23-.67,1.35-1.13.83-3.19,2.83-3.26,5.49-2.41,1.59.51,3.31.58,5.12.87,1.34-2.02-.57-3.15-1.66-3.86-2.57-1.68-2.44-3.19-.56-5.23,1.3-1.41,2.49-2.94,1.81-5.12-.44-1.41-1.22-1.69-2.47-1.01q-4.11,2.23-6.19-2.04c-.34-.69-.88-1.28-1.99-1.78-.1.87-.19,1.75-.31,2.84-1.55-1.53-1.76-4.78-5.37-3.37.4-1.88.68-3.36,1.04-4.83,2.05-8.47,4.11-16.93,6.17-25.39v-4.99c.26.01.52.02.79.03-.07,1.02-.14,2.05-.21,3.07.14.03.27.07.41.1.65-2.4,1.3-4.8,1.99-7.36,3.69,5.02,2.75,10.37-2.25,14.09-.31,3.15.26,3.58,3.21,2.51,1.36-.5,2.77-.87,4.33-1.36,1.34,2.22,2.59,4.43,3.99,6.53.39.58,1.2,1.08,1.88,1.17.31.04.75-1.02,1.15-1.57,2.37-3.19,1.35-6.89,1.79-10.4.4-3.24,2.31-6.28,3.44-9.45.36-1.01.36-2.16.52-3.24-1.02.03-2.38-.35-3,.17-3.48,2.89-5.9,1.18-8.03-1.66-1.59-2.12-3.8-.59-5.71-1.09-.26-5.62.29-10.88,3.26-15.79,3.95-6.52,3.23-14.04,4.04-21.21.09-.77-.63-2.21-1.2-2.34-.82-.18-2.24.27-2.73.94-5.98,8.21-11.84,16.51-17.72,24.78-4.66,6.55-9.4,13.05-16.22,17.58-3.24,2.16-6.86,2.76-10.75,2.06-1.27-.23-2.64.16-3.97.21-.89.04-1.92.28-2.66-.06-6.35-2.86-11.11-7.35-13.57-14.04.91,1.29,1.82,2.58,2.73,3.87.2-.11.39-.23.59-.34-1.32-2.38-2.65-4.76-3.95-7.15-1.35-2.48-2.63-5-4-7.48-2.53-4.59-5.17-9.12-7.63-13.75-1.87-3.53-3.67-7.12-5.25-10.79-4.67-10.84-7.13-22.16-7.22-34-.02-3.22-.68-6.44-1.05-9.67.3-.06.6-.13.9-.19.21,1.03.5,2.06.61,3.1.22,2.06.38,4.14.47,6.21.1,2.28,1.6,3.1,3.48,2.92,1.77-.17,3.55-.75,5.19-1.47.49-.21.91-1.69.65-2.28-1.87-4.24-3.85-8.43-6-12.53-.27-.51-1.82-.6-2.7-.45-.65.11-1.18.95-2.21,1.86v-11.75c.99,1.09,1.52,1.53,1.89,2.08,2.41,3.65,4.8,7.31,7.18,10.98.35.53.71,1.07.96,1.66,2.27,5.46,2.3,5.65,7.99,4.51,5.06-1.01,9.99-2.66,15.04-3.74,5.16-1.11,10.44-1.7,15.59-2.84,7.02-1.56,13.71-.13,20.55,1.22,4.14.82,8.54.77,12.79.53,3.27-.19,5.47-2.7,7.36-5.24.63-.85,1.19-1.75,1.92-2.81,2.46,3.6,4.71,6.92,7,10.21.34.49.83,1.06,1.36,1.22,5.38,1.61,10.86,2.15,16.46,1.63,2.63-.24,5.29-.18,7.91-.48,8.5-.96,16.97-2.1,25.47-3.03,11.24-1.24,22.55-1.99,33.72-3.65,7.32-1.09,14.13.75,20.95,2.22,6.78,1.47,13.21,4.55,19.95,6.26,7.03,1.78,14.22,3.08,21.41,4.03,7.3.96,14.69,1.18,22.03,1.81,7.16.61,14.31,1.32,21.46,2,6.32.61,12.69.91,18.92,2,3.69.65,7.27,2.34,10.7,3.98,4.01,1.93,6.25,5.48,7.99,9.55,2.77,6.45,6.19,12.61,8.9,19.08,4.79,11.42,9.21,22.99,13.87,34.47,3.63,8.95,7.53,17.79,11.06,26.78,2.82,7.18,5.34,14.48,7.86,21.78.75,2.18,1.05,4.52,1.13,6.89-2.13-4.91-4.24-9.83-6.41-14.72Z"/>
    <path d="M273.68,32.96c-.2,0-.4,0-.61-.01-.04.29-.07.57-.07.86,0,.66.64,1.33.99,2,.64-.34,1.56-.51,1.88-1.05.41-.68.79-1.38,1.17-2.08-1.11.18-2.23.28-3.36.28Z"/>
    <path d="M329.4,37.66c.61.61,1.57.85,2.84.64.41.09.78.12,1.13.11-1.33-.24-2.65-.49-3.98-.75Z"/>
    <path class="cls-1" d="M71.36,211.96c-1.35,1.35-2.52,2.43-3.57,3.63-.27.31-.3,1.03-.15,1.45.09.26.76.5,1.13.46,1.76-.19,3.39-3.34,2.59-5.54Z"/>
    <path d="M223.23,112.87c1.69-1.77,3.25-3.42,4.84-5.05,1.68-1.72,1.73-3.42.23-5.31-1.69-2.13-3.26-4.34-4.81-6.44-3,1.33-4.1,3.4-4.41,6.45-.25,2.46-1.45,4.86-2.5,7.16-.32.71-1.58,1.44-2.34,1.37-.56-.05-1.3-1.34-1.44-2.16-.59-3.43-.97-6.9-1.46-10.55-3.11,1.07-5.74,1.99-8.39,2.86-.59.19-1.33.44-1.84.25-.8-.31-1.47-.98-2.19-1.49.54-.62.96-1.43,1.63-1.82,2.23-1.31,4.54-2.46,6.83-3.68-1.95-3.4-3.66-6.27-5.23-9.2-.28-.52-.28-1.67.05-1.92.54-.4,1.53-.54,2.19-.34,1.3.4,2.6.95,3.72,1.71,2.55,1.75,4.31.61,6.2-1.17.99-.94,2.4-1.44,3.62-2.14.53,1.74,1.79,3.63,1.45,5.18-.7,3.24-.36,5.71,2.7,7.69,1.77-1.89,3.28-1.15,4.9.51,1.45,1.5,3.13,2.78,4.78,4.06,1.51,1.17,2.68.96,3.19-1.07.09-.35.2-.72.39-1.02.63-1.02,1.31-2.02,1.96-3.03.72,1.28,1.46,2.55,2.14,3.85.1.19-.07.53-.11.8q-1,6.71,5.05,9.99c.8.44,1.78.67,2.4,1.28.71.69,1.73,1.93,1.51,2.52-.53,1.42-1.79,2.15-3.56,1.49-1.5-.56-3.08-.96-4.67-1.21-1.68-.27-2.59.55-2.45,2.35.05.64.24,1.36.02,1.89-.28.67-.82,1.47-1.43,1.69-.38.13-1.12-.7-1.67-1.14-.11-.09-.08-.34-.14-.52-1.4-4.35-3.17-5.2-7.22-2.77-1.95,1.17-2.88.94-3.94-1.08Z"/>
    <path d="M34.57,99.49c-.53.81-.76,1.33-1.13,1.69-.36.34-.87.52-1.31.78-.29-.52-.9-1.1-.82-1.55.36-2.08-.16-4.44,2.67-5.63,1.15-.48,1.84-2.37,2.44-3.76.71-1.66.96-3.53,1.65-5.2,1.07-2.57,3.42-3.26,5.81-1.87,1.18.69,2.4,1.34,3.49,2.15,2.1,1.56,3.94,2.49,6.91,1.45,1.89-.66,4.6.44,6.75,1.24,1.71.64,3.11,1.74,5.01.48.54-.36,1.52-.05,2.04-.05-1.47,6.97-2.8,13.79-4.42,20.54-.36,1.49-1.58,2.86-2.67,4.05-1.26,1.38-2.82.93-4.23.02-6.5-4.18-13-8.38-19.49-12.57-.82-.53-1.64-1.07-2.7-1.76ZM39.67,98.84c1.51,1.18,3.23,2.79,5.19,4,3.91,2.42,7.93,4.68,11.97,6.88,1.33.72,2.55.28,2.92-1.35.63-2.72,1.17-5.46,1.67-7.84-7.51-.58-14.8-1.15-21.76-1.69ZM62.48,95.27c-1.69-1.37-2.76-2.47-4.03-3.23-1.79-1.08-3.84-1.78-5.31.39-1.43,2.11-2.69,1.56-4.24.28-2.15-1.77-4.38-3.45-7.01-5.51-.58,1.76-1.24,2.99-1.33,4.26-.06.84.47,2.28,1.1,2.52,6.47,2.53,13.14,3.05,20.82,1.29Z"/>
    <path d="M186.65,99.92c-1.31-.77-2.9-1.29-3.88-2.37-1.78-1.95-3.25-1.44-4.89-.04-.76.65-1.43,1.45-2.29,1.92-.77.42-2.26.92-2.53.61-.75-.86-1.05-2.12-1.47-3.25-.07-.19.19-.5.27-.76,1.26-4.36.86-4.85-3.3-6.55-1.4-.57-3.28-2.1-3.34-3.27-.08-1.71,1.73-2.49,3.76-2.6,4.38-.24,5.52-1.71,5.96-6.83.05-.63-.17-1.33.03-1.9.29-.83.74-2.07,1.33-2.2.67-.15,1.83.55,2.3,1.21,1.3,1.85,2.5,3.81,3.46,5.86,1.04,2.22,2.31,2.35,4.34,1.31,1.22-.63,2.75-.67,4.14-.98-.32,1.6-.12,3.65-1.05,4.72-2.3,2.65-2.12,5.21-.86,8.05.33.75.67,1.49,1.01,2.24,1.66,3.6,1.32,4.15-2.99,4.82Z"/>
    <path d="M37.31,44.73c4.21-.14,8.05.51,11.48,3.03,2.6,1.91,2.9,5.6.59,7.75-2.5,2.32-4.63,5.03-7.01,7.48-2.59,2.66-5.22,5.28-7.97,7.78-.43.39-1.55.03-2.35.02.25-.69.33-1.53.77-2.06,2.17-2.56,4.47-5.01,6.66-7.55.49-.57.74-1.36,1.09-2.03-6.14-.27-12.02-.48-17.89-.82-2.37-.14-4.73-.48-7.06-.93-.47-.09-1.15-1.12-1.07-1.62.13-.87.56-2.03,1.24-2.41,3.26-1.82,6.64-3.43,9.98-5.09,1.54-.76,3.06-1.6,4.68-2.15,3.08-1.06,3.95-2.19,3.99-5.39,0-.57.48-1.14.74-1.7.62.42,1.65.73,1.79,1.27.33,1.28.24,2.68.34,4.43ZM42.07,47.84c-.68,2.89-1.19,5.03-1.76,7.45,2.79-.59,5.9.05,7.58-3.69-1.9-1.22-3.76-2.42-5.82-3.76ZM34.8,55.22c3.07-2.15,3.83-3.92,2.96-7.15-1.33.19-2.69.38-3.72.53.28,2.39.51,4.41.76,6.62ZM30.85,49.47c-3.51,1.16-4.5,2.46-3.47,4.68.31.67,1.28,1.04,1.94,1.54.44-.6,1.14-1.14,1.25-1.8.25-1.39.2-2.84.28-4.43Z"/>
    <path d="M216.51,58.27c-1.06-1.85-2.02-3.67-3.1-5.41-.99-1.58-1.17-2.92.33-4.37,1.57-1.51,2.74-.65,3.69.5,1.56,1.87,2.78,1.41,4.23-.1,1-1.05,2.18-1.96,3.39-2.76,1.83-1.2,3.63-.55,3.81,1.63.18,2.13-.06,4.38-.58,6.46-.41,1.62-.06,2.6,1.14,3.53,1.73,1.35,3.5,2.65,5.12,4.12.69.62,1.34,1.56,1.5,2.44.43,2.43-.61,3.16-2.94,2.27-.17-.06-.34-.13-.51-.21-5.14-2.2-4.12-1.01-6.17,2.89-.46.87-.98,1.7-1.47,2.55-.95-.63-1.91-1.24-2.86-1.89-.14-.09-.2-.3-.28-.46-.7-1.29-1.11-3.19-2.18-3.71-1.05-.51-2.78.41-4.22.63-1.34.21-2.73.57-4.04.41-1.99-.24-2.4-1.58-.97-2.99,1.82-1.79,3.78-3.43,6.11-5.53Z"/>
    <path d="M142.09,99.94c.38.28,1.26.74,1.89,1.42,3.18,3.46,6.67,5.48,11.58,3.54.9-.36,3.05.27,3.33.96.59,1.46-.13,2.82-1.97,3.52-4.19,1.6-4.8,3.53-2.65,7.47.57,1.04,1.52,2.02,1.65,3.1.15,1.32-.17,2.82-.75,4.03-.15.31-2.37.2-3.01-.4-2.24-2.05-3.37-1.52-4.74.99-.68,1.24-.76,3.96-3.31,3.2-2.41-.71-1.13-2.95-1.29-4.5-.39-3.81-1.6-5.66-6.16-7.04-.74-.22-1.31-1.01-1.96-1.53.55-.62,1-1.39,1.68-1.81,1.36-.85,2.96-1.37,4.21-2.34.4-.31.24-1.73-.07-2.48-.55-1.31-1.51-2.44-2.11-3.73-1.12-2.44.33-4.43,3.67-4.41Z"/>
    <path d="M72.09,59.97c.9,1.32,1.87,2.6,2.69,3.97.45.75.89,1.64.9,2.47,0,.54-.68,1.29-1.23,1.54-.31.14-1.19-.42-1.47-.88-1.38-2.25-2.75-4.52-3.89-6.89-.44-.91-.28-2.12-.46-3.78-3.55-1.62-3.99-5.78-4.8-9.64-.09-.44,1.49-1.71,2.36-1.78,3.92-.33,7.63.8,10.96,2.74,4.64,2.7,9.28,5.49,13.59,8.67,2.36,1.75,4.13,4.34,5.99,6.69.43.55.42,2.28.1,2.44-1.29.64-2.79,1.25-4.19,1.2-7.4-.27-13.81-3.47-19.92-7.43l-.62.68ZM80.54,60.15c3.65,3.32,7.78,3.05,12.14,2.56-1.77-1.91-3.58-3.85-5.8-4.98-.86-.44-2.66.98-4.03,1.54-.67.27-1.35.51-2.3.87ZM71.87,48.52c-1.08-.13-2.05-.26-3.02-.34-.24-.02-.5.13-.74.19-.3,3.47.66,5.1,3.76,6.22v-6.07ZM79.11,52.3c-1.34-.65-2.57-1.25-3.81-1.85-.25.22-.51.44-.76.66.83,1.65,1.66,3.3,2.61,5.18.79-1.62,1.29-2.62,1.96-3.99Z"/>
    <path d="M117.6,106.35c-.5-.29-.84-.42-1.11-.64-4.68-3.84-6.36-3.56-9.71,1.53-.33.5-1.03.76-1.56,1.13-.34-.59-.91-1.15-.99-1.77-.23-1.79-.26-3.61-.39-5.72-.82-.23-1.87-.32-2.66-.82-.98-.61-2.34-1.48-2.46-2.38-.18-1.43.27-3.13,2.3-3.45,2.32-.36,2.89-1.87,2.61-3.98-.25-1.9-.5-3.81-.56-5.72-.04-1.07.31-2.16.49-3.24.29-.1.57-.2.86-.3.98,1.13,1.98,2.24,2.92,3.4.74.92,1.39,1.92,2.1,2.87,1.14,1.55,2.49,1.9,4.31,1.06,1.17-.54,2.51-.72,3.77-1.06.19.21.37.41.56.62-.42.9-.67,1.95-1.31,2.66-1.85,2.06-2.09,3.87-.42,6.33,1.85,2.72,3.7,5.75,1.26,9.48Z"/>
    <path d="M305.7,102.76c-.67,1.92-1.33,3.96-2.1,5.96-.2.51-.94,1.33-1.06,1.27-1.17-.59-2.76-1.08-3.26-2.08-1.05-2.13-1.52-4.55-2.33-7.19-2.14.22-4.12.28-6.05.67-2.22.44-4.12.4-5.65-2.43,3.1-1.85,6.24-3.72,9.58-5.71-.72-1.73-1.54-3.35-2.03-5.06-.19-.67.15-1.71.62-2.26.22-.26,1.45.06,2.01.44.73.49,1.25,1.3,1.87,1.96,1.63,1.73,3.17,3.35,5.46.63.55-.66,2.03-.71,3.09-.74,1.7-.05,2.04.9,1.27,2.31-.22.4-.5.76-.78,1.12-1.47,1.81-1.35,3.28.6,4.8,2.22,1.72,4.25,3.68,6.27,5.64.41.4.38,1.25.55,1.89-.57.14-1.18.48-1.71.38-1.84-.37-3.65-.89-6.37-1.58Z"/>
    <path d="M177.65,63.12c.15-.63.2-.8.23-.98.61-4.39-.68-6-4.99-6.61-.99-.14-1.89-.88-2.84-1.35.81-.93,1.47-2.41,2.46-2.68,3.06-.85,4.52-2.45,3.96-5.68-.09-.53-.13-1.17.09-1.62.45-.93,1.1-1.76,1.67-2.63.7.62,1.4,1.24,2.09,1.87.13.12.2.31.31.45,4.78,6.29,2.9,5.47,9.58,2.63.97-.41,2.26-.04,3.41-.03-.49.91-.89,1.88-1.49,2.71-1.18,1.62-2.57,3.08-3.66,4.76-.3.46-.04,1.55.32,2.14,1.53,2.49,3.25,4.85,4.76,7.35.38.62.24,1.56.33,2.35-.72-.16-1.56-.15-2.14-.52-2.14-1.38-4.22-2.87-6.28-4.38-1.53-1.12-2.64-.88-3.48.82-.36.73-.69,1.56-1.26,2.09-.52.48-1.45.98-2.02.82-.54-.16-.84-1.15-1.07-1.51Z"/>
    <path d="M302.2,69.02c-.49,1.7-.83,3.12-1.31,4.49-.27.77-.75,2.02-1.18,2.05-.87.05-1.9-.45-2.62-1.02-.59-.47-1.19-1.38-1.18-2.08.06-2.87-1.56-2.61-3.61-2.43-1.85.16-3.75-.25-5.63-.41-.1-.34-.19-.68-.29-1.02.84-1.34,1.53-2.82,2.58-3.97,1.18-1.3,1.18-2.25.37-3.82-1.39-2.7-2.34-5.63-3.47-8.47.28-.24.56-.49.83-.73,2.28,1.78,4.56,3.56,6.99,5.47,1.57-1.68,2.89-3.18,4.31-4.58.52-.51,1.4-1.19,1.9-1.05.57.17,1.25,1.16,1.27,1.81.05,1.66-.06,3.38-.44,4.99-.47,1.98-.57,3.48,1.76,4.38,1.23.48,2.21,1.58,3.34,2.35,1.14.78,1.75,1.49,1.19,3.14-.64,1.86-1.7,1.14-2.8,1.01-.62-.07-1.25-.08-2.01-.12Z"/>
    <path d="M142.1,69.15c-.04-4.3-.12-4.38-4.22-4.73-.82-.07-1.69,0-2.43-.29-.67-.26-1.44-.81-1.67-1.42-.15-.4.46-1.31.96-1.68,1.68-1.24,3.59-2.2,5.16-3.55.62-.53.94-1.88.79-2.74-.35-1.93-1.21-3.76-1.6-5.68-.16-.79.33-1.71.52-2.57.86.33,1.98.42,2.52,1.03,1.33,1.48,2.47,3.15,3.55,4.84,1.23,1.92,2.47,1.93,3.87.28.76-.9,1.35-1.97,2.2-2.77.58-.55,1.46-.79,2.21-1.16.3.8.91,1.64.83,2.39-.1.92-.68,1.85-1.23,2.66-3.35,4.93-3.31,4.97.45,9.53.7.84.86,2.13,1.27,3.22-1.18.15-2.36.39-3.54.43-.71.02-1.43-.26-2.13-.44-1.81-.47-3,.07-3.47,1.98-.21.88-.4,1.84-.9,2.56-.49.71-1.36,1.15-2.06,1.71-.39-.81-.86-1.6-1.15-2.44-.14-.39.06-.9.08-1.15Z"/>
    <path d="M109.57,57.46c1.86-1.91,3.06-3.6,4.67-4.68,1.99-1.34,1.77-2.53.78-4.31-1.1-1.97-1.41-3.97.4-5.95,1.45-1.6,2.38-1.78,3.61-.06.48.67.88,1.39,1.3,2.09.8,1.34,1.69,1.64,3.13.69.78-.51,1.95-.42,2.94-.6.2,1.16.92,2.56.51,3.45-1.37,3.02-.62,5.39,1.35,7.75.68.81,1.17,1.87,1.47,2.9.52,1.79-.67,3.62-2.16,3.16-3.1-.95-3.1,1.28-3.91,3.09-.46,1.04-1.62,1.78-2.46,2.65-.68-1-2.02-2.07-1.92-2.99.48-4.42.15-5.05-4.19-5.56-.9-.11-1.85-.07-2.71-.32-.91-.27-1.75-.8-2.81-1.31Z"/>
    <path d="M148.26,142.05s.64-.14.81.07c.69.84,1.21,1.82,1.86,2.7,1.4,1.91,3.06,2.66,5.45,1.6,1.02-.45,2.34-.21,3.52-.29-.33,1.07-.48,2.25-1.03,3.19-2.26,3.78-2.31,4.98.77,8.16,1.56,1.62,1.15,3.1-.02,4.26-.4.4-2.12-.36-3.15-.8-1.55-.66-2.98-1.64-4.57-2.14-.37-.12-1.41,1.07-1.73,1.82-.41.97-.28,2.16-.6,3.18-.16.49-.82.82-1.25,1.23-.4-.52-1.03-1.01-1.14-1.58-.2-1.06-.09-2.17-.1-3.26,0-.98,0-1.96,0-2.85-1.97-.5-3.79-.72-5.38-1.46-.87-.4-1.56-1.6-1.86-2.59-.12-.41.88-1.38,1.56-1.77,4.69-2.7,4.71-2.67,3.64-7.96-.05-.27-.15-.55-.12-.81.17-1.17.37-2.33.56-3.49.84.85,1.69,1.69,2.78,2.79Z"/>
    <path d="M262.31,85.74c1.21-1.88,2.02-3.38,3.09-4.67.46-.55,1.46-.66,2.21-.96.31.78.93,1.58.86,2.32-.15,1.6-.43,3.28-1.08,4.73-1.06,2.36.03,3.58,1.9,4.6,1.28.7,2.63,1.29,3.84,2.09.41.27.49,1.04.72,1.58-.55.22-1.25.78-1.63.61-3.57-1.57-4.95.42-5.87,3.38-.21.68-.57,1.4-1.06,1.9-.71.71-1.61,1.22-2.43,1.82-.45-.97-1.23-1.92-1.3-2.93-.23-3.03-1.62-4.3-4.56-3.72-.97.19-1.94.73-2.88.68-.88-.05-1.72-.68-2.58-1.05.34-.76.69-1.52,1.04-2.28.03-.07.14-.11.21-.17q4.05-3.22,2.46-8.16c-.14-.43-.5-.92-.4-1.29.39-1.5.92-2.95,1.4-4.43.92.81,1.88,1.58,2.75,2.44,1.02,1,1.98,2.08,3.31,3.51Z"/>
    <path d="M58.68,78.9c.5-2.87,3.16-5.51.24-8.31.76-.9,1.36-1.97,2.27-2.61.72-.51,1.9-.79,2.71-.58.48.13.98,1.48.88,2.2-.49,3.68-1.13,7.35-1.81,11-.18.97-.55,1.94-1.03,2.8-2.19,3.93-4.51,4.13-6.46.21-1.47-2.96-3.17-3.29-5.8-2.03-.57.27-1.2.45-1.81.63-3.62,1.07-6.48-.72-6.26-4.48.27-4.61,1.17-9.19,2-13.75.12-.68,1.36-1.15,2.08-1.71.58.92,1.69,1.89,1.63,2.77-.18,2.53-.85,5.02-1.29,7.53-.16.89-.27,1.81-.27,2.71.02,2.76.7,3.27,3.3,2.56.79-.22,1.59-.42,2.36-.7,2.69-.97,5.2-1.26,7.23,1.74Z"/>
    <path d="M251.49,56.99c-2.08-2.52-3.97-4.81-5.86-7.1.24-.33.48-.65.71-.98,2.49,1.22,4.98,2.45,7.78,3.83.84-1.33,1.62-2.75,2.59-4.03.43-.58,1.43-1.38,1.8-1.22.69.3,1.42,1.15,1.58,1.9.31,1.41.39,2.91.28,4.35-.23,2.86,1.42,4.25,3.66,5.4.8.41,1.39,1.23,2.08,1.86-.85.33-1.68.82-2.56.97-4.2.74-4.15.71-4.6,5.05-.09.85-.73,1.65-1.11,2.47-.68-.72-1.69-1.32-2-2.18-1.84-5.11-1.78-5.14-6.79-2.92-.83.37-1.6,1-2.46,1.15-.75.13-1.6-.25-2.4-.4.24-.68.28-1.56.75-2.02,2.05-2.04,4.22-3.96,6.57-6.14Z"/>
    <path d="M308.78,174.39c-.55-1.03-1.11-1.66-1.22-2.35-.41-2.58-1.83-3.59-4.38-3.22-.72.11-1.54.26-2.17.02-1.09-.41-2.48-.9-2.95-1.78-.29-.53.66-2.3,1.47-2.76,2.27-1.28,1.94-2.76,1.21-4.77-.5-1.38-.99-3.71-.28-4.4,1.67-1.64,2.81.63,3.98,1.55,3.07,2.41,3.35,2.47,5.5-.72,1.14-1.7,2.04-1.08,2.47.24.4,1.21.48,2.69.18,3.93-.8,3.33-.75,6.12,2.96,7.71.54.23.84,1.26,1.02,1.97.04.16-1.13.94-1.39.8-2.97-1.61-3.95.68-5.2,2.5-.2.29-.48.52-1.19,1.28Z"/>
    <path d="M307.26,202.58c-.39-4.84-3.02-6.65-6.87-7.29-.63-.11-1.06-1.49-1.66-2.41,1.4-.9,2.53-1.62,3.97-2.55-.99-1.84-2.03-3.58-2.87-5.42-.28-.63-.04-1.49-.04-2.24.71.16,1.63.09,2.1.52,4.7,4.22,4.66,4.22,9.45-.22.45-.42,1.25-.47,1.88-.7.24.72.52,1.42.7,2.15.05.22-.14.52-.25.77-1.84,3.97-2.22,7.59,2.09,10.39.54.35.52,1.55.76,2.36-1.1.24-2.19.7-3.29.69-2.6-.01-2.68-.02-3.9,2.01-.3.5-.88.84-2.07,1.95Z"/>
    <path d="M50.81,41.98c-1.37.35-2.57.89-3.76.88-1.06,0-2.12-.62-3.18-.97.53-.93.92-1.97,1.62-2.75.58-.65,1.47-1.09,2.29-1.46,2.17-.96,3.12-2.36,2.69-4.89-.35-2.07,1.1-3.02,2.76-1.87,1.7,1.17,2.53.34,3.75-.64.64-.52,1.79-.43,2.7-.61.07.98.52,2.17.13,2.91-1.77,3.28-1.74,3.75,1.4,6,.52.37,1.16.67,1.48,1.16.31.47.56,1.36.31,1.71-.33.48-1.13.76-1.76.85-.49.08-1.03-.32-1.56-.4-3.55-.58-4.71.46-4.99,4.09-.05.65-.91,1.24-1.4,1.86-.6-.54-1.49-.97-1.73-1.64-.44-1.24-.5-2.62-.77-4.24Z"/>
    <path d="M140.3,86.59c.39,2.16.86,4.01.98,5.88.05.75-.53,1.71-1.12,2.26-.21.19-1.39-.46-1.97-.92-1.06-.83-2-1.81-3.46-3.16-.67,1.03-1.2,1.87-1.69,2.63-2.16-.32-2.46-1.72-1.78-3.01,1.25-2.37-.1-3.41-1.71-4.61-.64-.48-1-1.32-1.49-2,.74-.46,1.42-1.16,2.22-1.33,1.94-.41,3.45-.94,3.54-3.36.02-.56,1.13-1.37,1.85-1.51.41-.08,1.33.86,1.52,1.49.55,1.79,1.03,3.25,3.47,2.95.94-.12,1.99.66,2.99,1.03-.64,1.06-1.24,2.15-1.97,3.15-.21.29-.81.31-1.38.5Z"/>
    <path d="M92.87,40.87c-1.92-.78-3.85-1.56-5.77-2.33,1.06-1.59,2.14-3.17,3.16-4.78.81-1.28,1.48-2.65,2.35-3.89.53-.75,1.32-1.32,1.99-1.97.62.68,1.43,1.26,1.84,2.05.89,1.75,1.5,3.63,2.35,5.39.91,1.88-.08,4.31-2.15,4.72-1.15.23-2.35.18-3.53.26-.08.18-.16.37-.24.55Z"/>
    <path d="M86.51,131.52c2.18,1.33.37,3.37.9,4.99-.54,1.49-1.16,2.97-1.62,4.49-.52,1.71-.9,3.46-1.83,5.08.82-3.96,1.68-7.92,2.45-11.9.17-.86.07-1.78.1-2.67Z"/>
    <path d="M96.74,50.88c-1.21,1.09-1.93,1.74-2.66,2.4-.51-.92-1.19-1.81-1.45-2.8-.08-.33,1.02-1.4,1.42-1.32.78.15,1.44.87,2.68,1.72Z"/>
    <path d="M78.04,45.3c-.79-1.03-1.5-1.65-1.39-1.86.61-1.22,1.41-2.35,2.15-3.51.41.48,1.27,1.11,1.16,1.43-.38,1.18-1.07,2.27-1.92,3.94Z"/>
    <path d="M27.29,43.43c1.11-1.4,1.91-2.4,2.71-3.4.45.75,1.36,1.56,1.27,2.24-.22,1.72-1.5,1.99-3.98,1.16Z"/>
    <path d="M23.1,47.51c-1.06.89-1.65,1.38-2.24,1.88-.53-.72-1.4-1.41-1.47-2.17-.05-.56.95-1.22,1.49-1.83.62.59,1.24,1.18,2.22,2.11Z"/>
    <path d="M85.89,47.82c.86-.73,1.45-1.23,2.04-1.72.48.63,1.47,1.45,1.32,1.84-.29.78-1.22,1.31-1.88,1.95-.41-.58-.82-1.15-1.48-2.06Z"/>
    <path d="M24.65,46.3c-.71-1.18-1.38-1.83-1.41-2.51-.02-.56.72-1.15,1.13-1.73.66.55,1.68,1.01,1.86,1.7.14.52-.78,1.33-1.58,2.55Z"/>
    <path d="M83.84,42.31c.85,1.27,1.62,1.91,1.64,2.59.02.59-.78,1.21-1.22,1.82-.52-.73-1.2-1.39-1.5-2.2-.14-.38.47-1.03,1.07-2.21Z"/>
    <path d="M240.42,234.74c1.52-.76,3.12-1.39,4.52-2.31,1.49-.98,2.76-2.3,4.21-3.36.57-.42,1.35-.57,2.03-.84.24.79.76,1.63.65,2.37-.1.7-.73,1.46-1.34,1.92-1.95,1.47-3.94,2.91-6.02,4.18-2.41,1.48-3.36.93-3.99-2.05,0,0-.06.08-.06.08Z"/>
    <path d="M271.35,242.8c-1.07,1.56-1.94,3.03-3.01,4.34-.98,1.19-2.09,2.33-3.32,3.25-.55.41-1.55.21-2.34.29.07-.82-.14-1.86.28-2.41,1.05-1.36,2.45-2.45,3.61-3.74.66-.73,1.14-1.64,1.68-2.48.43-.67.83-1.36,1.24-2.03.57.84,1.13,1.68,1.87,2.77Z"/>
    <path d="M71.36,211.96c.8,2.21-.83,5.35-2.59,5.54-.38.04-1.04-.19-1.13-.46-.15-.43-.13-1.14.15-1.45,1.05-1.2,2.23-2.29,3.57-3.63Z"/>
    <path d="M274.59,176.32c1.86-1.91,3.06-3.6,4.67-4.68,1.99-1.34,1.77-2.53.78-4.31-1.1-1.97-1.41-3.97.4-5.95,1.45-1.6,2.38-1.78,3.61-.06.48.67.88,1.39,1.3,2.09.8,1.34,1.69,1.64,3.13.69.78-.51,1.95-.42,2.94-.6.2,1.16.92,2.56.51,3.45-1.37,3.02-.62,5.39,1.35,7.75.68.81,1.17,1.87,1.47,2.9.52,1.79-.67,3.62-2.16,3.16-3.1-.95-3.1,1.28-3.91,3.09-.46,1.04-1.62,1.78-2.46,2.65-.68-1-2.02-2.07-1.92-2.99.48-4.42.15-5.05-4.19-5.56-.9-.11-1.85-.07-2.71-.32-.91-.27-1.75-.8-2.81-1.31Z"/>
  </g>
  <path d="M168.45,77.97c1.69-1.77,3.25-3.42,4.84-5.05,1.68-1.72,1.73-3.42.23-5.31-1.69-2.13-3.26-4.34-4.81-6.44-3,1.33-4.1,3.4-4.41,6.45-.25,2.46-1.45,4.86-2.5,7.16-.32.71-1.58,1.44-2.34,1.37-.56-.05-1.3-1.34-1.44-2.16-.59-3.43-.97-6.9-1.46-10.55-3.11,1.07-5.74,1.99-8.39,2.86-.59.19-1.33.44-1.84.25-.8-.31-1.47-.98-2.19-1.49.54-.62.96-1.43,1.63-1.82,2.23-1.31,4.54-2.46,6.83-3.68-1.95-3.4-3.66-6.27-5.23-9.2-.28-.52-.28-1.67.05-1.92.54-.4,1.53-.54,2.19-.34,1.3.4,2.6.95,3.72,1.71,2.55,1.75,4.31.61,6.2-1.17.99-.94,2.4-1.44,3.62-2.14.53,1.74,1.79,3.63,1.45,5.18-.7,3.24-.36,5.71,2.7,7.69,1.77-1.89,3.28-1.15,4.9.51,1.45,1.5,3.13,2.78,4.78,4.06,1.64,1.27,2.89.92,3.3-1.65.71-1.18,1.48-2.32,2.23-3.47.72,1.28,1.46,2.55,2.14,3.85.1.19-.07.53-.11.8q-1,6.71,5.05,9.99c.8.44,1.78.67,2.4,1.28.71.69,1.73,1.93,1.51,2.52-.53,1.42-1.79,2.15-3.56,1.49-1.5-.56-3.08-.96-4.67-1.21-1.68-.27-2.59.55-2.45,2.35.05.64.24,1.36.02,1.89-.28.67-.82,1.47-1.43,1.69-.38.13-1.12-.7-1.67-1.14-.11-.09-.08-.34-.14-.52-1.4-4.35-3.17-5.2-7.22-2.77-1.95,1.17-2.88.94-3.94-1.08Z"/>
</svg>