<?xml version="1.0" encoding="UTF-8"?>
<svg id="Layer_1" xmlns="http://www.w3.org/2000/svg" viewBox="0 0 397.03 258.47">
  <defs>
    <style>
      .cls-1 {
        fill: #fff;
      }
    </style>
  </defs>
  <path class="cls-1" d="M392.92,21.98c.2.55.39,1.1.6,1.64.11.29.24.59.36.89.11.18.21.35.32.53-.66-2.06-1.08-2.9-1.28-3.06Z"/>
  <path class="cls-1" d="M338.52,23.75c.56,1.58,1.22,2.53,1.72,3-.07-.21-.14-.42-.22-.63-.05-.1-.11-.2-.17-.3-.11-.19-.3-.44-.49-.7,0,0-.01-.02-.02-.02-.33-.45-.7-.96-.84-1.35Z"/>
  <path class="cls-1" d="M349,29.37c-.6-.02-1.2-.07-1.79-.11,4.95,1.09,3.89.18,1.79.11Z"/>
  <path class="cls-1" d="M208.07,168.04c-.04.53-.11,1.79-.21,4.14.01-.1.03-.2.04-.3.04-.61.09-1.22.11-1.83.03-.67.05-1.34.06-2.01Z"/>
  <path class="cls-1" d="M390.52,245.17c1.08-.54,2.16-1.01,3.25-1.43-.13.02-.25.03-.39.05-.95.46-1.91.92-2.86,1.38Z"/>
  <path d="M273.15,238.78c1.44-1.2,2.84-2.45,4.59-3.96,0,1.18.14,1.86-.02,2.46-1.61,6.15-.23,11.58,3.19,16.9,1.48,2.3,3.08,3.73,4.77,4.29,1.36-.28,2.73-.53,4.08-.88.52-.13,1.04-.27,1.56-.43.57-.43,1.15-.95,1.74-1.57,5.05-5.31,9.83-10.75,14.12-16.79,9.28-13.09,17.17-26.74,21.28-42.3,2.5-9.44,4.23-19,4.46-28.89.33-14.12,1.4-28.23,2.37-42.32.49-7.09,1.32-14.16,2.25-21.2.44-3.37,1.47-6.67,2.24-10,1.63,4.11,2.72,8.22,3.95,12.28,3.43,11.42,4.49,23.49,9.69,34.44,1.49,3.15,1.94,6.82,3.58,9.86,1.87,3.47,3.75,6.72,3.13,10.85-.07.49.55,1.1.9,1.63.5.76,1.22,1.42,1.54,2.24,1.19,3.04,2.16,6.16,3.38,9.18,2.93,7.28,5.38,14.83,9.12,21.67,3.24,5.93,5.52,12.14,8,18.32,2.37,5.91,4.71,11.78,10.08,15.84,1.68,1.27,2.92,1.23,3.48-.58.51-1.65.45-3.57.26-5.33h0c-1.22-11.29-6.45-21.33-10.03-31.88-1.8-5.3-4.29-10.39-5.82-15.76-3.53-12.42-6.57-24.99-10.01-37.44-1.88-6.83-4.11-13.57-6.3-20.31-1.41-4.36-2.95-8.68-4.55-12.98-2.01-5.37-4.47-10.6-6.16-16.07-2.32-7.5-4.05-15.18-6.14-22.75-1.94-7.01-4.02-13.98-6.07-20.96-.33-1.14-.61-2.37-1.26-3.32-1.73-2.53-3.47-5.1-5.57-7.31-1.31-1.38-3.17-2.44-4.98-3.08-3.21-1.13-6.58-1.82-9.88-2.72-1.94-.52-3.83-1.31-5.8-1.59-7.03-1.01-14.09-1.9-21.14-2.74-11.2-1.34-22.28-3.56-33.7-3.26-12.64.33-25.3-.18-37.96-.36-5.26-.07-10.52-.08-15.77-.35-13.36-.7-26.7-1.7-40.06-2.24-4.99-.2-10.03.51-15.04.84-9.74.65-19.38-.6-29.03-1.61-2.48-.26-5.04-.31-7.52-.01-5.37.64-6.21.2-8.8-4.65-2.09-3.9-4.46-7.66-6.73-11.46-1.55-2.59-4.3-2.7-6.65-2.34-1.37.21-2.88,1.91-3.64,3.31-2.69,4.99-5.01,10.18-7.62,15.21-1.89,3.64-2.25,3.67-6.31,3.11-4.56-.63-9.13-1.69-13.68-1.65-8.32.07-16.63.73-24.94,1.31-6.77.47-13.31.73-18.53-4.89-1.78-1.92-4.54-2.93-6.36-4.82-2.58-2.69-4.63-5.88-7.07-8.72-.04-.05-.1-.09-.15-.14-.91-.12-1.99-.24-2.95-.41C.34,3.09-.03,3.71,0,4.34c1.19,23.23,1.96,34.17.4,14.03-.42-5.44,1.15,10.59,3,15.67,2.58,7.05,5.12,14.13,7.36,21.3,2.04,6.53,3.68,13.18,5.44,19.8.2.75.38,1.87,0,2.35-2.21,2.71-4.62,5.24-6.9,7.9-.59.68-1.34,1.65-1.24,2.38.11.77,1.15,1.4,1.77,2.07,2.62-3.59,4.93-6.75,7.4-10.14,1.06,2.26,1.95,3.88,2.55,5.6.24.69.12,1.81-.3,2.38-1.69,2.26-3.64,4.33-5.34,6.59-.42.56-.3,1.53-.43,2.31.87-.04,1.78.06,2.58-.19.46-.14.75-.86,1.1-1.33,1.42-1.91,2.83-3.82,4.36-5.9,1.01,1.49,1.9,2.68,2.64,3.96.23.4.26,1.22,0,1.54-1.05,1.3-2.31,2.43-3.35,3.74-.47.59-1,1.57-.82,2.15.24.75,1.09,1.51,1.85,1.79.35.13,1.27-.77,1.67-1.37.98-1.49,1.81-3.08,2.64-4.51,3.34,3.15,6.46,6.1,9.58,9.05-.64.45-1.24.87-1.84,1.29.09.32.18.65.27.97,1.89-.2,3.77-.4,6.12-.65-.8.61-1.11.85-1.23.94,2.37.68,4.84,1.12,7.08,2.09,10.08,4.34,16.71,2.87,23.15-4.22,3.04-3.35,5.74-7.01,8.65-10.6.31.29.75,1.04,1.29,1.12,1.04.16,2.14-.06,3.22-.12-.38-.77-.63-1.66-1.19-2.27-.54-.59-1.39-.9-2.13-1.34,1.64-1.98,2.76-3.33,3.38-4.08,2.59,0,4.6.1,6.59-.03,1.73-.11,2.28-1.06,1.06-2.47-.92-1.07-2.01-2-3.14-3.1,1.22-1.66,2.45-3.32,4.22-5.72.71,1.41,1.55,2.34,1.55,3.27,0,1.45.62,1.76,1.78,1.75.62,0,1.24-.08,2-.14-.09.98-.13,1.72-.24,2.46-1.37,8.64-3.44,17.15-3.69,25.99-.13,4.8-1.46,9.57-2.32,14.35-1.6,8.95-3.06,17.94-4.96,26.83-1.18,5.54-3.21,10.9-4.61,16.41-2.27,8.89-4.36,17.82-6.51,26.74-1.41,5.83-2.77,11.66-4.23,17.48-.46,1.82.01,3.38,1.59,4.06,2.88,1.23,6.01,3.14,8.87,2.88,5.88-.54,12.45-.59,15.87-7.07.11-.21.36-.35.55-.51,7.43-5.77,12.19-13.75,17.16-21.43,4.15-6.41,7.61-13.3,9.12-21,.74-3.75,2.31-7.34,3.1-11.09,2.16-10.21,4.01-20.48,6.16-30.68,2.55-12.1,5.89-24.04,6.51-36.49.07-1.38,1.01-2.71,1.57-4.12,3.6,1.4,5.29,3.69,5.6,7.12.32,3.56.53,7.16,1.22,10.66,2.71,13.7,1.78,27.51,1.01,41.24-.56,9.99-2.49,19.91-3.84,29.85-.45,3.29-.65,6.66-1.54,9.84-2.96,10.63-6.21,21.17-9.25,31.77-.38,1.32-.61,2.93-.21,4.18.91,2.84,2.02,5.67,3.49,8.25,1.86,3.25,4.27,6.23,7.93,7.62,2.68,1.02,5.53,1.6,8.56,2.44-.48.33-.94.66-1.41.99,1.22-.03,2.43-.05,3.65-.05.5-.57,1-1.14,1.52-1.75.06.85.08,1.2.08,1.2,2.03-1.15,4-2.24,5.96-3.36,2.39-1.37,5.3-2.29,7.01-4.26,2.58-2.97,4.85-6.47,6.29-10.12,2.21-5.62,3.81-11.51,5.3-17.38,3.21-12.62,6.6-25.22,9.15-37.98,2.15-10.8,3.23-21.82,4.74-32.75.27-1.98.45-3.99.51-5.99.16-5.18.26-10.37.31-15.55.02-1.87.94-2.2,2.58-2.01,1.9.23,3.82.36,5.73.32,5.35-.11,10.71-.64,16.04-.43,4.99.2,9.87.02,14.68-1.22,3.65-.93,7.27-1.97,10.86-3.1,1.51-.48,2.53-.43,3.27,1.12,1.01,2.1,2.1,4.17,3.18,6.23,2.09,3.98,4.61,7.79,6.19,11.96,2.18,5.78,3.58,11.84,5.46,17.74,3.68,11.57,4.85,23.58,5.72,35.56,1.03,14.09-3.46,27.22-8.65,40.07-1.82,4.49-4.01,8.83-6.01,13.25-.45.99-.66,2.16-1.31,2.97-.74.92-2.27,1.36-2.68,2.34-.24.57,1.45,1.73,1.56,2.71.36,3.21,2.61,3.54,5.04,3.71,5.7.4,10.44-1.87,14.69-5.42ZM293.83,250.67h0c-.56-2.02-.9-3.64-1.47-5.18-.35-.94-.95-2.39-1.59-2.47-.93-.11-2.17.59-2.94,1.32-1.92,1.8-3.64,3.81-5.46,5.76-3.38-3.94-3.07-14.7.22-19.31,5.83,4.21,11.24,9.06,18.65,11.79-2.42,2.64-4.73,5.17-7.41,8.09ZM384.81,198.61c4.98,7.5,6.89,16.04,8.72,24.61.12.54.01,1.12.01,1.68l-.64.38c-.74-.86-1.75-1.61-2.19-2.6-2.55-5.71-4.97-11.49-7.42-17.24-.26-.61-.4-1.27-.67-1.87-1.33-3.02-.92-3.87,2.19-4.96ZM376.7,173.48c1.4,4.44,2.79,8.92,4.64,13.18,1.41,3.24.28,5.87-1.02,8.54-.79,1.62-1.79.71-2.36-.38h0c-3.93-7.47-7.28-15.18-9.55-22.68,1.95-3.11,3.61-5.75,5.58-8.88.97,3.7,1.69,7.01,2.71,10.22ZM366.2,133.62c2.09,6.84,4.27,13.97,6.5,21.27-2.62,1.03-4.73,2.06-6.96,2.64h0c-.81.2-2.47-.41-2.78-1.08-2.65-5.83-5.08-11.75-7.57-17.66-.53-1.26-1.12-2.53.78-3.3.48-.2.85-.81,1.14-1.3,1.46-2.49,3.18-3.15,5.66-1.18.65.52,1.83.37,3.22.61ZM93.5,74.28c.7-1.3,1.86-3.46,3.02-5.62l.58.1v10.32c-1.31-1.75-2.34-3.12-3.6-4.8ZM94.84,211.24c-1.42-1.91-2.34-3.27-3.38-4.53-1.37-1.65-2.49-1.41-3.52.45-1.49,2.69-3.56,5.13-2.98,8.74-.86.2-1.61.37-2.91.67.24-2.49.25-4.65.71-6.7.36-1.62.61-3.22-1.01-3.88-.68-.28-2.06.78-2.97,1.45-1.65,1.23-3.18,2.61-5.05,3.77.35-7.68,2.91-14.77,4.83-22.57,4.24,2.34,8.31,4.36,12.13,6.78,3.85,2.44,7.46,5.27,11.45,8.12-2.34,2.47-4.76,5.02-7.3,7.7ZM168.81,218.85v-.02c1.36-.46,2.72-.92,4.34-1.46-.49,1.12-1.08,2.04-1.27,3.03-.22,1.11-.01,2.31-.13,3.45-.08.77-.34,2.15-.63,2.17-1.67.17-3.61,1.83-4.97-.88-.56-1.11-2.01-1.78-3.05-2.65-.66,1.36-1.46,2.67-1.94,4.1-.65,1.95-1.18,3.97-1.54,6-.47,2.7-1.97,3.77-5.19,3.3-.51-2.21-1.08-4.67-1.65-7.14-.86-3.73-1.87-4.07-4.72-1.44-1.21,1.12-2.18,2.51-3.4,3.63-.42.39-1.25.34-1.89.5-.05-.66-.34-1.41-.11-1.95.91-2.12,1.95-4.2,3.02-6.25.83-1.58.41-2.49-1.34-2.46-1.99.04-3.97.34-6.41.58.16-1.3.28-2.26.42-3.41,12.62,2.15,24.56-1.48,36.79-2.91-2.22,1.09-4.36,2.15-6.51,3.2.06.2.12.41.18.61ZM263.88,127.78c-2.43-4.75-4.79-9.24-7.02-13.78-2.9-5.91-5.9-11.76-10.18-16.84-.32-.38-.59-.94-1-1.1-.63-.24-1.36-.2-2.05-.28-.07.67-.42,1.48-.17,1.98.84,1.62,1.9,3.13,3.11,5.06-1.24.54-2.21,1.12-3.27,1.4-4.05,1.07-8.1,2.13-12.19,3-1.86.4-3.81.4-5.72.48-6.34.26-12.68.62-19.02.64-2.63,0-5.3-.58-7.86-1.24-.68-.18-1.36-1.6-1.47-2.51-.48-4.07-.68-8.17-1.15-12.24-.09-.79-.93-1.49-1.43-2.23-.46.83-1.05,1.61-1.35,2.5-.2.59-.11,1.34.02,1.99,1.78,9.23.73,18.52.51,27.78-.35,14.64-2.08,29.1-4.7,43.54-2.38,13.12-5.71,25.93-9.31,38.72-.33,1.18-.31,2.45-.63,3.64-.3,1.12-.83,2.17-1.07,2.78-1.97.43-3.52.79-5.08,1.11-2.86.6-5.69,1.37-8.58,1.72-6.14.74-12.3,1.38-18.47,1.81-2.02.14-4.41.65-5.88-1.73-.17-.27-1.14-.04-2.04-.04.41-1.56.8-3.07,1.22-4.58,2.08-7.58,4.37-15.12,6.18-22.77,1.07-4.53,1.37-9.24,2.04-13.87,1.18-8.11,2.83-16.18,3.5-24.33,1.22-14.75,1.95-29.54-.46-44.28-.51-3.12-.81-6.29-.96-9.45-.21-4.54-2.15-8-5.95-10.43-2.1-1.34-4.21-1.01-5.29,1.23-1.03,2.12-1.66,4.49-2.1,6.82-2.21,11.75-4.24,23.53-6.45,35.27-2.18,11.57-4.56,23.09-6.77,34.65-2.64,13.77-9.05,25.72-17.52,36.72-1.3,1.69-2.4,1.52-4.01.49-6.34-4.06-12.74-8.04-19.13-12.01-.98-.61-2.08-1.02-3.32-1.62,1.95-7.42,3.95-14.67,5.75-21.98,2.09-8.5,4.19-17.01,5.95-25.58,1.73-8.43,3.23-16.91,4.48-25.43,1.68-11.47,3.21-22.96,4.42-34.49.45-4.27-.21-8.64-.32-12.97-.02-.9.27-1.82.2-2.71-.05-.57-.49-1.1-.76-1.65-.51.31-1.25.51-1.48.96-1.24,2.44-2.3,4.98-3.52,7.43-.66,1.32-1.52,2.53-2.42,4.01-2.54-2.13-4.78-4.11-7.15-5.92-.63-.48-2.03-.87-2.45-.53-.98.79-1.1,2.03.11,2.98,1.91,1.5,3.73,3.13,5.76,4.46,1.83,1.19,1.83,2.3.5,3.79-.77.86-1.43,1.82-2.52,3.21-1.91-2.52-3.57-4.85-5.39-7.07-.62-.76-1.61-1.23-2.44-1.83-.17,1.14-.87,2.62-.4,3.35,1.43,2.23,3.32,4.17,5.03,6.22.43.51.87,1.01,1.5,1.74-1.75,2-3.48,3.98-5.5,6.29-1.29-2.29-2.47-4.28-3.55-6.32-1.2-2.26-1.43-2.25-3.07-.36-.35.4-1.59.39-2.23.12-3.47-1.43-6.86-3.07-10.34-4.48-1.04-.42-2.61-.83-3.39-.35-3.71,2.26-6.24-.71-9.2-1.73-4.1-1.4-8.15-2.95-12.28-4.24-1.99-.62-2.81.33-1.89,2.23,4.97,10.35,12.03,18.35,24.17,19.95,3.07.41,6.35.31,9.38-.3,1.84-.37,3.34-2.27,5.09-3.32,1.1-.66,3.03-1.77,3.43-1.41,1.18,1.07,2.38,2.59.75,4.5-3.34,3.91-6.24,8.25-9.89,11.83-4.58,4.49-10.24,4.45-15.9,2-3.13-1.35-6.17-2.92-9.22-4.44-4.28-2.13-7.59-5.38-10.56-9.06-1.02-1.26-.87-2.22.02-3.32,1.11-1.37,2.35-2.64,3.29-4.11.38-.58.12-1.57.16-2.38-.82.23-1.94.2-2.41.73-1.35,1.55-2.44,3.32-3.65,5.04-3.36-3.33-3.44-4.29-.8-7.64.98-1.25,2.1-2.41,2.95-3.75.44-.69.4-1.68.58-2.53-.91.27-2.12.27-2.66.87-1.55,1.72-2.83,3.69-4.23,5.57-3.02-2.9-3.15-6.24-.28-8.92,1.52-1.42,3.33-2.54,4.87-3.94.54-.49.66-1.44.97-2.18-.89-.03-2.05-.44-2.62-.03-2.22,1.62-4.25,3.49-6.69,5.56-1.34-4.44-2.63-8.69-3.91-12.95-2.49-8.28-4.77-16.64-7.53-24.83-2.22-6.6-4.98-12.98-3.21-20.22.45-1.87.07-3.93.38-6.04,3.93,6.47,10.85,9.27,16.2,13.87,1.24,1.07,3.35,1.7,5.01,1.63,11.69-.51,23.36-1.25,35.04-1.91.87-.05,1.74,0,2.77,0-.21.56-.25.72-.33.86-2.33,3.81-5.32,3.56-8.76,1.6-.78-.44-1.98-.14-2.98-.19.11,1.02.05,2.09.36,3.04.4,1.26,1.09,2.44,1.76,3.89-.84.58-1.82.99-2.38,1.72-.55.71-.96,1.78-.86,2.62.05.42,1.45,1.08,2.12.97,3.45-.59,5.25,1.53,6.74,3.98.42.69-.13,1.89.02,2.83.14.95.59,1.85.9,2.77.93-.91,2.39-1.69,2.66-2.76.38-1.52-.19-3.26-.22-4.9-.02-.93.12-2.63.34-2.66,1.42-.17,3.75-.49,4.17.21,1.34,2.22,3.2,1.54,4.9,1.51,2.06-.04,4.13-.35,6.17-.69.66-.11,1.23-.71,1.85-1.08-.68-.32-1.37-.93-2.03-.9-2.46.12-4.91.45-7.43.14.37-.06.82-.02,1.1-.22.54-.39,1.37-.92,1.35-1.38-.01-.53-.7-1.28-1.27-1.51-2.22-.9-4.5-1.62-6.89-2.46.66-1.25,1.24-2.07,1.55-2.99,1.19-3.59,1.16-3.6,4.99-3.05.83.12,1.65.28,2.47.43,4.52.83,7.45-.55,9.02-4.57,2.11-5.42,5.1-10.5,7.75-15.71.96-1.9,4.13-2.02,5.43-.1,2.25,3.32,4.36,6.73,6.45,10.16,1.17,1.92,2.01,4.05,3.3,5.87.48.67,1.84,1.02,2.78,1.01,4.66-.09,9.34-.72,13.98-.46,9.43.51,18.8,2.05,28.29,1.33,4.92-.37,9.86-.98,14.78-.88,10.61.23,21.22.78,31.83,1.33,4.51.24,9,1.08,13.51,1.2,8.68.23,17.38.11,26.07.18,5.61.04,11.23.03,16.83.26,8.42.35,16.86.66,25.25,1.44,6.99.65,13.92,1.98,20.89,2.98,5.03.72,10.16,1.02,15.1,2.15,5.2,1.19,10.36,2.81,15.28,4.87,3.88,1.62,6.03,5.41,7.23,9.25,3.31,10.61,6.17,21.36,9.4,31.99,1.84,6.04,4.09,11.96,6.09,17.95,2.52,7.53,4.97,15.08,7.43,22.63.14.44.02.96.02,2.26-2.26-1.72-4.02-3.1-5.84-4.4-.48-.34-1.28-.72-1.68-.54h-.08c-.46.22-.9,1.03-.91,1.59-.02,1.23.24,2.47.39,3.71-.22.13-.44.27-.67.4-.77-1.2-1.91-2.3-2.25-3.61-2.41-9.22-4.59-18.5-7.01-27.72-.75-2.86-2-5.6-3.1-8.37-.15-.37-.75-.79-1.12-.78-.4.01-.95.43-1.13.82-.28.58-.34,1.28-.41,1.94-.72,6.62-1.41,13.24-2.12,19.86-.76,7.15-1.7,14.29-2.23,21.45-.94,12.82-1.6,25.66-2.48,38.49-.08,1.17.5,3.21-1.79,3.11-1.59-.07-4.21-3.27-3.82-4.63.53-1.84,1.47-3.55,1.98-5.39.31-1.11.13-2.36.18-3.55-1.25.06-2.51,0-3.73.22-.88.17-1.72.66-2.52,1.11-2.53,1.43-4.66.67-6.63-1.12-.49-.45-.88-1.1-1.45-1.36-.6-.27-1.48-.43-2.02-.18-.36.17-.57,1.21-.43,1.75.41,1.61,1.04,3.17,1.6,4.82-1.91,1.52-3.89,3.01-5.77,4.64-.49.43-.66,1.23-.97,1.87.64.31,1.26.8,1.93.91,1.9.31,3.83.41,5.74.68,2.61.37,3.41,1.52,3.56,4.22.06,1.12.72,2.2,1.1,3.3,1.22-.55,3.01-.78,3.55-1.72,1.62-2.85,3.32-4.24,6.57-2.38.56.32,1.62-.25,2.61-.43,0,.86.09,1.84-.01,2.79-1.34,12.01-3.64,23.77-7.88,35.16-3.96,10.62-10.06,19.94-16.55,29.08-.05.07-.11.13-.16.19-3.46,4.16-3.6,4.32-8.21,1.42-4.1-2.58-7.95-5.55-11.87-8.4-1.14-.82-1.52-1.72-.44-3.12,6.58-8.58,11.99-17.93,14.53-28.42,2.53-10.42,5.33-21.04,4.16-31.89-.63-5.81-2.69-11.5-4.36-17.17-1.75-5.93-3.81-11.78-5.72-17.66-1.99-6.12-4.04-12.22-5.91-18.38-1.67-5.52-3.1-11.11-4.7-16.66-.31-1.08-.15-2.96-2.01-2.42-.49.14-.87,2.19-.61,3.19,1.8,6.96,3.76,13.89,5.72,20.81,1.08,3.82,2.27,7.61,3.44,11.5-1.71-.95-3.19-1.86-4.75-2.6-3.26-1.54-3.81-3.87-1.44-6.51.98-1.1.57-2.4-.97-2.41-1.25,0-2.59.5-3.74,1.08-2.17,1.1-4.05,1.46-5.77-.77-.33-.43-1.23-.43-1.86-.62-.11.69-.47,1.45-.3,2.06,1.05,3.74,1.04,3.64-2.37,5.49-1.42.77-2.59,1.98-4.16,3.21ZM44.63,83c7.92,4.15,16.45,4.25,25.51,3.69-4.39,4.21-20,1.84-25.51-3.69ZM65.62,91.59c-6.26,3.11-17.28.44-21.83-5.53,7.18,3.82,14.21,5.9,21.83,5.53ZM37.65,76.55h-.01c.15-.42.29-.84.44-1.25,4.15,2.03,8.34,4,12.45,6.12,1.58.82,2.75,2.35,4.61.13.61-.73,2.73-.63,4.01-.3,1.99.51,3.84,1.54,5.66,2.63-10.13,1.32-18.96-1.91-27.16-7.33ZM266.22,214.86h0c2.23-7.25,4.45-14.53,6.37-21.88.77-2.94.76-6.08,1.1-9.01.31-.13.39-.19.47-.19,1.91.11,4.24-.39,5.59.53,1.13.78,1.1,3.22,1.57,4.94.86,3.1,1.93,3.48,4.16,1.09,1.06-1.13,1.5-2.82,2.34-4.19.36-.59.96-1.37,1.53-1.45,1.54-.2,3.12.02,4.67-.11.64-.05,1.24-.56,1.86-.86-.36-.58-.61-1.29-1.11-1.71-.4-.34-1.1-.31-1.66-.45-2.79-.69-3.39-1.54-3.13-4.4.16-1.83.4-3.67.38-5.51,0-.8-.58-1.6-.9-2.39-.8.34-1.67.56-2.37,1.04-.74.52-1.3,1.3-1.97,1.93-1.96,1.87-3,1.77-4.66-.48-.55-.74-.94-1.62-1.58-2.25-.47-.46-1.22-.64-1.85-.94-.34.7-1.03,1.45-.94,2.08.24,1.64.84,3.22,1.29,4.83.83,2.95-.06,4.37-3.61,5.2-.57-4.91-1.46-9.76-1.65-14.63-.37-10.08-3.58-19.55-5.82-29.23-.36-1.55-.83-3.08-1.09-4.64-.09-.55.35-1.7.41-1.69,2.41.36,4.95.48,7.15,1.4,1.14.47,1.67,2.38,2.49,3.64.58.88.94,1.99,2.48,1.36,1.25-.51,1.85-.97,1.57-2.54-.33-1.86,1.02-2.76,2.75-2.66,1.4.08,2.84.38,4.16.85,1.9.68,3.32.77,3.33-2.27.22.13.44.27.66.4,1.01,3.15,1.99,6.32,3.04,9.46,1.63,4.9,3.44,9.73,4.91,14.67,3.21,10.79,2.2,21.57.45,32.54-2.11,13.22-7.55,24.83-14.95,35.73-2.03,2.99-2.4,3.17-5.6,1.62-3.53-1.71-6.94-3.66-10.49-5.32-2.31-1.08-1.96-2.55-1.35-4.51ZM264,221.02c5.38,2.5,10.48,4.86,15.89,7.38-3.9,4.51-8.05,8.61-13.53,11.5-1.5-3.12.2-7.45-3.85-9.27-1.03.75-2.01,1.46-2.99,2.18-.15-.11-.31-.21-.46-.32,1.63-3.79,3.26-7.57,4.94-11.47Z"/>
  <path class="cls-1" d="M383.28,205.44c-.26-.61-.4-1.27-.67-1.87-1.33-3.02-.92-3.87,2.19-4.96h.01"/>
  <path class="cls-1" d="M393.53,223.21c.12.54.01,1.12.01,1.68-.22.13-.43.26-.65.39-.74-.86-1.75-1.61-2.19-2.6"/>
  <path class="cls-1" d="M97.1,68.76v10.32c-1.31-1.75-2.34-3.12-3.6-4.8.7-1.3,1.86-3.46,3.02-5.62.19.03.38.07.58.1Z"/>
  <path d="M308.43,70.08c-2.06.32-3.65.84-5.2.73-1.28-.09-2.7-.69-3.71-1.49-1.31-1.03-1.42-2.35.25-3.46,1.25-.82,2.37-1.85,3.55-2.78,3.11-2.45,3.07-2.42,1.37-6.08-.84-1.81-1.59-3.68-2.17-5.59-.21-.68-.05-1.86.42-2.25.44-.36,1.61-.19,2.26.13,1.79.9,3.47,2.02,5.2,3.02,1.77,1.03,3.45,1.05,5.06-.43,1.1-1.02,2.22-2.17,3.55-2.75.98-.43,2.48-.38,3.43.1.59.3.94,1.87.75,2.73-.45,2.02-1.41,3.93-1.91,5.95-.18.72.14,1.97.69,2.39,1.83,1.43,3.94,2.51,5.79,3.93.68.53.92,1.62,1.36,2.46-.86.32-1.78,1.02-2.56.89-4.38-.75-6.04,2.08-7.52,5.32-.76,1.66-1.52,3.34-2.51,4.86-.43.66-1.6,1.44-2.14,1.26-.76-.25-1.4-1.25-1.81-2.08-1-1.98-1.76-4.07-2.78-6.04-.26-.5-1.11-.69-1.36-.84v.02Z"/>
  <path d="M135.19,76.02c1.08-1.85,2.05-3.78,3.27-5.53,1.08-1.57,3.32-2.89,3.41-4.42.09-1.44-1.97-3-3.05-4.53-.38-.54-.79-1.12-.95-1.74-.4-1.57.22-2.26,1.86-1.8.64.18,1.26.45,1.9.65,5.05,1.61,6.78.54,8.13-4.65.4-1.54,1.22-3.1,2.26-4.3,1.32-1.51,2.42-1.14,2.95.84.78,2.89,1.35,5.84,2.17,8.71.19.66.9,1.38,1.54,1.66,2.22.96,4.7,1.45,6.73,2.68,1.74,1.06,3.35,2.7,4.35,4.46.82,1.44-.58,1.87-1.99,1.72-2.65-.28-5.31-.49-7.96-.67-1.63-.11-2.52.47-2.21,2.34.26,1.56.2,3.16.43,4.73.28,1.95-.49,2.88-2.41,3.35-2.07.51-1.73-1.22-2.37-2.11-1.13-1.58-2.26-3.2-3.63-4.56-.4-.4-1.69-.13-2.47.13-3.69,1.23-7.35,2.57-11.02,3.87-.31-.27-.62-.55-.93-.82h0Z"/>
  <path d="M210.75,47.48c2.87-1.37,5.74-2.73,8.38-3.99-2.03-2.98-4.07-5.61-5.62-8.5-.51-.95.27-2.6.46-3.92,1,.18,2.13.13,2.97.6,2.93,1.61,5.78,3.37,8.63,5.12,1.44.88,2.56.69,3.8-.47,1.92-1.79,3.5-4.03,6.45-4.51,1.95-.32,2.59.14,2.02,2.03-.68,2.25-1.51,4.46-2,6.74-.16.73.36,1.91.96,2.42,1.32,1.13,2.99,1.86,4.32,2.98.57.48.63,1.54.93,2.34-.74.2-1.51.63-2.22.57-6.05-.55-6.99.08-8.97,5.95-.39,1.15-1.02,2.31-1.83,3.21-.96,1.06-1.89.99-3.12-.24-1.71-1.7-2.74-3.22-2.33-5.83.21-1.39-1.05-2.47-2.9-2.27-2.06.22-4.16.39-6.21.21-1.29-.11-2.52-.92-3.77-1.41.03-.34.06-.68.08-1.02h-.03Z"/>
  <path d="M273.46,77.85c-3.24.21-5.75.2-8.19.61-.95.16-1.98,1.09-2.55,1.95-1.12,1.7-1.9,3.63-2.93,5.4-.29.49-1.1,1.12-1.46,1.01-.57-.18-1.18-.85-1.39-1.45-.5-1.41-.79-2.89-1.13-4.35-.49-2.11-1.7-3.22-3.94-3.48-.93-.1-2.32-.84-2.51-1.55-.2-.77.52-2.15,1.26-2.71,1.34-1.02,1.19-1.95.61-3.23-1.1-2.43-2.14-4.9-3.08-7.4-.26-.69-.34-1.83.05-2.26.36-.39,1.61-.37,2.22-.05,2.28,1.2,4.53,2.49,6.67,3.93,3.15,2.12,4.14,2.09,6.96-.57.91-.86,1.76-1.87,2.84-2.42.77-.39,2.04-.43,2.77-.04.45.25.53,1.66.35,2.45-.46,2.03-1.3,3.98-1.69,6.01-.14.71.34,1.88.93,2.33,1.3,1,2.95,1.56,4.27,2.54.7.52,1.02,1.54,1.51,2.33-.7.42-1.4.84-1.56.94h0Z"/>
  <path d="M227.01,68.5c-.32,2.45-.71,4.27-.73,6.09,0,.73.63,1.78,1.29,2.15,2.39,1.37,4.94,2.46,7.34,3.81.65.37.98,1.31,1.45,1.98-.79.24-1.58.67-2.38.69-2.83.06-5.67-.15-8.48.04-.86.06-1.92.92-2.41,1.71-.88,1.4-1.27,3.11-2.14,4.51-.36.58-1.52,1.06-2.2.93-.56-.1-1.27-1.11-1.36-1.78-.36-2.74-2.59-4.78-5.35-4.62-1.84.11-3.7.52-5.5.32-1.26-.14-2.42-1.09-3.63-1.67.75-.88,1.37-1.94,2.28-2.59,1.15-.8,2.53-1.28,3.82-1.86,1.48-.66,1.47-1.43.56-2.71-1.24-1.75-2.28-3.65-3.27-5.56-.25-.48-.22-1.59.07-1.76.55-.32,1.47-.41,2.06-.17,2,.84,3.93,1.85,5.87,2.82,3.65,1.83,4.01,1.79,6.88-1.18.7-.72,1.25-1.63,2.05-2.18.75-.51,1.9-1.09,2.59-.85.67.24.98,1.49,1.2,1.86v.02Z"/>
  <path d="M251.45,49.09c-.77-1.3-.27-2.25,1.34-2.81,2.13-.74,4.27-1.48,6.38-2.28.83-.31,1.6-.77,2.33-1.13-.87-4-2.44-7.29-5.25-9.99-.39-.37-.16-1.38-.22-2.09.72.03,1.63-.21,2.11.15,2.76,2.02,5.41,4.2,8.1,6.3,1.43,1.12,2.76,1.06,4.32,0,1.71-1.15,3.64-2.01,5.54-2.82.56-.24,1.69-.1,2,.31.41.53.56,1.58.33,2.24-.53,1.47-1.38,2.83-2.06,4.25-.62,1.3-.51,2.35.99,3.07,1.12.54,2.23,1.21,3.16,2.02.59.51.84,1.41,1.24,2.13-.7.25-1.39.51-2.1.73-.14.05-.33-.03-.5-.05-4.54-.48-4.8-.09-5.12,4.61-.08,1.13-1.41,2.26-2.38,3.17-.13.12-1.62-.92-2.23-1.63-1.51-1.76-2.77-3.74-4.35-5.43-.65-.69-1.86-1.18-2.82-1.18-3.48,0-6.96.26-10.81.43h0Z"/>
  <path d="M277.11,89.76c-.73-.08-1.56.03-2.15-.3-.57-.32-1.14-1.05-1.23-1.66-.06-.45.54-1.23,1.04-1.48,1.11-.55,2.33-.9,3.53-1.25,1.45-.41,2.99-.56,4.37-1.11,2.59-1.03,2.79-1.94,1.32-4.25-.4-.62-.82-1.32-.91-2.02-.2-1.45.49-2.07,1.94-1.5.46.18.84.55,1.28.79,2.98,1.63,5.87,3.12,9.22.55.83-.63,2.42-.27,3.66-.36,0,1.25.33,2.61-.06,3.72-1.5,4.3-1.81,4.86,2.03,6.89,1.32.69,2.52,1.67,3.6,2.7.5.47.58,1.38.85,2.1-.66.14-1.32.34-1.98.38-.39.02-.81-.2-1.21-.33-2.1-.69-3.56-.43-3.88,2.2-.13,1.12-.5,2.41-1.22,3.21-.66.73-1.96,1.24-2.94,1.19-.67-.03-1.8-1.15-1.85-1.84-.41-5.84-4.25-7.16-9.16-7.31-2.08-.06-4.16-.34-6.24-.51,0,.07-.01.13-.02.2h0Z"/>
  <path d="M171.97,113.32c-.64-.99-1.36-1.93-1.89-2.97-.45-.88-.65-1.89-1.01-2.82-.92-2.37-2.19-3.41-5.13-2.75-1.77.4-4.8,1.84-5.89-1.65-.02-.07.02-.16.09-.52,1.66-1.18,3.47-2.47,5.49-3.91-1.18-2.02-2.42-4.13-3.65-6.24-.21-.36-.56-.71-.6-1.09-.09-.85-.02-1.72-.02-2.58.84.13,1.83.03,2.5.44,2.13,1.31,4.07,2.92,6.21,4.22,2.79,1.69,3.87,1.47,6.02-.99.76-.87,1.26-1.99,2.06-2.82.61-.63,1.51-.97,2.29-1.44.43.91,1.24,1.83,1.22,2.73-.04,1.81-.55,3.61-.83,5.41-.24,1.53.35,2.5,1.87,3.07,1.16.44,2.29,1.09,3.24,1.87.54.45.92,1.37.92,2.07,0,.31-1.09.66-1.72.93-.58.25-1.19.49-1.81.59-.72.11-1.62.34-2.19.05-2.37-1.24-2.5-1.14-3.37,1.43-.8,2.36-1.94,4.61-2.93,6.91-.29.01-.58.03-.87.04v.02Z"/>
  <path d="M188.67,49.15c1.47.89,2.81,1.58,3.98,2.48.56.43.78,1.29,1.16,1.96-.63.28-1.25.69-1.91.79-.9.15-1.84.02-2.75.08-4.04.26-6.07,1.95-7.24,5.89-.19.64-.7,1.19-1.06,1.78-.62-.48-1.65-.86-1.78-1.44-1.04-4.77-4.14-5.6-8.33-4.63-.48.11-1.08.19-1.49,0-.6-.28-1.31-.74-1.54-1.29-.15-.36.36-1.2.8-1.53,1.54-1.15,3.14-2.23,4.78-3.23,1.18-.72,1.34-1.56.69-2.71-.78-1.38-1.61-2.74-2.23-4.19-.29-.68-.12-1.56-.16-2.35.78,0,1.81-.3,2.31.08,4.46,3.38,8.94,3.77,13.77.71.7-.44,2.58-.12,3.08.51.52.66.26,2.18-.07,3.2-.4,1.25-1.21,2.37-2.03,3.89h.02Z"/>
  <path d="M177.63,148.41c-3.67-1.23-3.71,2.13-4.94,4.08-.44.71-1.06,1.3-1.6,1.95-.53-.64-1.28-1.2-1.55-1.94-1.38-3.83-2.15-4.35-6.16-3.9-1.08.12-2.21.39-3.23.19-.7-.14-1.55-.88-1.77-1.54-.15-.44.51-1.47,1.07-1.8,1.56-.94,4.01-1.26,4.69-2.56.64-1.23-.62-3.39-.85-5.17-.12-.88-.06-2.42.38-2.61.84-.36,2.14-.27,3.01.15,4.99,2.42,4.9,2.4,8.95-1.59.74-.73,2.44-1.13,3.42-.82,1.6.51,1,1.98.49,3.18-1.33,3.09-.55,5.52,2.36,7.28.78.47,1.77.7,2.37,1.32.56.58.73,1.54,1.07,2.33-.65.25-1.27.62-1.94.73-1.87.3-3.76.48-5.76.73h0Z"/>
  <path d="M311.04,128.92c-.03-.56-.02-1.32-.14-2.06-.58-3.66-1.17-4.25-4.81-4.93-1.24-.23-2.5-.34-3.71-.67-1.72-.46-2.23-2.19-.74-2.87,4.29-1.95,4.65-5.29,4.12-9.27-.24-1.84.95-1.7,2.04-.98.83.55,1.43,1.44,2.26,1.98,2.2,1.42,4.06.33,6.02-.8,1.32-.75,2.6-2.94,4.25-1.36.61.58-.13,2.67-.42,4.04-.26,1.22-.94,2.37-1.05,3.58-.08.84.26,1.99.84,2.57,1.11,1.11,2.56,1.85,3.79,2.85.5.41.76,1.1,1.13,1.67-.59.36-1.33,1.16-1.75,1.01-4.81-1.64-6.47,1.62-8.09,5.01-.36.75-.65,1.59-1.18,2.21-.48.56-1.24.87-1.88,1.3-.28-.7-.61-1.39-.82-2.11-.09-.29.06-.66.12-1.18h.02Z"/>
  <path d="M134.55,45.25c-2.92,0-5.58-.76-7.12.22-1.41.9-1.5,3.74-2.38,5.62-.62,1.31-1.41,3.29-2.44,3.51-2.11.45-2.39-1.74-2.88-3.33-.32-1.04-.73-2.05-1.1-3.07-1.16-3.29-1.95-3.66-5.34-2.53-.7.23-1.46.62-2.13.53-1.36-.19-1.81-1.1-1.13-2.37.15-.28.44-.53.72-.68,3.77-1.93,5.48-4.47,2.75-8.53-.26-.38-.03-1.42.34-1.78.33-.32,1.17-.12,1.78-.11.15,0,.3.14.44.23,2.87,1.89,5.54,2.69,8.02-.75.37-.52,2.11-.49,2.91-.1.49.24.7,1.74.5,2.55-1.06,4.36-1.13,4.37,2.87,6.37,1.27.63,2.71.93,3.93,1.62.58.33,1.01,1.21,1.14,1.9.05.26-.92.72-.9.7h.02Z"/>
  <path d="M122.05,81.18c2.2,2.66.45,4.2-.38,5.89-.68,1.39-1.59,1.28-2.48.13-.15-.2-.24-.44-.35-.66-2.41-5-2.41-4.93-7.71-4.47-1.25.11-2.56-.42-3.85-.66.72-1.12,1.38-2.29,2.19-3.34.45-.58,1.16-.95,1.73-1.44.96-.82,1.31-1.55.13-2.63-.82-.75-1.39-1.89-1.79-2.96-.21-.56.18-1.35.3-2.04.64.18,1.32.27,1.9.55.59.28,1.06.78,1.62,1.14,1.88,1.23,3.34,1.01,4.91-.8,1.11-1.28,2.87-2.01,4.34-2.99.26,1.72.98,3.52.67,5.13-.67,3.55.3,5.78,3.81,6.95.59.2.87,1.32,1.3,2.01-.78.2-1.56.54-2.34.56-1.09.03-2.18-.19-4-.37h0Z"/>
  <path d="M310.55,225.28c-.69,1.33-1.45,1.85-2.77.85-1.55-1.19-2.6-.7-3.12,1.12-.07.24-.12.54-.29.69-.89.8-1.82,1.57-2.74,2.35-.67-.99-1.37-1.96-2.01-2.97-.12-.19-.05-.49-.1-.74-.94-5.11-1.2-5.26-6.41-5.18-.96.02-1.93-.63-2.89-.97.83-.75,1.66-1.51,2.51-2.25.11-.1.33-.07.48-.13,6.14-2.69,5.45-.89,4.35-7.48-.15-.9.05-2.53.54-2.74,1.61-.67,1.79.89,2.15,1.97.03.08.07.15.1.23,1.96,4.82,2.29,4.9,7.07,2.6.95-.46,2.16-.39,3.24-.56.03,1.08.33,2.24.04,3.23-.41,1.39-1.16,2.71-1.92,3.97-1.08,1.79-1.34,3.34.66,4.69.45.3.73.87,1.1,1.33h0Z"/>
  <path d="M113.71,111.63c-.06.49-.06.58-.09.65-1.69,4.46.42,6.85,4.46,8.22.62.21,1.3.55,1.7,1.03.37.45.62,1.21.51,1.76-.06.34-.85.69-1.36.77-1.4.23-2.84.25-4.23.51-1.78.33-2.48,1.89-1.69,3.52.15.3.46.58.47.87.03.89-.06,1.78-.1,2.67-.73-.48-1.66-.81-2.14-1.47-1.08-1.47-1.61-3.7-3.01-4.49-1.17-.67-3.25.26-4.92.48-.58.08-1.16.23-1.74.23-1.7,0-2.05-.98-1.39-2.32.36-.72,1.02-1.32,1.63-1.89,1.57-1.46,2.43-2.9.6-4.83-.47-.5-.75-1.35-.79-2.06-.07-1.53.44-2.55,2.25-1.64.07.04.15.08.22.12,3.64,1.66,4.88,1.09,6.16-2.85.16-.48.16-1.04.42-1.43.33-.5.85-.86,1.3-1.28.35.39.83.73,1.03,1.19.36.82.54,1.72.7,2.23h0Z"/>
  <path d="M161.92,203.6c.53,1.23,1.06,1.97,1.1,2.72.04.69-.45,1.41-.71,2.12-.62-.27-1.49-.37-1.82-.84-.82-1.18-1.4-2.52-2.08-3.8.15-.21.31-.42.46-.63-2.82-.2-5.64-.37-8.45-.64-.75-.07-1.46-.49-2.2-.75.31-.73.41-1.73.96-2.15,2.05-1.54,4.25-2.89,6.8-4.58-1.48-2.14-2.94-4.12-4.22-6.21-.38-.61-.24-1.54-.34-2.32.69.21,1.5.25,2.04.65,1.8,1.34,3.46,2.87,5.29,4.17.52.37,1.55.41,2.16.16,1.3-.55,2.43-1.48,3.72-2.07.59-.27,1.38-.1,2.08-.14,0,.63,0,1.25-.05,1.88-.02.24-.2.46-.3.69-2.26,5.63-2.22,5.62,2.55,9.4.93.74,1.5,1.92,2.24,2.9-1.2.08-2.42.3-3.61.21-1.72-.12-3.43-.46-5.63-.78h0ZM156.44,197.12c-1.49,1.03-2.63,1.82-4.21,2.91,2.26.35,3.85.6,5.85.91-.61-1.43-1.05-2.45-1.64-3.83h0ZM160.31,200.8c.48-1.64.95-2.55.95-3.46,0-.61-.59-1.28-1.06-1.8-.16-.18-1.05-.08-1.07.03-.15.58-.28,1.24-.14,1.8.23.94.68,1.82,1.32,3.44h0Z"/>
  <path d="M44.06,64.98c2.91,0,5.39.01,7.88,0,1.7-.01,3.16.08,3.26,2.41.03.57,1.18,1.54,1.83,1.54,1.63.02,3.26-.54,4.9-.59,1.01-.03,2.59.17,2.94.8.88,1.6,2.36,3.26,1.64,5.32-.25.08-.5.16-.75.24-.35-.9-.71-1.8-1.17-2.96-2.83,0-5.9.05-8.97-.02-2.76-.06-3.8-.88-4.55-3.33-2.22.16-4.45.44-6.68.45-3.03.02-3.86-1.26-3.62-4.25.51-6.22,3.94-11.46,5.51-17.3.76-2.83,1.02-5.79,4-7.33.52-.27,1.15-.31,1.73-.46.12.68.51,1.47.31,2.04-1.7,4.85-3.54,9.65-5.28,14.49-1.01,2.81-1.9,5.66-3,8.93l.02.02Z"/>
  <path d="M109.91,164.91c0,1.51.11,2.76-.05,3.97-.07.52-.62,1.32-1.05,1.38-.45.06-1.05-.55-1.49-.96-.21-.2-.18-.63-.32-.93-1.53-3.34-2.1-3.65-5.71-3.22-1.74.21-3.49.48-5.24.53-.8.02-1.61-.41-2.41-.64.49-.78.82-1.78,1.51-2.29,1.75-1.28,3.66-2.32,5.5-3.48.13-.08.18-.27.43-.66-.79-1.11-1.8-2.23-2.45-3.54-.42-.84-.3-1.94-.43-2.93.8.31,1.66.52,2.38.95.78.47,1.4,1.19,2.13,1.74,2.42,1.81,2.7,1.71,4.63-.62.56-.68,1.55-1,2.34-1.49.33.96.73,1.9.96,2.87.11.46-.04,1.01-.18,1.48-.68,2.23.19,3.5,2.22,4.56,1.23.64,2.07,2.04,3.09,3.1-1.29.06-2.57.13-3.86.18-.49.02-.99,0-2.02,0h.02Z"/>
  <path d="M29.78,58.83c-4.49-.03-7.07-2.85-5.61-6.33.48-1.14,1.55-2.31,2.65-2.84,3.14-1.49,6.38-2.88,9.71-3.82,1.23-.35,3.33.27,4.15,1.21.73.84.64,2.88.19,4.14-1.24,3.51-7.56,7.66-11.1,7.64h0ZM37.27,52.46c.64-1.66,1.06-2.76,1.67-4.35-1.63.44-2.53.68-3.56.96.57,1.02,1.04,1.86,1.89,3.39ZM29.93,51.13c1.75,2.69,2.44,2.6,3.98-.26-1.56.1-2.77.18-3.98.26ZM27.3,52.89c-1,2.87-.27,3.51,2.43,3.09-.64-.81-1.43-1.82-2.43-3.09Z"/>
  <path d="M84.7,55.79c.15-.01-.44.11-1.01.07-6.4-.46-11.9-2.97-16.63-7.24-.24-.21-.58-.65-.5-.81.71-1.44,1.29-3.01,2.34-4.17.54-.6,2.14-.86,2.92-.52,3.71,1.63,7.43,3.35,10.91,5.42,1.62.97,2.89,2.69,4.05,4.26,1.06,1.45.4,2.51-2.07,2.98h0ZM80.22,48.57c-.21,2.04-.35,3.35-.51,4.91,1.76.06,3.17.11,4.58.16.11-.26.23-.52.34-.77-1.33-1.3-2.65-2.6-4.4-4.31ZM72.78,46.25c-.11-.24-.22-.49-.33-.73-1.03.39-2.07.78-3.1,1.17.34.89.68,1.77,1.18,3.07,1.03-1.6,1.64-2.55,2.25-3.5ZM76.26,48.08c-.31.01-.61.04-.92.05-.48.58-.97,1.17-1.96,2.39,1.68.2,2.69.32,3.7.44,0,0-.81-2.89-.81-2.89Z"/>
  <path d="M6.78,25.57c-.33-2.47-.8-4.93-.93-7.41-.04-.87.76-1.77,1.18-2.66.85.46,1.96.72,2.5,1.42,2.17,2.85,4.05,5.92,6.26,8.74,1.37,1.75,1.06,2.99-.44,4.26-2.06,1.74-4.52,2.25-7.05,1.71-.73-.16-1.51-1.41-1.73-2.3-.3-1.18-.07-2.48-.07-3.73.09,0,.18-.02.28-.04h0Z"/>
  <path d="M100.99,20.85c-.91.39-1.64,1-2.27.92-3.43-.46-6.84-1.04-10.23-1.7-.81-.16-1.75-.64-2.2-1.28-.22-.32.43-1.41.89-2,1.54-2.03,3.05-4.09,4.79-5.94,1.62-1.72,2.34-1.38,3.44.68,1.13,2.13,2.53,4.11,3.79,6.16.51.84.98,1.71,1.8,3.15h-.01Z"/>
  <path d="M22.39,41.75c.67,1.39,1.03,2.15,1.4,2.92-.89.35-1.75.79-2.66,1.02-1.13.27-2.31.5-3.46.46-.57-.02-1.12-.7-1.68-1.08.43-.41.78-1.01,1.29-1.2.92-.34,1.93-.44,2.88-.64-.1-3.63.53-4.26,4.03-4.33,1.48-.03,2.99-.41,4.44-.24.97.11,1.87.91,2.79,1.41-.83.42-1.63,1.08-2.51,1.2-2.07.29-4.18.33-6.52.49h0Z"/>
  <path d="M36.08,36.45c1.28.19,2.81.26,4.2.72.5.16.69,1.27,1.02,1.94-.66.24-1.32.66-1.99.69-1.65.05-3.31,0-4.94-.18-.88-.1-1.72-.57-2.57-.87.72-.64,1.37-1.38,2.17-1.87.53-.32,1.28-.27,2.1-.43h.01Z"/>
  <path d="M87.35,45.17c2.12.62,4.26,1.18,6.35,1.9.65.22,1.24.81,1.67,1.37.21.28.16,1.03-.08,1.29-.22.24-.91.27-1.29.12-1.59-.6-3.19-1.22-4.7-2-.94-.49-1.71-1.29-2.55-1.95.2-.24.4-.49.6-.73Z"/>
  <path d="M91.74,42.65c-1.34.4-2.41.94-2.58.73-1.22-1.45-2.63-1.04-4.14-.85-.57.07-1.21-.48-1.82-.74.41-.47.78-1.3,1.22-1.34,1.63-.14,3.3-.17,4.9.07.64.09,1.17.98,2.42,2.13Z"/>
  <path d="M163.16,26.5c-.06.49-.06.58-.09.65-1.69,4.46.42,6.85,4.46,8.22.62.21,1.3.55,1.7,1.03.37.45.62,1.21.51,1.76-.06.34-.85.69-1.36.77-1.4.23-2.84.25-4.23.51-1.78.33-2.48,1.89-1.69,3.52.15.3.46.58.47.87.03.89-.06,1.78-.1,2.67-.73-.48-1.66-.81-2.14-1.47-1.08-1.47-1.61-3.7-3.01-4.49-1.17-.67-3.25.26-4.92.48-.58.08-1.16.23-1.74.23-1.7,0-2.05-.98-1.39-2.32.36-.72,1.02-1.32,1.63-1.89,1.57-1.46,2.43-2.9.6-4.83-.47-.5-.75-1.35-.79-2.06-.07-1.53.44-2.55,2.25-1.64.07.04.15.08.22.12,3.64,1.66,4.88,1.09,6.16-2.85.16-.48.16-1.04.42-1.43.33-.5.85-.86,1.3-1.28.35.39.83.73,1.03,1.19.36.82.54,1.72.7,2.23h0Z"/>
</svg>