<?xml version="1.0" encoding="UTF-8"?>
<svg id="Layer_1" xmlns="http://www.w3.org/2000/svg" viewBox="0 0 392.39 252.37">
  <defs>
    <style>
      .cls-1 {
        fill: #fff;
      }
    </style>
  </defs>
  <path d="M99.65,209.48c.6,1.71,1.15,3.44,1.82,5.13.67,1.69,1.11,3.52,2.66,4.72.16.13.3.43.28.63-.29,3.02,1.45,5.41,2.47,8,1.91,4.82,4.44,9.43,5.29,14.61.45,2.76.46,5.57-.75,8.23-.69,1.53-2.22,1.07-3.37,1.55-.04-.14-.11-.26-.08-.28.97-1.02.62-1.73-.41-2.49-1.68-1.24-2.76-2.95-3.61-4.85-1-2.21-2.16-4.35-3.13-6.57-.2-.45-.04-1.29.29-1.66.21-.24,1.25-.17,1.52.13,1.5,1.64,2.91,3.37,4.3,5.11.91,1.14,1.72,2.34,2.58,3.52.13-.05.27-.09.4-.14-.05-.51-.06-1.03-.17-1.53-1.27-5.69-3.7-10.96-5.97-16.29-.35-.83-.72-1.65-1.14-2.61-4.47,5.38-8.49,10.96-15.26,13.74,2.48,3,5.08,5.87,8.03,8.4.12-.08.24-.16.36-.24-.12-.34-.2-.71-.37-1.02-.72-1.34-1.65-2.6-2.12-4.02-.33-1.01-.27-2.29.02-3.33.31-1.09,1.5-.99,2.21.05,2.29,3.37,4.58,6.72,6.89,10.07.54.79,1.23,1.49,1.68,2.32.23.43.09,1.06.11,1.59-.45-.02-.97.1-1.34-.09-2.23-1.13-4.42-2.34-6.63-3.49-.47-.24-1.01-.32-1.5-.52-.43-.18-.9-.35-1.24-.65-6.04-5.22-11.36-10.98-14.58-18.47-1.61-3.74-3.47-7.38-5.42-10.96-1.66-3.06-3.27-6.15-4.72-9.3-.81-1.76-1.3-3.68-1.79-5.57-1.36-5.25-2.68-10.5-3.94-15.77-.33-1.39-.46-2.84-.62-4.27-.55-5-1.14-10-1.57-15.01-.45-5.37-1.17-10.72-.54-16.15.4-3.4.37-6.87.3-10.3-.09-4.5.5-8.92,1.12-13.36.21-1.49.18-3.03.17-4.54-.03-2.59-.12-5.17-.2-7.75,0-.18-.09-.35-.38-.57-.11.3-.25.6-.32.91-1.26,5.36-2.47,10.74-3.8,16.09-1,4.03-2.07,8.06-3.3,12.02-1.09,3.5-2.35,6.95-3.73,10.34-.75,1.83-1.86,3.53-2.88,5.24-2.11,3.55-3.23,7.47-4.42,11.37-1.62,5.28-3.36,10.53-5.89,15.43-3.06,5.93-6.39,11.71-9.59,17.57-.51.94-.86,1.98-1.42,2.89-.75,1.21-1.72,2.29-2.43,3.52-.77,1.33-1.31,2.79-2,4.17-.7,1.39-1.33,2.83-2.21,4.1-3.12,4.54-6.25,9.07-9.54,13.48-1.69,2.26-3.69,4.29-5.62,6.36-.72.76-1.71,1.05-2.76.57-1.09-.5-1.43-1.45-1.37-2.57.2-3.45.52-6.77,2.32-9.99,1.58-2.84,2.3-6.18,3.27-9.34.79-2.59,1.25-5.29,2.1-7.87,1.96-5.93,4.05-11.81,6.12-17.7,2.09-5.95,4.2-11.89,6.36-17.82.56-1.53,1.4-2.96,1.95-4.5.92-2.59,1.63-5.25,2.56-7.83.65-1.79,1.62-3.46,2.29-5.25,2.32-6.25,4.76-12.47,6.78-18.81,2.04-6.38,3.56-12.93,5.47-19.36,1.18-3.98,2.73-7.85,3.99-11.81,1.2-3.76,2.27-7.57,3.32-11.38.82-3,1.51-6.04,2.26-9.06,1.82-7.28,3.68-14.55,5.45-21.85.53-2.17.78-4.41,1.21-6.6.83-4.27,3.28-7.54,6.75-9.96,2-1.4,4.36-2.28,6.54-3.41,1.91-.99,3.86-1.93,5.71-3.04,1.27-.76,2.26-2,3.9-2.14.13-.01.18-.66.3-1,.11-.31.23-.79.43-.84.25-.06.81.18.87.39.5,1.93,1.83,1.45,3.22,1.31,2.74-.28,5.5-.31,8.25-.53,4.5-.36,8.99-.93,13.49-1.16,5.75-.29,11.5-.34,17.26-.49,1.66-.04,1.66-.02,1.35-1.59-.36-1.78.65-2.67,2.35-2.12,2.24.72,4.49,1.4,6.74,2.12.34.11.63.34.97.44.69.21,1.43.61,2.1.53,5.44-.7,10.9-.89,16.38-1.03,6.75-.18,13.5-.59,20.24-.95,2.22-.12,4.43-.32,6.63-.56,5.97-.65,11.95-1.31,17.91-2.04,3.25-.4,6.47-1.04,9.72-1.45,6.14-.78,12.3-1.48,18.45-2.18,2.34-.27,4.69-.45,7.03-.68.16-.02.35.03.47-.04,2.11-1.11,4.35-.27,6.51-.39,2.18-.12,4.4.03,6.58.23,3.24.3,6.48.73,9.71,1.14,2.19.28,4.37.67,6.56.92,1.58.18,3.21.02,4.75.33,2,.4,3.88,1.22,5.78,2.02,1.87.78,4.02,1.09,6.07,1.19,3.23.16,6.48-.21,9.7-.02,2.03.12,3.86-.51,5.79-.75,1.04-.13,1.64-.69,1.82-1.63.59-3.05,1.09-6.12,1.65-9.17.37-1.99.77-3.98,1.17-5.96.1-.51.4-1.03.33-1.5-.34-2.43-.09-4.95-1.27-7.27-.59-1.15-.78-2.51-1.12-3.78-.09-.34-.17-.76-.04-1.06.24-.56.51-1.32.97-1.54.76-.35,1.45.15,1.85.9,1,1.86,2.09,3.68,2.99,5.59,1.58,3.36,3.01,6.78,4.58,10.14.67,1.44,1.58,2.77,2.33,4.17,1.65,3.06,3.26,6.13,4.9,9.19.49.92,1.25,1.43,2.29,1.76,5.92,1.86,12,1.66,18.07,1.43,3.67-.13,7.35-.29,11.02-.48,6.23-.31,12.45-.66,18.67-.97,1.49-.07,2.99-.04,4.48-.09.55-.02,1.1-.2,1.65-.19.63,0,1.37-.03,1.87.27.73.44,1.03.26,1.4-.38,1.75-3,3.4-6.07,5.33-8.95,2.26-3.37,4.79-6.57,7.19-9.86,1.52-2.09,3.01-4.2,4.52-6.3.29-.4.59-.79.93-1.24.83.7.91,1.4.78,2.26-1.37,8.96-2.74,17.93-3.13,27-.18,4.23-.34,8.46-.69,12.68-.17,2.09-.67,4.17-1.19,6.22-.87,3.44-1.47,7.03-2.93,10.21-1.9,4.16-4.39,8.07-6.88,11.93-3.87,5.96-8,11.75-11.91,17.68-.81,1.22-1.36,2.74-1.58,4.19-.62,3.92-2.15,7.35-4.29,10.69-1.42,2.22-3.28,3.87-5.19,5.53-4.56,3.96-9.8,5.07-15.63,3.52-1.81-.48-3.68-.75-5.5-1.17-2.32-.53-4.17-1.91-5.63-3.68-4.02-4.87-7.92-9.83-11.87-14.75-1.68-2.09-3.35-4.18-5.04-6.26-3.59-4.39-7.18-8.78-10.78-13.16-.44-.54-.93-1.03-1.39-1.55-.13.05-.26.1-.39.15.07.68.1,1.36.21,2.03.42,2.48,1.11,4.95,1.24,7.44.19,3.74.3,7.54-.15,11.24-.51,4.17-.55,8.26-.05,12.41.71,5.97,1.71,11.89,3.49,17.62,1.1,3.56,2.89,6.91,4.14,10.44,2.01,5.62,4.18,11.18,7.15,16.34,1.84,3.19,4.31,6.03,6.67,8.89,2.53,3.08,5.28,6,7.9,9.01,2.38,2.74,4.88,5.41,7.05,8.31,3.06,4.1,4.94,8.62,3.42,13.89-1.06,3.68-1.82,7.5-3.38,10.96-2.62,5.81-7.18,6.91-12.73,4.4-2.97-1.35-5.75-3.13-8.6-4.73-.38-.21-.75-.48-1.05-.79-2.31-2.44-4.74-4.78-6.86-7.38-2.59-3.18-5.87-5.51-9.03-8-.75-.59-1.59-1.07-2.35-1.66-3.3-2.53-6.54-5.12-9.87-7.61-4-2.98-7.71-6.28-10.69-10.27-1.49-1.99-2.56-4.33-3.55-6.63-3.33-7.73-5.32-15.89-7.54-23.97-1.6-5.82-3.39-11.58-4.93-17.41-1.35-5.1-2.45-10.26-3.69-15.38-.33-1.36-.71-2.71-1.15-4.04-.31-.95-2.17-1.37-2.87-.66-.41.42-.88.89-1.06,1.43-.7,2.16-1.48,4.32-1.89,6.54-.8,4.28-1.48,8.59-2.01,12.91-.91,7.51-1.56,15.05-.35,22.58.7,4.37,1.75,8.69,2.68,13.02,1.44,6.72,2.85,13.44,4.4,20.14,1.07,4.63,2.35,9.21,3.59,13.8.09.33.61.67,1,.79,1.42.45,1.7,1.09.68,2.07-.74.7-.8,1.41-.51,2.27,1.14,3.45,2.4,6.86,3.4,10.35.94,3.31,2.67,6.21,4.15,9.26,1.55,3.21,2.91,6.6,3.1,10.24.08,1.51-.18,3.1-.62,4.56-.59,1.98-1.38,3.92-2.29,5.78-.43.88-1.26,1.63-2.06,2.25-1.63,1.27-3.34,2.47-5.07,3.6-.78.51-1.68.87-2.56,1.19-1.76.65-3.54,1.23-5.31,1.84-.15.05-.31.18-.45.16-4.15-.58-8.5,1.15-12.51-1.41-2.23-1.43-4.8-2.33-7.18-3.52-.67-.34-1.23-.88-1.84-1.33-.26-.19-.47-.53-.74-.59-2.65-.56-3.64-2.93-5.1-4.73-1.48-1.82-2.88-3.74-4.07-5.75-1.93-3.26-3.84-6.56-5.44-9.99-1.26-2.7-2.01-5.63-3.01-8.45-.29-.82-.67-1.6-1.02-2.4-.06-.14-.18-.27-.21-.42-.82-3.52-1.76-7.02-2.42-10.57-.6-3.21-.99-6.46-1.28-9.71-.14-1.57.16-3.18.36-4.79.32,1.62.58,3.25.96,4.86.95,4.04,1.94,8.08,2.97,12.1.1.4.55.94.92,1.01,2.42.48,4.85.89,7.29,1.25,4.01.59,8.04.85,12.04-.09.63-.15,1.27-.44,1.81-.79.97-.64,2-.64,2.99-.02.35.22.89.3,1.3.23,1.89-.33,3.76-.74,5.64-1.11.89-.18,1.94-.34,2.23.73.27.99-.81,1.4-1.5,1.56-5.96,1.39-11.28,4.48-17.06,6.34-2.35.75-4.79,1.21-7.21,1.74-1.16.25-2.35.35-3.52.55-.91.16-1.47,1.19-1.16,2.09,1.56,4.56,3.61,8.88,6.31,12.89,1.56,2.31,3.18,4.58,4.76,6.87.55.8.92.65,1.38-.12,1.63-2.74,3.3-5.45,4.99-8.15.31-.5.74-.95,1.17-1.36,4.8-4.46,9.53-8.99,14.44-13.32,2.47-2.18,4.91-4.53,8.23-5.44.71-.2,1.46-.28,2.2-.37.7-.09.95-.28.7-1.09-.7-2.24-1.37-4.5-1.87-6.8-.27-1.26-.9-1.8-2.08-2.09-6.51-1.61-13.01-3.29-19.52-4.93-2.13-.54-4.27-1.01-6.38-1.61-.78-.22-1.54-.65-2.19-1.14-.63-.48-.48-1.11.25-1.39.58-.22,1.24-.36,1.86-.34,3.28.1,6.55.22,9.82.4,4.17.24,8.08-.81,11.94-2.2.74-.27,1.51-.47,2.4-.74-.08-.5-.15-1.03-.27-1.56-1.38-6.28-2.82-12.55-4.15-18.85-.91-4.3-1.68-8.63-2.48-12.95-.13-.7-.4-1.11-1.14-1.32-4.65-1.32-9.31-2.6-13.92-4.06-3.69-1.17-7.31-2.57-10.95-3.92-.62-.23-1.22-.63-1.68-1.09-.31-.31-.55-.92-.46-1.31.06-.26.77-.5,1.19-.51,1.08,0,2.15.17,3.23.18.81,0,1.61-.13,2.42-.21.81.24,1.68.65,2.58.75,4.02.45,8.06.81,12.03-.3,1.24-.35,2.39-1.05,3.57-1.59.14-.07.27-.26.4-.25,1.65.07,1.38-1.08,1.41-2.12.23-9.22,1.25-18.35,3.22-27.35.46-2.12,1.06-4.27,2.54-6.03.44-.53.57-1.31.87-1.96.53-1.2,1.18-1.49,2.4-1.26.38.07.85-.08,1.23-.25.66-.29,1.25-.72,1.92-.98.32-.12.73.02,1.11.05-.13.34-.18.76-.42,1-.61.62-1.3,1.16-2.02,1.79,3.37,3.11,3.16,7.41,4.11,11.29.96,3.92,1.85,7.86,2.75,11.79.18.81.46,1.08,1.44,1.08,1.74.01,3.46.53,5.21.67,3.35.27,6.72.69,10.05.53,3.41-.16,6.8-.83,10.17-1.45,2.39-.44,4.73-1.15,7.1-1.73.73-.18,1.56-.26,1.83.62.3.94-.53,1.22-1.21,1.47-2.59.94-5.38,1.52-7.74,2.85-4.09,2.3-8.82,2.68-12.95,4.77-1.17.59-2.41,1.11-3.66,1.48-1.9.56-3.84.99-5.77,1.44-1.16.27-1.31.94-.98,1.98.71,2.29,1.09,4.72,2.1,6.87,1.39,2.96,1.98,6.13,3.12,9.14.22.58,1.24,1.06,1.97,1.21,1.64.33,3.32.46,4.99.61,3.74.33,7.48.78,11.22.89,4.03.11,7.92-.84,11.69-2.28,1.04-.4,2.11-.75,3.17-1.1.26-.08.61-.18.82-.07.43.21.94.48,1.12.86.1.21-.32.9-.65,1.04-1.47.63-2.98,1.13-4.48,1.68-4.98,1.83-9.98,3.63-14.94,5.52-3.47,1.32-7.06,2.01-10.75,2.28-.19.01-.37.09-.68.16.12.47.14.93.35,1.28,1.34,2.21,2.46,4.63,4.14,6.55,4.1,4.69,9.12,8.36,14.35,11.72.77.49,1.46,1.11,2.19,1.67,3.43,2.63,6.93,5.15,10.24,7.92,1.82,1.52,3.31,3.45,4.96,5.18.87.92,1.75,1.84,2.72,2.85.23-.37.42-.57.5-.81,2.07-6.83,5.58-12.86,10.17-18.29,1.13-1.34,2.2-2.75,3.33-4.1.58-.7.71-1.31-.1-1.93-.19-.14-.38-.33-.48-.53-.87-1.8-2.45-1.64-4.01-1.45-5.35.65-10.7,1.35-16.06,1.95-.5.06-1.07-.46-1.61-.71.35-.46.61-1.06,1.07-1.35,2.28-1.47,4.58-2.91,6.93-4.27,1.81-1.06,3.69-2.01,5.56-2.97.64-.33.43-.64.11-1.02-.92-1.11-1.98-2.12-2.72-3.34-1.69-2.79-3.33-5.63-4.79-8.55-1.58-3.18-2.95-6.46-4.37-9.72-.34-.77-.69-1.16-1.63-1.24-3.09-.25-6.2-.51-9.26-1.03-2.46-.42-4.85-1.27-7.29-1.85-1.47-.35-2.99-.54-4.47-.85-.85-.18-1.99-.31-1.93-1.42.07-1.09,1.2-1.02,2.07-1.18.8-.15,1.56-.47,2.34-.72.19-.06.36-.21.54-.23,4.39-.38,8.39-2.12,12.49-3.55,1.8-.63,1.82-.64,1.47-2.43-.31-1.57-.7-3.12-1.05-4.67-1-4.5-1.45-9.07-1.51-13.67,0-.67-.31-.97-.96-.87-6.06.92-12.04-.06-18.02-.79-.55-.07-1.13.03-1.67-.07-.56-.11-1.12-.33-1.64-.57-.57-.26-1.13-.55-1.63-.91-.33-.23-.55-.6-.82-.91.39-.28.75-.76,1.17-.82,1.34-.19,2.72-.12,4.05-.36.95-.16,1.84-.64,2.76-.99.37-.14.73-.4,1.1-.41,3.3-.06,6.16-1.6,9.08-2.83,2.07-.87,3.99-2.13,5.94-3.28.23-.14.32-.67.33-1.03.12-5.93-.11-11.82-1.82-17.57-.36-1.22-.5-2.51-.72-3.77-.17-.96-.12-1.91.86-2.41.98-.5,1.85-.17,2.57.65,2.98,3.39,6.13,6.65,8.94,10.17,4.48,5.62,8.66,11.48,13.13,17.11,3.45,4.35,7.05,8.59,10.77,12.7,2.03,2.23,4.58,3.87,7.76,4.13.68.05,1.38.21,2.03.08,2.84-.57,5.86-.45,8.4-2.16,1.55-1.04,3-2.23,4.57-3.23,2.92-1.88,4.39-4.91,6.09-7.71.62-1.03.56-2.5.71-3.78.19-1.65.64-3.12,1.67-4.51,1.24-1.68,2.13-3.61,3.24-5.39.76-1.22,1.63-2.36,2.44-3.55,1.12-1.66,2.14-3.37,3.33-4.98,4.27-5.8,8.43-11.66,11.66-18.12,1.75-3.51,3.14-7.19,3.4-11.16.33-5.14.44-10.29.84-15.42.51-6.49,1.23-12.96,1.87-19.44.1-1.01.26-2.01.39-3.02-.1-.05-.21-.09-.31-.14-1.19,1.31-2.53,2.52-3.54,3.96-1.96,2.81-3.81,5.71-5.58,8.65-1.69,2.8-3.19,5.72-4.83,8.55-.64,1.1-1.92,1.51-2.87.78-1.08-.83-2.09-.56-3.14-.24-.75.23-1.3-.02-2.01-.23-1.08-.33-2.34-.33-3.48-.17-5.84.8-11.68,1.05-17.58.89-6.34-.17-12.69.09-19.03.18-4.1.06-8.13-.43-12.1-1.48-1.19-.32-2.15-.89-2.7-2-1.74-3.46-3.44-6.93-5.19-10.39-1.64-3.23-3.32-6.43-4.98-9.65-.16.1-.28.13-.28.17-.69,5.05-1.25,10.12-2.11,15.14-.4,2.32-.95,4.71-2.47,6.68-1.13,1.47-2.82,1.76-4.44,2.08-2.28.45-2.17.4-2.48,2.71-.6,4.39-1.4,8.76-2.01,13.15-.67,4.74-2.08,9.25-3.78,13.71-1.96,5.18-5.13,9.58-8.55,13.81-2.48,3.08-5.21,5.95-7.82,8.92-.5.57-.89,1.31-1.51,1.67-.58.34-1.47.49-2.09.3-.3-.1-.48-1.19-.39-1.79.1-.68.53-1.32.86-1.95,1.09-2.09,2.21-4.16,3.32-6.24.47-.88,1-1.73,1.45-2.62.7-1.39,1.44-2.77,2-4.21.88-2.28,2.38-4.2,3.17-6.58,2.65-7.99,4.26-16.14,4.74-24.53.07-1.25,0-2.55-.26-3.77-.12-.62-1.01-1.07-1.15-1.69-.24-1.06-.98-.87-1.64-.96-1.7-.24-3.41-.45-5.1-.72-.77-.12-1.15.06-1.13.89.11,7.63-2.63,14.59-5.22,21.55-1.94,5.2-4.24,10.27-6.44,15.37-.5,1.17-1.29,2.21-1.88,3.34-.51.98-.83,2.07-1.41,3-1.79,2.88-3.63,5.74-5.52,8.56-.57.85-1.28,1.65-2.07,2.29-.35.29-1.17.34-1.59.13-.61-.31-1.1-.9-.78-1.79.85-2.36,1.63-4.74,2.48-7.09.28-.78.57-1.66,1.13-2.22,1.66-1.64,2.08-3.81,2.77-5.86.96-2.84,2.08-5.65,2.74-8.56.65-2.86.9-5.82,1.15-8.75.53-6.04-.02-12.06-.44-18.08-.09-1.33-.37-2.59-1.42-3.58-.68-.64-.83-1.48-.51-2.43.51-1.55-.25-2.56-1.8-2.98-4.83-1.32-9.69-.35-14.54-.34-.88,0-1.12.34-1.08,1.35.1,2.74-.04,5.48-.12,8.23-.17,6.12-.33,12.23-.55,18.34-.32,8.7-.64,17.41-1.08,26.11-.24,4.79-.7,9.56-1.12,14.34-.14,1.54-.42,3.06-.74,4.57-.08.36-.59.63-.9.94-.29-.33-.68-.62-.85-1-.15-.34-.07-.79-.04-1.19.06-1.1.08-2.1-1.21-2.68-.4-.18-.68-1.08-.68-1.65-.04-5.75.03-11.51,0-17.26-.03-5.44-.17-10.86-1.19-16.24-.88-4.63-1.38-9.33-2.22-13.97-.84-4.62-1.87-9.21-2.9-13.8-.16-.7-.86-1.27-1.12-1.97-.24-.65-.23-1.39-.36-2.28-.72.03-1.58.02-2.44.13-2.22.29-4.43.65-6.65.96-.69.1-1.03.34-1.07,1.14-.13,3.07-.32,6.14-.53,9.2-.39,5.46-.88,10.92-1.2,16.39-.5,8.42-.89,16.85-1.31,25.28-.04.88.11,1.77.02,2.63-.05.43-.45.83-.69,1.25-.39-.27-1.03-.47-1.13-.83-.3-1.06-.47-2.18-.53-3.29-.13-2.19-.1-4.4-.24-6.59-.09-1.3-.3-2.61-.6-3.88-.49-2.12-.6-4.22-.5-6.41.11-2.38-.24-4.78-.45-7.16-.39-4.5-.7-9.01-1.28-13.49-.47-3.58-1.26-7.13-1.98-10.67-.26-1.27-.97-1.68-2.29-1.52-4.08.51-8.16,1.05-12.25,1.56-2.76.34-2.86.31-3.28,3.08-.38,2.52-.53,5.07-.75,7.61-.45,5.16-1.54,10.21-2.99,15.16-1.35,4.64-2.99,9.19-4.47,13.79-.55,1.71-1.09,3.43-1.51,5.18-.8,3.32-2.01,6.46-3.58,9.51-1.01,1.97-1.62,4.15-2.42,6.23-.27.71-.54,1.43-.93,2.08-.62,1.05-1.75,1.29-3.05.69-1.05-.48-1.09-1.34-.83-2.33.33-1.24,1.04-2.45.23-3.79-.13-.21,0-.64.13-.92,1.8-3.9,2.47-8.12,3.21-12.26,1.21-6.8,2.28-13.64,2.91-20.52.48-5.24.19-10.54.21-15.82,0-.66-.34-1.32-.37-1.99-.06-1.45-.02-2.9-.02-4.49-.25-.01-.59-.05-.92-.04-6.31.26-12.62.46-18.93.8-3.51.19-7,.61-10.5.91-1.02.09-1.44.69-1.07,1.54,1.67,3.84,1.53,7.9,1.5,11.93-.04,5.52-.23,11.03-.33,16.55-.02,1.29.09,2.58.12,3.87,0,.19-.05.38-.1.57-.37,1.33-.77,2.66-1.1,4-.07.27,0,.67.16.89.66.94.4,1.83-.25,2.52-1.2,1.29-1.51,2.86-1.72,4.5-.25,1.98-.56,3.96-.84,5.94-.02.12-.02.26-.08.35-1.93,2.56-1.43,5.7-2.02,8.57-.31,1.5-.62,1.96-2.25,2.01-1.41.05-2.66-.76-2.76-1.95-.08-1.03-.02-2.08.11-3.11.56-4.64,1.26-9.27,1.74-13.92.68-6.61-.32-13.17-.7-19.75-.24-4.07-.28-8.16-.7-12.21-.28-2.68-1.01-5.32-1.7-7.93-.24-.92-1.04-1.66-.78-2.78.04-.17-.68-.76-1.05-.76-3.32-.05-6.63-.08-9.95.02-4.07.13-8.15.35-12.21.61-4.83.32-9.64.73-14.47,1.11-.23.02-.45.09-.79.17.43,1.02.84,1.95,1.23,2.89,1.72,4.07,2.88,8.3,3.66,12.64.62,3.42,1.55,6.82,1.74,10.26.3,5.3.17,10.63.06,15.94-.17,7.64-.44,15.27-.78,22.9-.07,1.61-.59,3.2-.97,4.79-.28,1.16-.63,2.24-.11,3.49.26.62.17,1.81-.26,2.17-.58.49-1.73.74-2.43.5-.57-.2-1.15-1.24-1.2-1.95-.17-2.43-.16-4.88-.12-7.31.12-6.86-.87-13.61-2.03-20.35-.72-4.21-1.08-8.49-1.83-12.7-.46-2.54-1.41-4.98-2.07-7.49-.47-1.81-.85-3.66-1.23-5.5-.76-3.74-1.97-7.3-3.95-10.6-.55-.91-.66-2.09-1.26-2.95-.73-1.05-1.75-1.9-2.68-2.82-.09-.09-.41-.07-.56.02-1.85,1.02-3.69,2.06-5.53,3.11-.15.08-.23.28-.58.72.68-.13,1.09-.33,1.38-.23.65.23,1.56.47,1.81.97.4.83-.19,1.56-1.13,1.72-.86.15-.98.62-.7,1.28,1.16,2.83,1.23,5.82,1.51,8.8.12,1.23.98,2.42,1.6,3.57.74,1.37,1.62,2.67,2.36,4.04.28.5.59,1.2.45,1.66-.16.52-.78,1.1-1.31,1.24-.66.17-1.15-.32-1.23-1.12-.05-.5-.25-1-.48-1.45-.79-1.52-1.54-3.09-2.47-4.52-1.51-2.32-1.8-4.9-1.92-7.56-.03-.71-.08-1.46-.33-2.12-.66-1.75-1.15-3.49-.63-5.51-.49.28-1.04.5-1.47.86-3.05,2.57-5.37,5.57-5.72,9.75-.11,1.27-.46,2.51-.64,3.78-.05.36,0,.81.17,1.13,1.37,2.46,3.12,4.76,4.1,7.36,1.49,3.95,2.44,8.1,3.63,12.16.67,2.3,1.36,4.6,2.02,6.9.26.91.54,1.83.67,2.77.05.4-.17.98-.47,1.22-.2.16-.89,0-1.14-.23-.63-.6-1.14-1.32-1.68-2.01-2.24-2.85-4.49-5.7-6.71-8.57-1-1.29-1.88-2.68-2.89-3.96-.46-.59-1.11-1.03-1.88-1.73-.24.78-.43,1.2-.51,1.65-1.36,7.82-3.7,15.39-5.87,22.99-1.25,4.37-2.95,8.62-4.26,12.98-1.59,5.28-2.95,10.63-4.49,15.92-1.35,4.68-2.76,9.34-4.23,13.98-.64,2.01-1.48,3.95-2.25,5.91-.51,1.29-.3,2.76.71,3.68,2.69,2.44,4.65,5.34,5.75,8.83,1.5-.99,3.2-.02,3.39,1.97.11,1.13.02,2.34-.27,3.44-.49,1.84-2.57,2.05-4.04.92-3.05-2.36-6.15-4.79-10.34-4.66-.32,0-.81.32-.92.61-2.97,7.76-5.9,15.53-8.84,23.31-.3.79-.58,1.58-.87,2.37-.63,1.74-.71,1.88.88,2.75,1.55.85,2.46,2.21,3.44,3.54,1.38,1.85,2.75,3.71,4.25,5.74.38-.42.78-.73,1.02-1.14,2.33-4.14,4.52-8.37,6.97-12.44,3.27-5.44,5.43-11.37,7.8-17.2,1.76-4.34,3.22-8.81,4.74-13.25.91-2.68.92-5.29-.98-7.66-.82-1.03-1.58-2.12-2.23-3.26-.25-.44-.37-1.24-.14-1.61.22-.35,1-.53,1.52-.49,1.47.1,2.94.32,4.4.55.75.12,1.02-.25,1.17-.86.55-2.13,1.06-4.27,1.66-6.38.38-1.33.71-2.74,1.41-3.91,2.06-3.43,2.82-7.29,3.96-11.02,1.16-3.82,2.11-7.7,3.34-11.49.72-2.22,1.81-4.29,1.97-6.71.08-1.28.7-2.53,1.08-3.79.46-1.52.65-3.03.19-4.59-.36-1.23.26-1.95,1.58-1.96,1.96,0,2.09.12,1.87,2.16-.14,1.39-.31,2.78-.55,4.15-.46,2.6-.18,5.15.32,7.72.25,1.31.1,2.71.02,4.06-.15,2.74-.42,5.48-.56,8.22-.08,1.71-.02,3.42-.02,5.12,2.73.27,5.47.44,8.18.82,6.01.85,12.03,1.67,17.87,3.46.75.23,1.21.65,1.03,1.48-.18.8-.77,1.06-1.55.97-.12-.01-.24-.02-.36-.05-5.15-1.63-10.47-1.07-15.71-1-2.82.04-5.65.98-8.41,1.74-1.94.54-2.19,1.25-2.23,3.28-.15,6.75-.38,13.5-.5,20.25-.05,2.59-.29,5.28.3,7.74.81,3.35.9,6.77,1.67,10.1.23.99.25,2.08.13,3.1-.26,2.29.08,4.44.56,6.71.95,4.46,2.41,8.87,2.16,13.55-.13,2.41.89,4.53,2.45,6.33.25.29,1.15.34,1.56.13,1.77-.92,3.48-1.95,5.2-2.98,3.22-1.94,6.42-3.9,9.62-5.86.65-.4,1.27-.83,1.9-1.25.79-.53,1.61-.7,2.2.21.59.91-.23,1.41-.8,1.85-.97.76-2.13,1.32-3.02,2.16-3.4,3.21-6.78,6.43-9.24,10.49-.48.8-1.26,1.44-1.97,2.08-.71.64-.82,1.29-.42,2.13,1.16,2.41,2.3,4.84,3.45,7.26,1.22,2.56,2.41,5.13,3.7,7.65.71,1.38,1.6,2.67,2.42,4,.44.72.9.64,1.69.34,1.88-.72,3.6-1.64,5.14-2.94,1.37-1.15,3.19-1.99,4.09-3.42,1.7-2.7,4.41-4.7,5.38-7.85.16-.5.05-1.2-.19-1.69-2.39-4.91-4.15-10.03-5.37-15.34-.37-1.59-.47-3.24-.87-4.82-.55-2.17-1.56-4.26-1.82-6.44-.42-3.47-.74-7.03-.47-10.49.41-5.16,1.39-10.28,2.11-15.42.1-.69.13-1.39.22-2.35-1.03.29-1.78.49-2.53.71-4.42,1.36-8.53,3.37-12.41,5.87-.17.11-.34.27-.52.28-.62.04-1.47.27-1.81-.04-.63-.58-.16-1.32.36-1.88,1.92-2.06,3.85-4.11,5.75-6.19.33-.37.51-.87.8-1.28.27-.38.53-.79.89-1.08,2.52-2.02,5.05-4.04,7.62-5.99,1.33-1.01,2.81-1.82,4.14-2.83.51-.39,1-1.02,1.15-1.63.67-2.71.97-5.54,1.88-8.16,1.22-3.53,2.95-6.89,4.31-10.38.87-2.22,1.47-4.55,2.17-6.84.2-.65.32-1.33.55-1.96.31-.84.9-1.38,1.84-1.02.88.33,1.26.91.92,1.98-.86,2.7-1.47,5.48-2.38,8.16-.63,1.83-1.72,3.51-2.4,5.33-1.19,3.16-2.37,6.35-3.28,9.6-.91,3.26-1.48,6.61-2.19,9.92-.44,2.07-.88,4.14-1.23,6.22-.04.26.41.76.74.89,2.9,1.22,5.83,2.37,8.73,3.58.53.22,1.25.57,1.41,1.03.46,1.31,1.56,1.61,2.61,2.08.73.32,1.53.56,2.16,1.03.44.33,1.03,1.16.89,1.45-.26.54-.95,1.04-1.55,1.19-.7.17-1.51-.13-2.26-.09-2.98.18-5.98.26-8.93.69-1.26.18-2.42,1.12-3.6,1.75-.76.41-1.5.87-2.21,1.36-.29.2-.65.54-.67.84-.35,4.86-.96,9.79.45,14.54.91,3.07,2.23,6.06,3.72,8.89,1.95,3.7,4.13,7.31,6.47,10.79,1.39,2.07,3.2,3.88,4.96,5.67,2.24,2.27,4.65,4.39,6.95,6.61.6.58,1,.71,1.48-.1.22-.37.55-.72.91-.94,3.71-2.34,5.79-6.03,7.85-9.67,1.08-1.92,1.66-4.12,2.49-6.19.13-.32.32-.73.6-.84,1.14-.46.77-1.03.36-1.85-2.06-4.1-4.04-8.24-6.04-12.37-.56-1.15-1.08-2.32-1.62-3.48-.3-.66-.65-.85-1.4-.47-5.68,2.87-10.5,6.84-14.72,11.56-.43.48-.79,1.06-1.32,1.38-.51.32-1.19.37-1.8.54-.1-.59-.44-1.26-.27-1.75.56-1.58,1.33-3.08,1.98-4.62,2.26-5.42,6.09-9.73,9.86-14.07.99-1.14,2.04-2.24,3.01-3.4.17-.2.16-.65.08-.93-.73-2.36-1.54-4.71-2.24-7.08-.22-.75-.36-1.59-.29-2.36.6-5.94,2.37-11.48,5.77-16.44.19-.27.44-.49.66-.74.12.06.24.11.37.17-1.02,3.57-2.03,7.14-3.06,10.71-1.13,3.93-1.79,7.82-.22,11.85,1.21,3.08,1.85,6.4,3.16,9.43,2.91,6.73,6.07,13.34,9.13,20,1.76,1.21,2.12,3.31,3.04,5.01,1.68,3.12,3.06,6.41,4.51,9.66,1.01,2.26,2.1,4.51,2.86,6.86.81,2.53,1.41,5.15,1.84,7.77.47,2.85-.87,5.31-2.34,7.62-.44.69-1.36,1.07-2.03,1.63-.53.44-.97,1-1.52,1.4-.27.2-.88.37-1.04.22-4.38-3.91-9.59-6.57-14.46-9.75-1.29-.85-2.47-1.9-3.59-2.98-3.37-3.24-6.61-6.61-10.02-9.8-3.56-3.33-6.75-6.92-9.16-11.18-.28-.5-.68-.93-1.03-1.4l-.31.16ZM258.98,207.47c-.79.31-1.56.46-2.17.86-2.85,1.9-5.77,3.72-8.43,5.86-2.55,2.05-4.81,4.45-7.19,6.7-1.8,1.7-3.59,3.41-5.36,5.14-2.54,2.47-4.14,5.49-5.39,8.8-.89,2.36-1.1,2.28,1.09,3.59.14.08.27.17.41.24,2.52,1.28,5.03,2.57,7.55,3.85.74.37,1.04.05,1-.72-.12-2.35-.25-4.71-.35-7.06-.02-.52-.09-1.09.1-1.54.18-.41.63-.88,1.03-.97.31-.07.88.33,1.09.68,1.29,2.07,2.56,4.15,3.73,6.28.65,1.18,1.22,2.44,1.61,3.72.3.98.76,1.1,1.57.77.37-.15.83-.21,1.09-.47.28-.28.59-.8.52-1.13-.29-1.24-.76-2.44-1.11-3.66-.76-2.65-1.51-5.3-2.24-7.96-.21-.75-.09-1.46.68-1.86.79-.41,1.14.21,1.56.7,1.54,1.78,3.09,3.56,4.64,5.33,1.05,1.2,2.09,2.41,3.18,3.58.24.26.69.53.99.48,1.25-.21,1.98-1.65,1.53-2.8-1.82-4.69-3.61-9.39-5.42-14.08-.32-.83-.15-1.55.6-1.97.82-.46,1.17.28,1.61.8,2.24,2.6,4.48,5.2,6.79,7.74.5.55,1.28.86,1.93,1.27.11-.74.21-1.48.32-2.22,0-.04,0-.08,0-.12.06-3.6-1.11-6.89-2.61-10.06-1.38-2.91-3.34-5.56-3.96-8.82-.06-.33-.27-.63-.43-.98ZM329.64,177.35c-.58,1.04-1.26,1.77-2.5,1.28-.13-.05-.43.19-.58.37-2.83,3.25-5.81,6.41-7.63,10.39-1.51,3.29-3.27,6.48-3.98,10.11-.21,1.05-.62,1.79.58,2.45,3.07,1.69,6.1,3.49,9.18,5.17.68.37,1.51.51,2.29.64.96.16,1.24-.21.95-1.18-.34-1.19-.73-2.36-1.11-3.54-.42-1.29-.86-2.57-1.28-3.86-.25-.75-.17-1.43.56-1.89.73-.46,1.19.02,1.64.5.55.58,1.09,1.17,1.68,1.71,1.49,1.37,3.01,2.71,4.63,4.16.26-.63,1.04-1.59.87-2.33-.35-1.51.16-3.07-.33-4.45-.7-1.98-1.84-3.8-2.65-5.76-.68-1.65-1.2-3.37-1.67-5.1-.1-.38.21-1.03.54-1.31.25-.21.91-.14,1.25.04,1.16.62,2.27,1.34,3.39,2.03.44.27.86.58,1.29.86.1-.11.21-.21.31-.32-1.68-3.84-4.3-7-7.45-9.98ZM133.06,236.76c-.23-.27-.46-.54-.7-.8-1.16-1.32-2.33-2.63-3.48-3.96-.59-.68-.57-1.43.05-2.04.67-.66,1.2-.15,1.74.33,1.99,1.77,3.98,3.55,6.03,5.27.79.66,1.66,1.31,2.61,1.69,3.04,1.2,2.31,1.84,3.96-1.37.33-.64.33-1.06-.33-1.5-1.48-1-2.85-2.15-4.37-3.08-2.15-1.32-3.2-3.53-4.49-5.49-.98-1.49-.23-2.47,1.52-2.3.72.07,1.47.46,2.09.88,1.18.8,2.27,1.72,3.39,2.6-.46-1.8-1.07-3.35-1.71-4.9-1.31-3.18-2.6-6.36-3.96-9.51-.31-.72-.85-1.34-1.33-2.08-.27.31-.38.38-.42.48-2.69,6.57-6.5,12.36-11.94,16.98-.8.68-.66,1.06-.01,1.69,3.26,3.17,7.3,5.11,11.34,7.13ZM2.29,236.81c.14.07.27.14.41.21.22-.14.48-.25.65-.44,1.28-1.43,2.72-2.76,3.76-4.35,2.59-3.93,5.01-7.98,7.44-12.01.23-.39.22-1.11.03-1.55-.82-1.86-1.79-3.66-2.62-5.51-.22-.48-.13-1.1-.18-1.65.55-.02,1.16-.2,1.65-.04,1.52.49,3.01,1.08,4.48,1.69.63.26,1.03.18,1.4-.4.9-1.42,1.8-2.83,2.76-4.2.62-.87.33-1.23-.58-1.51-3.29-1.04-6.56-2.12-9.92-3.22-.03.06-.16.26-.23.48-.81,2.76-1.68,5.5-2.4,8.28-1.1,4.21-1.84,8.51-3.77,12.47-.39.81-.9,1.75-.2,2.79.23.34.1,1.03-.05,1.51-.44,1.36-.98,2.68-1.46,4.02-.41,1.14-.79,2.28-1.18,3.43ZM256.68,240.69c-1.94-2.15-3.64-4.03-5.34-5.92-.1.06-.21.13-.31.19.59,2.12,1.17,4.25,1.81,6.36.06.21.53.51.72.45,1-.29,1.97-.67,3.13-1.09ZM259.51,227.52c-.13.07-.25.15-.38.22,1.14,2.61,2.27,5.22,3.41,7.83.77-1.02,1.25-2.01,1.63-3.03.09-.24-.11-.69-.31-.9-1.21-1.25-2.47-2.45-3.72-3.66-.18-.18-.42-.3-.63-.45ZM336.41,195.58h.57c.21-1.31.96-2.87.51-3.9-.68-1.53-2.19-2.71-3.87-3.36-.11.07-.22.15-.32.22,1.04,2.35,2.08,4.69,3.12,7.04ZM242.34,238.03c0,1.4-.08,2.8.02,4.18.1,1.24,1.99,2.27,3.14,1.78.19-.08.39-.54.32-.74-.65-2.02-1.97-3.63-3.49-5.22ZM329.74,203.03c-.15.09-.31.19-.46.28.32,1.09.59,2.2,1.01,3.25.09.24.9.48,1.06.34.35-.3.81-1.06.67-1.24-.67-.94-1.5-1.76-2.28-2.63Z"/>
  <path d="M204.67,172.52c-.21-7.9-.42-15.99-.65-24.07-.16-5.39-.41-10.78-.49-16.18-.05-3.03.17-6.07.28-9.11.05-1.38-.16-1.77-1.53-1.56-3.49.53-6.94-.12-10.41-.11-3.11,0-6.23.22-9.34.13-2.42-.07-4.88-.25-7.24-.75-4.68-1-9.35-2.08-13.92-3.48-2.92-.89-5.66-2.39-8.44-3.69-.72-.34-1.12-.31-1.61.33-3.46,4.54-6.95,9.05-10.41,13.58-.36.47-.54,1.07-.87,1.57-.75,1.12-1.45,2.3-2.34,3.3-1.57,1.77-3.27,3.44-5.09,5.09.14-.42.19-.88.42-1.24,1.24-1.95,2.52-3.87,3.79-5.8.26-.4.6-.76.81-1.18,2.56-5.22,6.21-9.73,9.5-14.47.66-.95,1.34-1.89,1.93-2.88.13-.22.03-.8-.16-.95-1.04-.8-2.14-1.53-3.23-2.27-.16-.11-.43-.16-.5-.31-.25-.53-.44-1.08-.65-1.63.58-.06,1.28-.36,1.71-.14,1.23.64,2.37,1.47,3.51,2.29.83.6,1.49.76,2.28-.12.27-.31,1.22-.51,1.39-.32.4.44.81,1.21.68,1.7-.2.74,0,1.02.56,1.31,5.19,2.74,10.62,4.8,16.38,5.98.67.14,1-.09,1.1-.72.07-.43.13-.87.16-1.31.36-6.55,1.8-12.93,3.8-19.12,1.71-5.31,4.06-10.41,6.12-15.6.44-1.11.9-2.22,1.28-3.35.37-1.08,1.15-1.74,1.87-1.39,1.01.48.9,1.35.54,2.16-.89,2.01-1.78,4.02-2.76,5.99-1.48,2.96-1.63,6.25-2.4,9.38-1.94,7.88-1.88,15.93-1.97,23.97-.02,1.53.08,1.62,1.65,1.6,3.32-.04,6.63-.17,9.95-.19,2.44-.02,4.88.11,7.32.1,1.67,0,3.35-.09,5.02-.23.98-.08,1.08-.96.95-1.64-.43-2.23-.97-4.43-1.49-6.64-.12-.5-.45-.99-.44-1.48.01-.48.34-.96.52-1.44.49.23,1.27.35,1.43.72.69,1.6,1.31,3.26,1.74,4.95.37,1.46.41,3.01.71,4.49.08.39.56.87.96.99,4.88,1.54,9.86,1.97,14.93,1.26,4.16-.59,8.31-1.22,12.27-2.73.5-.19,1.13-.31,1.63-.19.44.1,1.01.53,1.1.91.07.3-.43.95-.82,1.09-1.34.51-2.73.88-4.11,1.29-4.19,1.28-8.34,2.69-12.57,3.78-2.69.7-5.51.92-8.26,1.39-.66.11-1.29.37-1.94.47-.77.13-1.6.35-2.33.19-.98-.21-1.24.13-1.27.98-.09,2.72-.31,5.43-.27,8.15.11,7.11.33,14.22.49,21.33.04,1.6-.03,3.2.03,4.8.02.38.32.99.61,1.08,3.22.93,6.46,1.76,9.69,2.64,3.96,1.08,8.01,1.07,12.03.74,3.3-.27,6.57-.82,9.85-1.3.74-.11,1.45-.46,2.18-.63.62-.15,1.28-.33,1.88-.25.43.06.96.47,1.15.87.1.22-.32.86-.66,1.08-.79.53-1.67.93-2.52,1.37-.99.51-1.97,1.02-2.97,1.51-.35.17-.74.32-1.12.39-6.06,1.07-12.11,2.14-18.18,3.16-3.47.58-6.95,1.06-10.48.24-.75-.17-1.59.06-2.74.13Z"/>
  <path d="M341.44,106.54c-2.87.14-5.89-.92-8.86-2.07-2.55-.98-3.75-3.25-4.51-5.73-.19-.64-.46-.93-1.08-1.23-.59-.29-1.16-1.01-1.3-1.64-.08-.34.73-.93,1.21-1.32.6-.51,1.28-.92,1.9-1.41.94-.73,1.81-1.56,2.8-2.2,2.23-1.44,4.54-2.76,6.78-4.18,1.67-1.07,3.44-1.05,5.18-.43.87.31,1.38.15,1.86-.47,1.98-2.52,4.65-3.97,7.65-4.88,1.62-.49,3.26-.57,4.94,0,1.24.43,2.57.56,3.84.89,1.25.33,1.54,1.17.85,2.27-1.69,2.66-3.4,5.3-5.08,7.97-.46.74-.88,1.52-1.22,2.33-1.21,2.92-3.1,5.27-5.67,7.11-1.59,1.14-3.09,2.41-4.67,3.56-1.24.9-2.6,1.57-4.62,1.41Z"/>
  <path d="M349.12,58.98c-.09.45-.12.86-.25,1.23-.33.88.64,4.46,1.47,4.88.39.19.99.06,1.45-.06.32-.08.57-.42.87-.62.63-.42,1.23-.55,1.79.15.56.69.39,1.47-.25,1.75-1.35.61-2.79,1.18-4.24,1.36-.63.08-1.66-.7-2.03-1.36-1.54-2.74-2.12-5.75-1.87-8.89.03-.35.29-.76.56-1.01,2.13-2,4.39-3.85,7.04-5.11,1.32-.63,2.79-.94,4.22-1.29,3.64-.89,7.38-1.29,11.04-.59,2.21.42,4.28,1.61,6.37,2.58.81.38.82,1.13.56,2.05-.79,2.81-3.08,3.98-5.37,5.09-4.15,2.01-8.46,2.31-12.93,1.04-1.6-.45-3.3-.55-4.96-.79-1.18-.17-2.36-.29-3.46-.42ZM363.25,58.22s0-.09.01-.14c.48,0,.96.02,1.43,0,1.88-.09,2.48-1.09,1.55-2.77-.32-.57-.81-1.11-1.36-1.46-1.73-1.13-5.07-.81-6.48.68-.45.48-.84,1.41-.68,1.97.16.56.99,1.15,1.63,1.3,1.26.3,2.59.3,3.9.42ZM368.93,56.73c.13.08.25.16.38.24,1.17-.86,2.36-1.68,3.48-2.59.4-.33.66-.9-.12-1.22-1.14-.47-2.27-1.01-3.45-1.36-.79-.23-1.67-.16-2.51-.23-.04.09-.09.18-.13.28,1.57,1.25,2.35,2.87,2.35,4.88ZM350.18,55.85c.01.18.02.36.03.54,1.5.23,2.99.57,4.49.58.28,0,.56-1.31.87-2.01.19-.44.41-.87.69-1.26.33-.46.74-.86,1.3-1.5-3.1.48-5.24,2.06-7.38,3.65Z"/>
  <path d="M313.23,63.95c-2.41-.28-4.83-.52-7.24-.85-.53-.07-1.33-.41-1.43-.79-.14-.49.13-1.31.52-1.68,2.26-2.19,4.5-4.43,6.96-6.39,4.23-3.37,9.29-3.77,14.45-3.45,2.01.13,4.06.2,5.85,1.43,2.12,1.45,2.13,2.62.66,3.87-1.4,1.18-2.64,2.69-4.23,3.48-4.86,2.42-9.89,4.45-15.53,4.38ZM322.44,53.03c-2.08.29-4.04-.13-4.67,2.2-.09.34-.52.59-.78.89-.79.92-.71,2.91.15,3.77.91.9,3.55.88,4.4-.05.34-.38.63-.81.96-1.2.6-.73,1.33-1.38,1.81-2.18.64-1.07-.36-1.76-.87-2.5-.3-.44-.79-.75-1-.93ZM315.23,61.22c-1.83-2.13-1.69-4.11-.23-6.15-2.66,1.56-4.86,3.52-6.87,5.76,2.3.76,4.48.89,7.1.39ZM326.5,57.85c.11.11.23.22.34.33,1.05-.81,2.12-1.58,3.13-2.44.83-.71.71-1.67-.32-2.04-1.01-.36-2.12-.44-3.56-.72,1.27,1.8.93,3.33.42,4.86Z"/>
  <path d="M130.19,139.4c-1.99,2.94-3.88,5.72-5.9,8.71-.58-.44-1.38-.88-1.97-1.53-1.1-1.21-2.34-2.08-3.92-2.61-.98-.33-1.84-1.06-2.72-1.68-1.26-.89-2.45-1.87-3.72-2.74-.88-.61-1.6-1.16-1.6-2.43,0-1.21.57-1.48,1.54-1.39,4.56.43,9.13.83,13.68,1.37,1.11.13,2.19.68,3.22,1.17.58.27,1.03.82,1.4,1.13Z"/>
  <path d="M343.03,66.2c-.15,4.26-.51,7.61-2.48,10.58-.25.38-.23.95-.33,1.43.52.08,1.06.28,1.57.21,1.5-.2,2.99-.48,4.48-.79,1.59-.33,3.19-.67,4.75-1.11,1.04-.3,1.79-.96,2.05-2.13.13-.6.45-1.23.87-1.66.29-.29,1.01-.46,1.36-.29.34.16.64.81.62,1.24-.12,2.49-1.45,4.09-3.76,5.02-2.52,1.01-5.16,1.34-7.81,1.7-1.34.18-2.67.51-3.97.88-1.56.45-2.52-.05-2.93-1.63-.4-1.57.1-2.99.94-4.21,1.94-2.81,1.78-5.99,1.77-9.12,0-1.36-.53-2.71-.8-4.07-.12-.59-.38-1.24-.22-1.75.16-.5.74-1.14,1.2-1.19.46-.06,1.36.43,1.46.83.56,2.27.94,4.58,1.23,6.08Z"/>
  <path d="M386.19,25.13c-.41,1.75-.86,3.25-1.11,4.78-.34,2.13-.51,4.28-.76,6.43-.26,2.21-1.87,3.04-3.83,2.04-.95-.49-1.97-.86-2.99-1.17-1.11-.33-1.56-.88-1.3-2.02.12-.53.37-1.07.68-1.51,1.48-2.08,3-4.13,4.5-6.19.75-1.03,1.42-2.14,2.28-3.07.35-.38,1.15-.64,1.64-.51.39.1.62.85.88,1.23Z"/>
  <path d="M304.17,40.37c-1.39.06-1.76-.47-1.6-2.07.27-2.9.46-5.81.6-8.72.03-.69-.34-1.38-.47-2.08-.1-.54-.36-1.23-.14-1.61.39-.65,1.03-1.42,1.7-1.58.88-.2,1.08.75,1.31,1.52.9,2.98,1.87,5.94,2.81,8.91.06.19.11.38.17.58.9,3.13-.33,4.87-3.59,5.05-.2.01-.4,0-.78,0Z"/>
  <path d="M50.56,109.42c.25.1.61.13.73.31.2.33.47.86.34,1.11-.55,1.05-3.46,2.29-4.64,2.06-.34-.06-.71-.19-.99-.39-.18-.13-.29-.44-.32-.69,0-.08.35-.24.56-.28.52-.11,1.06-.18,1.87-.31-1.08-.88-.77-1.52-.17-2.22,1.15-1.34,1.82-2.84,1.57-4.7-.12-.89.24-1.53,1.45-1.17,1.26.37,3.81-1.45,3.9-2.74.02-.33-.41-.67-.59-1.03-.14-.29-.32-.65-.26-.92.04-.18.53-.39.77-.34,1.11.2,2.35,2.17,2.03,3.2-.39,1.25-1.26,2.1-2.42,2.67-.14.07-.3.12-.45.16-1.34.39-2.31.91-2.24,2.66.04.83-.72,1.7-1.15,2.63Z"/>
  <path d="M230.97,126.45c-.02.82-.95,1.69-1.96,1.78-.95.09-1.91.14-2.87.15-2.62.03-5.02.85-7.36,1.93-1.79.83-2.89,2.19-3.37,4.1-.11.45-.28.94-.57,1.29-.52.63-1.21.79-1.89.2-.6-.52-.51-1.02-.16-1.77,1.85-4.09,5.34-6.01,9.37-7.17,1.48-.43,3.07-.45,4.6-.74.87-.17,1.73-.44,2.54-.77.86-.35,1.7.1,1.68,1Z"/>
  <path d="M221.07,61.01c-.2.23-.51.85-1,1.12-2.51,1.33-2.7,3.57-2.42,5.96.14,1.22.56,2.41.77,3.63.35,2.04-.61,3.63-2.29,3.81-.35.04-.72-.17-1.08-.27.14-.34.18-.8.44-1,.98-.77.98-1.68.74-2.79-.2-.92-.19-1.89-.22-2.84-.04-1.07.03-2.15-.05-3.22-.19-2.51,1.28-5.03,3.57-5.99.82-.35,1.56.23,1.54,1.6Z"/>
  <path d="M226.33,176.48c.46-.17.84-.31,1.22-.46,3.38-1.31,6.79-2.57,10.13-3.98.8-.34,1.37-1.18,2.07-1.76.22-.19.66-.44.78-.36.25.18.54.63.47.85-.3.84-.68,1.67-1.14,2.44-.18.32-.59.57-.94.71-3.25,1.32-6.33,3.1-9.88,3.54-.98.12-2,.3-2.71-.98Z"/>
  <path d="M47.51,120.88c-.59.35-1.06.79-1.61.91-.4.09-.88-.26-1.33-.41.17-.35.27-.77.53-1.04.64-.69,1.39-1.28,2.03-1.97.53-.57.99-1.55,1.86-.97.35.23.14,1.3.02,2,1.52,1.44,1.02,3.31.6,5-.31,1.25-1.56,1.7-2.84,1.81-.54.05-1.08.23-1.62.24-.32,0-.64-.19-.97-.3.19-.38.33-.81.6-1.12.14-.16.54-.05.8-.13,1.08-.33,1.84-.93,1.82-2.19-.01-.58.06-1.16.1-1.83Z"/>
  <path d="M318.55,41.21c-.35.1-.83.4-1.04.27-2.33-1.43-4.45-.35-6.63.42-.81.28-1.72.37-2.59.38-.39,0-.79-.4-1.18-.61.23-.39.43-.81.7-1.17.1-.14.34-.18.53-.25,1.69-.6,3.38-1.17,5.07-1.79,1.67-.61,4.34.52,4.99,2.16.04.11.06.23.15.59Z"/>
  <path d="M268.48,62.19c.43-1.89.82-3.51,1.15-5.15.22-1.05.37-2.12.51-3.19.11-.87.49-1.51,1.43-1.4.95.11,1.25.87,1.04,1.7-.69,2.75-1.41,5.49-2.21,8.21-.13.45-.74.75-1.13,1.12-.29-.47-.57-.93-.79-1.29Z"/>
  <path d="M359.37,44.25c-.2.19-.51.64-.94.87-1.51.81-3.1,1.49-4.59,2.32-.79.44-1.43,1.15-2.21,1.62-.38.23-.91.21-1.38.31-.05-.51-.35-1.24-.12-1.49.83-.89,1.76-1.73,2.79-2.37,1.52-.94,3.16-1.69,4.75-2.52,1-.52,1.72-.13,1.7,1.26Z"/>
  <path d="M341.65,44.31c.02.1.01.34.1.53.27.56.6,1.18-.17,1.53-.79.37-1.53.07-1.95-.67-.43-.74-.81-1.53-1.04-2.34-.1-.36.1-.96.38-1.23.21-.21.84-.23,1.13-.07.53.29.95.78,1.54,1.3.78-1.98,2.52-2.38,4.33-2.6.65-.08,1.54-.22,1.64.67.04.33-.74.84-1.23,1.12-.89.5-1.82.94-2.77,1.31-.59.23-1.25.28-1.96.44Z"/>
  <path d="M292.5,165.59c-.88-.01-1.3-.76-.86-1.54.25-.44.62-.9,1.05-1.13,1.66-.87,3.35-1.67,5.05-2.44.38-.17.87-.23,1.29-.17.77.1,1,.59.63,1.29-.07.14-.18.28-.31.36-2.03,1.39-3.92,3.04-6.43,3.54-.16.03-.31.06-.42.08Z"/>
  <path d="M157.34,65.36c-.02.08-.04.28-.11.46-.82,2.07-1.62,4.14-2.5,6.18-.15.34-.66.53-1,.79-.15-.41-.5-.86-.42-1.23.48-2.21,1.08-4.39,1.58-6.59.07-.33-.2-.75-.32-1.12-.09-.28-.2-.55-.3-.82.32-.1.64-.3.95-.28,1.11.08,2.14,1.32,2.13,2.6Z"/>
  <path d="M194.69,99.51c-.49.95-.8,1.94-1.43,2.63-.77.84-1.79,1.44-2.75,2.08-.24.16-.84.2-.95.05-.19-.26-.3-.8-.15-1.05.36-.6.8-1.22,1.36-1.63,1.76-1.27,2.22-2.17,1.2-4.89-.24-.64-.22-1.36-.33-2.05.57.44,1.33.77,1.65,1.35.59,1.05.91,2.25,1.39,3.51Z"/>
  <path d="M35.12,178.15c-.39.18-.85.28-1.16.55-1.45,1.28-3.98,1.44-5.52.27-.28-.21-.57-.5-.67-.81-.1-.3-.07-.77.12-.99.14-.16.62-.08.94-.02.57.12,1.13.41,1.7.45.94.07,1.58-.25,1.64-1.41.02-.43.51-1.04.92-1.19.29-.11.89.33,1.22.66.43.43.8.96,1.07,1.51.16.31.08.73.1,1.1-.12-.04-.24-.08-.36-.12Z"/>
  <path d="M365.03,46.52c-.12.9-.92.79-1.88.65-.7-.11-1.45.15-2.18.16-.53,0-1.06-.14-1.59-.21.18-.56.24-1.23.58-1.66.32-.39.94-.6,1.47-.76,1.18-.36,2.37-.77,3.59-.92.65-.08,1.42.26,2.01.61.2.12.21,1.09-.02,1.28-.47.39-1.16.53-1.99.86Z"/>
  <path d="M362.04,69.83c-.44-.13-1.08-.31-1.72-.51-.9-.28-1.78-.61-2.69-.86-.71-.2-1.32-.45-1.24-1.32.08-.83.68-1.22,1.42-1.11.69.1,1.33.51,2.02.7,1.08.3,2.16.61,3.26.74.7.08,1.59-.26,1.74.71.16.99-.69,1.32-1.5,1.51-.35.08-.71.08-1.3.15Z"/>
  <path d="M299.9,58.79c-.37-.26-.86-.43-.93-.7-.11-.41-.07-.99.16-1.32.35-.51.89-.91,1.38-1.31,1.2-.99,2.38-2.01,3.66-2.9.4-.28,1.07-.16,1.61-.22-.07.51.03,1.12-.23,1.49-.52.74-1.2,1.38-1.86,2-.84.79-1.73,1.53-2.62,2.27-.32.26-.72.44-1.16.7Z"/>
  <path d="M298.87,49.71c-1.18,0-1.67-.65-1.19-1.5,1.15-2.05,2.69-3.75,5-4.55.65-.22,1.52-.4,1.72.43.11.45-.35,1.31-.8,1.58-1.55.94-3.03,1.89-3.92,3.55-.15.28-.64.39-.81.48Z"/>
  <path d="M43.76,132.26c-.21-.84-.47-1.44-.48-2.05,0-.44.23-1.12.55-1.27.32-.15.97.12,1.32.4.37.31.61.83.82,1.29.73,1.71.59,2.75-.42,3.45-.96.66-3.06.48-4.04-.42-.29-.27-.41-.72-.6-1.08.38-.15.75-.38,1.14-.42.49-.05,1,.05,1.71.1Z"/>
  <path d="M39.71,156.7c-.17-.13-.68-.33-.93-.72-.86-1.34-1.69-2.7-2.41-4.12-.21-.41-.04-1.02-.04-1.54.55.09,1.33-.02,1.59.31,1.24,1.49,2.4,3.06,3.44,4.69.48.75-.22,1.4-1.65,1.37Z"/>
  <path d="M196.29,83.88c-.68-.06-1.37-.05-2.02-.2-.82-.18-1.06-.92-.39-1.38.64-.43,1.5-.54,2.27-.78.25-.08.69-.11.72-.23.06-.26-.02-.64-.19-.84-.52-.61-1.14-1.12-1.65-1.74-.18-.22-.16-.62-.24-.93.33-.03.74-.21.99-.08,1.42.77,2.47,1.95,2.97,3.47.48,1.46-.77,2.76-2.46,2.71Z"/>
  <path d="M35.59,145.81c-.39-.26-.98-.45-1.07-.78-.15-.52-.15-1.25.13-1.68.79-1.23,1.7-2.39,2.67-3.48.22-.25.99-.29,1.31-.1.83.5.99,1.37.52,2.19-.65,1.12-1.39,2.19-2.19,3.2-.25.32-.82.4-1.37.64Z"/>
  <path d="M325.84,47.61c-.92-.16-1.85-.21-2.71-.5-.52-.17-1.02-.63-1.33-1.1-.18-.27-.1-.92.13-1.18.21-.24.87-.38,1.13-.22,1.54.92,3.17.58,4.79.51.66-.03,1.49-.26,1.62.7.12.84-.44,1.3-1.27,1.42-.78.11-1.57.24-2.36.36Z"/>
  <path d="M141.91,96.87c-.32,1.9-.51,3.49-.87,5.04-.25,1.05-1.01,1.73-2.16,1.75-.27,0-.63-.18-.79-.39-.11-.15-.04-.63.11-.74,1.26-.92,1.06-2.33,1.27-3.6.11-.67.06-1.4.32-2,.26-.59.82-1.05,1.24-1.57.32.55.65,1.11.88,1.51Z"/>
  <path d="M76.28,79.94c-.02,2.03-.82,2.96-1.99,2.85-.65-.06-1.14-.38-.81-1.09.5-1.09.16-1.99-.39-2.92-.46-.77-1.2-1.78-.23-2.43,1.08-.72,1.69.46,2.18,1.23.56.88.98,1.86,1.24,2.37Z"/>
  <path d="M98.41,124.53c-.14-.04-.57-.06-.88-.27-.29-.19-.44-.58-.66-.89.31-.21.62-.6.93-.59,1.61.04,2.56-.97,3.47-2.05.26-.3.43-.7.73-.95.27-.23.74-.54.96-.45.34.14.66.57.76.94.1.34-.02.8-.17,1.16-.61,1.42-3.29,3.1-5.14,3.1Z"/>
  <path d="M77.19,162.29c-.24,1.13-1.14,1.88-2.22,1.57-1.02-.29-1.97-.84-2.93-1.31-.17-.08-.37-.47-.32-.54.19-.27.49-.67.74-.66,1.08.02,1.46-.54,1.77-1.49.34-1.05,1.14-1.11,1.73-.18.51.81.83,1.73,1.23,2.61Z"/>
  <path d="M264.84,71.27c.05-1.77,2.55-5.46,3.91-5.89.33-.11.8-.07,1.08.11.14.09.1.7-.05.96-.85,1.48-1.74,2.94-2.65,4.39-.23.37-.52.73-.87.97-.26.17-.72.25-.98.13-.25-.12-.36-.54-.44-.66Z"/>
  <path d="M322.59,71.2c-.29-.42-.7-.77-.77-1.17-.06-.37.12-.96.41-1.17,1.58-1.18,3.21-2.3,4.87-3.37.22-.14.84,0,1.01.23.18.23.17.76.04,1.07-.14.34-.49.61-.8.86-1.17.96-2.35,1.9-3.54,2.83-.31.24-.67.4-1.23.73Z"/>
  <path d="M195.62,113.83c-.57-.24-.89-.32-1.15-.48-1.69-1.04-3.13-2.33-3.98-4.16-.16-.33,0-.81.02-1.23.4.13.88.18,1.2.42.84.66,1.56,1.47,2.42,2.11.45.34,1.15.35,1.62.68.43.3,1.03.89.96,1.25-.1.53-.71.96-1.09,1.41Z"/>
  <path d="M83.22,151.11c-.84-.38-1.8-.74-2.68-1.26-.55-.32-.32-.76.22-.93.3-.09.63-.12.95-.09,1.12.09,1.9-.17,2.38-1.38.4-1,1.28-.93,1.94-.03.83,1.14.49,2.51-.8,3.08-.58.25-1.21.37-2.02.61Z"/>
  <path d="M156.3,100.22c-.13.18-.27.56-.51.63-.34.1-.86.11-1.1-.09-.41-.35-.75-.85-.96-1.35-.63-1.55-1.21-3.13-1.76-4.72-.1-.29.01-.65.02-.98.37.03.94-.07,1.09.13,1.42,1.89,2.62,3.91,3.21,6.38Z"/>
  <path d="M72.96,121.46c1.27.36,2.56.64,3.78,1.11.42.16.68.76,1.01,1.16-.54.27-1.06.73-1.61.75-.64.02-1.28-.43-1.95-.51-.66-.08-1.42-.12-2.01.14-.89.38-1.39-.1-1.66-.66-.15-.3.16-1.08.49-1.31.52-.36,1.23-.45,1.94-.67Z"/>
  <path d="M367.64,38.9c-.87-.14-1.63-.2-2.35-.4-.28-.08-.57-.46-.64-.76-.04-.19.31-.65.52-.67,2.15-.27,4.31-.5,6.47-.65.24-.02.66.57.74.92.04.2-.42.68-.72.75-1.35.33-2.73.56-4.01.81Z"/>
  <path d="M311.83,73.39c-.49-.31-1.14-.59-1.61-1.07-.22-.22-.2-.86-.04-1.2.13-.27.62-.47.97-.5,1.13-.11,2.26-.15,3.39-.19.86-.03,2.04-.25,2.23.8.2,1.1-.96,1.24-1.82,1.43-.97.22-1.93.45-3.12.73Z"/>
  <path d="M128.82,115.23c-.27-.05-.59-.04-.81-.17-.41-.25-.76-.59-1.13-.9.38-.3.73-.66,1.15-.88,1.32-.69,2.66-1.35,4.01-1.99.36-.17,1-.44,1.11-.31.3.34.48.86.52,1.33.03.3-.2.77-.46.92-1.39.8-2.83,1.52-4.25,2.27-.05-.09-.1-.18-.16-.27Z"/>
  <path d="M322.08,86.28c-.18-.21-.77-.6-.73-.9.08-.55.48-1.44.84-1.48,1.59-.19,2.46-1.38,3.6-2.21.35-.26.68-.56,1.07-.74.2-.09.62-.04.75.11.18.2.28.58.22.84-.22.98-4.2,4.25-5.22,4.35-.08,0-.16.01-.54.03Z"/>
  <path d="M314.96,46.34c.51.37.97.7,1.42,1.03-.41.41-.75.96-1.24,1.2-1.1.54-2.28.93-3.43,1.39-.78.31-1.64.6-2.11-.32-.49-.94.22-1.51,1.02-1.81,1.37-.52,2.77-.95,4.34-1.48Z"/>
  <path d="M192.57,52.67c-.03,2.39-1.53,3.37-3.16,2.52-.23-.12-.56-.39-.54-.55.04-.25.29-.58.53-.67.87-.32,1.05-.8.72-1.67-.22-.58-.28-1.26-.23-1.88.04-.4.41-.78.63-1.16.38.22.97.36,1.12.68.45,1.01.72,2.09.93,2.73Z"/>
  <path d="M373.05,44.4c1.32.26,2.66.47,3.96.8.66.17,1.33.59,1.07,1.44-.26.83-.95.94-1.76.78-1.17-.24-2.34-.43-3.52-.61-.76-.12-1.47-.32-1.38-1.28.1-.95.84-1.04,1.63-1.13Z"/>
  <path d="M354.07,37.95c.31-.03.69-.16,1.01-.08.42.1.79.38,1.18.58-.25.35-.42.82-.76,1.03-.46.28-1.04.37-1.58.53-1.01.3-2.01.67-3.05.87-.51.1-1.09-.11-1.64-.18.18-.51.23-1.15.58-1.5,1.14-1.16,2.64-1.39,4.26-1.25Z"/>
  <path d="M196.06,50.67c-.14.91-.2,1.5-.33,2.08-.15.67-.36,1.51-1.23,1.2-.38-.13-.66-.95-.73-1.49-.14-1.12-.05-2.27-.17-3.39-.05-.43-.44-.82-.64-1.25-.12-.26-.32-.65-.22-.81.13-.21.61-.41.8-.32.54.25,1.23.54,1.47,1.01.51,1,.77,2.14,1.05,2.96Z"/>
  <path d="M74.98,92.12c-.21-.08-.72-.19-1.15-.45-.26-.16-.54-.57-.52-.84.01-.23.43-.55.71-.61.65-.13.76-.45.6-1.02-.16-.57-.35-1.15-.4-1.73-.03-.33.12-.77.35-1,.12-.11.74.04.88.25.63.91,1.3,1.83,1.71,2.84.56,1.39-.36,2.54-2.19,2.56Z"/>
  <path d="M73.93,101.28c.69.28,1.26.54,1.84.75.69.26.99,0,1.15-.74.11-.49.55-.92.84-1.37.46.4.98.75,1.35,1.22.19.24.17.69.13,1.04-.13,1.21-1.15,1.96-2.6,1.95-1.57,0-2.74-.81-2.86-2-.02-.24.09-.5.15-.85Z"/>
  <path d="M362.79,74.36c.67-.19,1.34-.4,2.02-.57.53-.13,1.09-.28,1.63-.27.28,0,.67.31.79.58.09.19-.12.65-.33.8-1.42,1.06-2.97,1.86-4.78,1.91-.83.03-1.36-.5-1.34-1.35.02-.83.49-1.32,1.37-1.3.2,0,.4.02.59.03.02.06.03.11.05.17Z"/>
  <path d="M216.74,89.01c-.14,1.93-.78,3.49-2.14,4.65-.33.28-.99.17-1.49.25.12-.44.21-.89.36-1.31.37-1,.83-1.96,1.13-2.97.23-.75.21-1.58.42-2.34.07-.26.48-.54.76-.57.19-.02.55.33.63.57.18.6.24,1.24.32,1.74Z"/>
  <path d="M334.84,65.41c-.21.32-.37.58-.55.83-1.02,1.41-2,2.87-3.12,4.21-.32.38-1.06.42-1.6.61-.03-.5-.29-1.14-.07-1.46,1.11-1.6,2.31-3.13,3.55-4.63.21-.26.78-.32,1.16-.29.21.02.39.44.62.73Z"/>
  <path d="M108.07,96.97c-.15.83-.22,1.68-.48,2.45-.25.74-.85,1.19-1.69.92-.83-.27-.61-.88-.51-1.56.17-1.13.09-2.3.23-3.44.06-.49.43-.93.65-1.4.46.31,1.11.53,1.34.96.32.6.31,1.36.45,2.07Z"/>
  <path d="M86.14,223.78c-.62-.53-1.27-.84-1.48-1.35-.19-.44-.02-1.15.22-1.63.42-.85.98-1.64,1.56-2.4.23-.3.72-.68.97-.6.31.1.72.64.69.95-.1,1.27-.27,2.55-.61,3.77-.13.45-.79.76-1.35,1.26Z"/>
  <path d="M262.38,81.26c-.31.4-.63.79-.92,1.21-.53.76-1,1.57-1.57,2.31-.55.71-1.13,1.42-1.8,2-.2.17-.83.02-1.15-.17-.16-.1-.2-.67-.08-.93.92-1.98,2.1-3.75,4.2-4.66.35-.15.8-.1,1.2-.14.04.13.08.26.12.39Z"/>
  <path d="M321.67,79.28c-.47-.41-1.01-.65-1.07-.99-.07-.35.24-1.04.54-1.14,1.87-.65,3.78-1.2,5.7-1.71.24-.07.6.28.9.43-.16.28-.25.69-.49.81-1.81.89-3.65,1.71-5.58,2.61Z"/>
  <path d="M114.21,66.19c.43-.83.79-1.61,1.23-2.34.36-.61.73-1.14.15-1.83-.13-.15-.13-.59,0-.73.14-.15.51-.17.74-.11,1.22.31,1.97,1.68,1.44,2.96-.42,1.01-1.07,1.94-1.72,2.83-.2.28-.84.54-1.09.43-.33-.15-.47-.7-.76-1.2Z"/>
  <path d="M142.46,83.43c1.52.21,3.15-.83,4.54.65-.23.76-.44,1.55-.71,2.31-.39,1.14-1.34,1.8-2.46,1.68-.27-.03-.6-.23-.73-.46-.09-.16.06-.52.2-.73.17-.26.48-.42.66-.68.57-.82.31-1.61-.62-1.98-.33-.13-.66-.29-.98-.43.03-.12.07-.25.1-.37Z"/>
  <path d="M369.71,67.43c-.61-.22-1.47-.37-2.13-.81-.34-.23-.51-1.04-.41-1.51.14-.67.73-.76,1.44-.61.91.2,1.88.14,2.8.33.51.11,1.16.43,1.34.83.12.27-.34,1.07-.73,1.27-.61.31-1.38.31-2.32.49Z"/>
  <path d="M370.39,72.68c.25-.47.39-.98.72-1.28,1-.91,2.03-1.81,3.14-2.58.31-.21,1.05-.13,1.37.11.23.18.16.86.07,1.29-.06.27-.35.54-.59.73-1.07.83-2.16,1.65-3.27,2.43-.23.16-.66.29-.86.18-.25-.14-.37-.54-.57-.88Z"/>
  <path d="M225.41,217.77c-.35,1.25-.6,2.43-1.02,3.54-.28.72-1.09,1.04-1.69.56-.59-.47-.91-1.29-1.34-1.96-.02-.04.05-.15.1-.21.81-.83,1.6-1.67,2.45-2.46.22-.2.67-.36.92-.26.26.1.4.51.58.78Z"/>
  <path d="M22.11,182.01c.97.17,1.8.35,2.63.45.5.06,1.03.08,1.51-.02,1.08-.23,1.63.47,2.15,1.16.13.17-.01.75-.21.92-.31.26-.84.53-1.17.43-1.7-.54-3.37-1.17-5.02-1.83-.21-.08-.37-.49-.4-.76-.01-.12.39-.27.52-.35Z"/>
  <path d="M92.32,143.62c-.95-.35-1.92-.66-2.84-1.08-.24-.11-.52-.6-.45-.82.07-.23.51-.45.82-.5,1.01-.17,2.04-.25,3.05-.4,1.13-.16,1.98.23,2.12,1.02.14.76-.58,1.36-1.78,1.51-.28.03-.56.04-.83.06-.03.07-.05.14-.08.21Z"/>
  <path d="M375.09,61.68c.6-.63.91-1.1,1.35-1.37.91-.56,1.86-1.09,2.86-1.49.39-.16,1.06-.08,1.36.17.21.18.19,1.11-.02,1.25-1.35.87-2.76,1.67-4.21,2.36-.21.1-.75-.5-1.34-.92Z"/>
  <path d="M303.91,73.69c-.68,0-1.37.09-2.02-.03-.4-.08-.95-.41-1.06-.75-.12-.37.08-1,.37-1.27.26-.24.84-.22,1.27-.19.86.07,1.72.23,2.57.35.55.08,1.13.09,1.63.3.29.12.56.55.6.88.02.16-.46.53-.74.57-.86.12-1.74.13-2.62.19,0-.01,0-.03,0-.04Z"/>
  <path d="M244.93,72.8c-.22.6-.4,1.22-.65,1.8-.56,1.32-1.16,2.61-1.71,3.93-.54,1.28-1.72,1.47-2.65.43.71-1.14,1.39-2.29,2.12-3.4.72-1.09,1.32-2.31,2.56-2.93.11.06.23.12.34.18Z"/>
  <path d="M117.35,82.45c-.08.38-.07.7-.22.9-.3.41-.7.75-1.06,1.12-.32-.41-.82-.77-.92-1.23-.29-1.32-.43-2.66-.59-4-.09-.79.35-1.07,1.01-.73.43.22.9.61,1.05,1.03.35.96.5,1.99.72,2.91Z"/>
  <path d="M293.91,57.18c.26-.66.36-1.29.71-1.74.75-.97,1.59-1.89,2.47-2.75.23-.22.75-.15,1.14-.22.01.41.18.89.02,1.2-.69,1.29-1.42,2.57-2.28,3.75-.25.35-.94.45-1.45.49-.17.02-.4-.47-.61-.74Z"/>
  <path d="M150.61,59.53c.61.75,1.08,1.11,1.25,1.57.4,1.12.7,2.28.96,3.44.07.33-.02.86-.24,1.05-.23.19-.79.22-1.08.06-.39-.21-.83-.6-.95-1-.34-1.1-.6-2.24-.72-3.38-.04-.44.4-.93.78-1.74Z"/>
  <path d="M119.95,200.31c.84.66,1.67,1.17,2.3,1.87.22.25.11,1.27-.08,1.34-.69.26-1.53.49-2.21.32-.77-.19-1.45-.79-2.1-1.3-.17-.14-.24-.77-.11-.87.61-.46,1.3-.82,2.2-1.36Z"/>
  <path d="M106.71,49.75c-.76-.06-1.87-.1-2.97-.27-.36-.05-.66-.45-.99-.69.28-.3.51-.75.85-.88.88-.33,1.84-.76,2.73-.69.69.05,1.5.66,1.95,1.25.49.65-.21,1.32-1.58,1.27Z"/>
  <path d="M104.56,57.17c-.12,1.47-.96,2.35-2,3.09-.22.15-.66.23-.86.11-.19-.11-.3-.55-.26-.81.21-1.39.46-2.77.76-4.15.05-.25.37-.6.6-.63.3-.04.79.11.91.34.36.64.58,1.36.85,2.05Z"/>
  <path d="M188.93,64.39c-.12,1.89-2.49,3.58-3.93,3.21-.23-.06-.54-.28-.59-.48-.05-.2.1-.59.29-.7,1-.61,1.91-1.23,2.05-2.58.03-.25.97-.7,1.21-.56.49.28.8.89.98,1.11Z"/>
  <path d="M106.24,84.92c-.23.53-.45,1.39-.94,2.06-.23.32-.97.28-1.47.4-.1-.45-.31-.91-.28-1.35.05-.87.15-1.75.37-2.59.13-.46.55-.84.85-1.26.42.37.92.67,1.21,1.12.22.33.15.84.26,1.62Z"/>
  <path d="M330.01,42.53c-.49-.3-1.21-.67-1.85-1.16-.59-.45-.74-1.03-.12-1.63.55-.53,1.16-.66,1.67-.07.7.82,1.54,1,2.56.96.4-.02.81.42,1.21.65-.34.27-.63.66-1.01.78-.68.22-1.4.27-2.46.46Z"/>
  <path d="M306.72,162.2c-.29-.22-.8-.4-.9-.72-.13-.38-.05-.95.16-1.31.48-.82,2.63-1.63,3.52-1.31.42.15.92.57,1.03.96.08.27-.37.87-.72,1.06-.94.49-1.96.84-3.09,1.31Z"/>
  <path d="M114.79,51.54c-.32.48-.64.97-.97,1.45-.47-.39-1-.73-1.39-1.19-.54-.64-.99-1.36-1.45-2.06-.18-.27-.47-.66-.39-.87.09-.24.53-.44.84-.47,1.55-.19,3.15,1.36,3.35,3.14Z"/>
  <path d="M237.48,104.42c.42-2.07,1.1-3.74,2.8-4.77.23-.14.61-.15.87-.06.11.04.2.52.11.73-.63,1.45-1.26,2.91-1.98,4.32-.18.34-.75.74-1.05.68-.33-.07-.55-.64-.75-.89Z"/>
  <path d="M233.23,153.3c1.33.08,2.46.44,3.11,1.59.2.36.14,1.14-.13,1.42-.28.29-1.02.39-1.44.24-.73-.26-1.42-.71-2.01-1.23-.43-.38-.66-.98-.99-1.48.48-.18.97-.36,1.45-.54Z"/>
  <path d="M155.32,51.13c-.21,1.3-1.12,2.33-2.22,2.32-.32,0-.77-.14-.92-.38-.13-.2-.04-.72.15-.93.65-.72.67-1.44.33-2.31-.13-.32.02-1.05.21-1.12.37-.13,1.07-.08,1.27.17.5.67.8,1.49,1.19,2.25Z"/>
  <path d="M334.74,83.15c-.11.15-.25.45-.47.65-.92.82-1.86,1.61-2.82,2.39-.23.19-.56.38-.84.37-.32,0-.78-.15-.91-.39-.13-.22-.03-.76.17-.95,1-.97,2.01-1.93,3.12-2.76.79-.59,1.76-.21,1.75.69Z"/>
  <path d="M240.31,209.65c-.67-.1-1.36-.12-1.99-.33-.29-.1-.58-.53-.64-.86-.03-.15.44-.53.74-.6,1.3-.32,2.61-.6,3.94-.8.3-.05.85.22.95.47.13.34.07,1.04-.16,1.17-.84.49-1.78.82-2.69,1.21-.05-.09-.1-.18-.14-.27Z"/>
  <path d="M107.77,108.32c0,1.4-.67,2.37-1.67,2.48-.47.05-1.06-.22-1.44-.54-.15-.13.13-.78.24-1.18.1-.41.19-.83.35-1.22.21-.51.48-.99.73-1.48.48.3,1.04.52,1.41.93.29.32.34.86.39,1.01Z"/>
  <path d="M214.43,189.92c-1.72-.07-3-.9-3.14-1.95-.06-.47.14-1.13.48-1.45.19-.18.91.06,1.32.25.53.24,1.02.59,1.48.95.42.34.77.76,1.14,1.15-.51.42-1.02.84-1.28,1.05Z"/>
  <path d="M339.36,52.87c-.04,1.18-2.1,3.76-3.06,4.04-.66.19-1.33-.4-.98-1,.77-1.33,1.72-2.55,2.65-3.77.11-.15.65-.14.84,0,.29.2.44.59.55.74Z"/>
  <path d="M246.81,201.96c.47-.18.93-.48,1.41-.5.62-.03,1.32,0,1.84.29.28.16.5,1.07.31,1.31-.37.47-1.02.97-1.57.99-.76.04-1.57-.27-2.29-.6-.45-.2-.77-.7-1.14-1.07l1.26-.77c.06.11.12.23.18.34Z"/>
  <path d="M154.99,82.79c-.02.9-1.01,1.56-2.25,1.43-1.01-.11-1.11-.82-1.01-1.67.05-.44-.11-.91-.04-1.35.05-.33.25-.85.48-.9.83-.19,2.83,1.65,2.82,2.49Z"/>
  <path d="M244.61,61.26c-.51-.29-.94-.39-1.06-.64-.12-.26-.03-.73.14-.98.67-.94,1.35-1.89,2.14-2.72.29-.31.89-.33,1.34-.48.02.51.19,1.06.04,1.5-.24.71-.62,1.4-1.08,1.99-.41.52-1,.88-1.53,1.33Z"/>
  <path d="M209.93,104.18c.99.36,1.59.31,1.97-.58.09-.22.78-.43,1-.31.41.22.85.65.98,1.09.32,1.07-.73,2.1-1.94,1.92-.74-.11-1.49-.32-2.18-.62-.33-.14-.54-.57-.8-.86.36-.24.72-.48.97-.65Z"/>
  <path d="M103.03,70.94c-.04-.57-.15-1.02-.07-1.44.07-.39.27-.94.56-1.05.29-.12.84.11,1.14.35,1.07.84.91,3.38-.25,4.13-.26.17-.73.27-.99.15-.23-.11-.4-.54-.44-.85-.06-.47.02-.95.04-1.29Z"/>
  <path d="M71.84,175.4c-.81-.25-1.34-.33-1.77-.57-.93-.51-.92-1.06-.03-1.65.23-.15.48-.29.66-.49.4-.46.75-1.33,1.44-.73.59.51,1.14,1.38,1.16,2.11.01.46-.99.94-1.46,1.34Z"/>
  <path d="M299.69,148.61c-1.06-.03-2.01.14-2.07-.93-.06-.96.73-1.33,1.58-1.46.51-.08,1.06-.24,1.53-.11.54.15,1.02.56,1.52.86-.34.44-.59,1.03-1.03,1.28-.52.29-1.21.3-1.52.36Z"/>
  <path d="M90.64,127.67c-1.29,0-2.03-.72-2.57-1.64-.15-.25-.16-.76,0-.97.13-.17.62-.12.94-.08.57.06,1.14.29,1.7.26.79-.06,1.64-.23,1.84.77.2,1.01-.67,1.32-1.44,1.58-.18.06-.39.06-.47.08Z"/>
  <path d="M183.05,76.34c-.28.91-.4,1.54-.66,2.11-.37.79-1.31,1.03-2.02.58-.81-.52-.43-1,.04-1.54.18-.2.19-.58.22-.89.07-.85.12-1.9,1.19-1.79.48.05.87,1.06,1.23,1.54Z"/>
  <path d="M240.47,198.55c-.87.02-2.55-1.15-2.26-1.56.48-.68,1.23-1.33,2.01-1.59.89-.3,1.93.73,1.96,1.64.03.73-.83,1.49-1.71,1.51Z"/>
  <path d="M382.04,48.24c-.16-.61-.41-1.21-.45-1.82-.03-.46.2-.93.32-1.39.44.11.96.11,1.29.36,1.01.78.93,3.6-.08,4.38-.55.42-.99.27-1.15-.42-.08-.34-.05-.71-.06-1.07.05-.01.1-.02.14-.04Z"/>
  <path d="M291.22,74.62c-1.23-.16-1.59.56-1.82,1.49-.09.36-.31.85-.6.96-.41.17-.97.14-1.39,0-.14-.05-.21-.8-.06-1.11.38-.78.83-1.55,1.4-2.2.38-.44,1.09-.99,1.5-.89.47.12.78.9,1.16,1.39l-.19.36Z"/>
  <path d="M353.18,108.59c-.54-.37-1-.52-1.11-.81-.1-.28.04-.88.27-1.03.92-.61,1.89-1.15,2.89-1.6.25-.11.87.11,1.01.35.17.31.17,1.01-.04,1.16-.95.71-2,1.3-3.02,1.93Z"/>
  <path d="M211.3,140.61c.1-.15.26-.6.54-.71.29-.12.81-.02,1.07.18.57.43,1.12.93,1.52,1.52.26.38.48,1.2.29,1.37-.36.34-1.06.56-1.54.47-.86-.16-1.86-1.72-1.88-2.82Z"/>
  <path d="M231.58,211.83c.88.63,1.81,1.11,2.47,1.84.55.62-.36,1.83-1.23,1.55-.98-.32-1.84-1-2.72-1.57-.11-.07-.11-.59.02-.72.38-.37.85-.65,1.46-1.09Z"/>
  <path d="M287.74,91.82c-.07-.46-.35-1.05-.16-1.31.76-1.07,1.63-2.06,2.52-3.03.15-.17.68-.23.85-.1.23.18.48.75.37.88-.92,1.17-1.91,2.28-2.89,3.4-.06.07-.23.06-.69.16Z"/>
  <path d="M52.63,97.63c-.34-.02-.42,0-.5-.03-.6-.23-1.19-.48-1.78-.71.52-.41,1.02-.84,1.55-1.23.25-.19.53-.38.83-.46.5-.12,1.06-.29,1.52-.16.27.08.62.77.53,1.05-.17.51-.56,1.03-1.01,1.34-.35.24-.92.17-1.15.2Z"/>
  <path d="M300.8,178.82c-.16-.02-.34,0-.47-.08-.62-.37-1.29-.69-1.79-1.18-.16-.16.06-1.1.23-1.13.69-.15,1.42-.09,2.14-.09.15,0,.33.08.43.18.43.44.84.91,1.25,1.36-.55.38-1.09.76-1.64,1.14-.05-.07-.1-.14-.15-.21Z"/>
  <path d="M114.27,164.6c-1.44-.04-2.42-.89-2.59-1.92-.15-.86.31-1.26,1.06-1.13.68.12,1.41.38,1.94.8.38.3.75,1.04.63,1.44-.12.42-.83.67-1.04.81Z"/>
  <path d="M217.24,184.91c-.32-.04-.69.02-.94-.13-.38-.22-.67-.58-1-.88.36-.24.69-.56,1.08-.69.83-.28,1.68-.54,2.54-.65.43-.05.9.26,1.36.4-.22.43-.32,1.04-.67,1.24-.7.41-1.52.59-2.3.86-.02-.05-.04-.11-.07-.16Z"/>
  <path d="M126.64,128.14c-.95,0-2.31-1-2.03-1.55.3-.6,1.02-1.18,1.67-1.36.9-.25,1.95.7,1.9,1.52-.06,1-.78,1.3-1.54,1.39Z"/>
  <path d="M320.78,94.26c-.41-.21-.87-.31-.96-.54-.09-.24.09-.79.31-.91,1.11-.59,2.27-1.11,3.43-1.58.16-.07.71.28.7.39-.06.48-.12,1.19-.44,1.37-.95.53-2.02.86-3.04,1.26Z"/>
  <path d="M236.33,125.74c-.95-.38-1.74-.58-2.38-1-.7-.46-.35-.94.27-1.21.39-.17.87-.22,1.17-.47.49-.41.99-.87,1.51-.27.36.42.66,1.13.56,1.62-.1.5-.73.89-1.13,1.33Z"/>
  <path d="M315.32,78.7c.52,0,1.05-.07,1.55.03.29.06.61.34.73.61.06.13-.29.6-.52.66-1.11.29-2.24.57-3.38.67-.37.03-.79-.46-1.19-.71.38-.4.69-.96,1.15-1.15.47-.2,1.1-.04,1.65-.04v-.06Z"/>
  <path d="M223.7,193.59c.05,1.22-.67,1.96-1.58,2.02-.83.06-2.06-.81-2.09-1.48,0-.04-.02-.1,0-.12.82-.48,1.59-1.12,2.48-1.37.34-.09.93.71,1.2.94Z"/>
  <path d="M344.51,110.44c.48.35,1.09.59,1.23.99.09.27-.42.98-.79,1.11-.84.3-1.77.41-2.66.47-.25.02-.69-.34-.76-.6-.07-.26.12-.79.35-.91.8-.41,1.66-.69,2.64-1.07Z"/>
  <path d="M161.12,105.4c-.49-.21-1.17-.38-1.69-.77-.61-.46-.25-.92.31-1.16.73-.31,1.47-.6,2.23-.78.37-.09.91-.03,1.18.2.17.14.07.73-.03,1.08-.26.9-.89,1.38-1.99,1.44Z"/>
  <path d="M76.28,190.47c-.16-.03-.31-.05-.47-.09-1.11-.3-2.15-1.32-1.98-2.09.08-.34.56-.78.9-.82,1.04-.13,2.7,1.01,2.7,1.9,0,.43-.56.86-.87,1.29-.1-.07-.19-.13-.29-.2Z"/>
  <path d="M283.6,148.76c-.69-.14-1.69-.12-1.59-1.24.09-1.03.91-1.18,1.79-.99.62.13,1.26.22,1.83.46.3.12.5.52.74.79-.31.26-.58.65-.93.76-.56.17-1.17.15-1.84.22Z"/>
  <path d="M109.5,144.37c.91.36,1.6.52,2.13.89.4.28.92.99.8,1.25-.2.45-.82.9-1.32.97-.5.07-1.16-.21-1.56-.56-.34-.3-.53-.9-.57-1.38-.03-.35.31-.72.52-1.17Z"/>
  <path d="M115.6,99.42c0-.2-.05-.42.01-.59.17-.47.38-.93.58-1.39.47.37,1.16.65,1.35,1.13.43,1.08,0,2.14-.71,3-.44.54-1.19.27-1.31-.47-.09-.54-.02-1.11-.02-1.67.03,0,.07,0,.1,0Z"/>
  <path d="M149.2,75.02c-.02,1.28-.94,2.13-2.12,2.01-.28-.03-.67-.19-.78-.4-.1-.2.07-.58.18-.85.16-.39.35-.78.58-1.14.28-.45.6-.88.91-1.32.4.44.81.87,1.18,1.33.09.1.05.31.06.37Z"/>
  <path d="M290.05,113.34c.61.42,1.02.7,1.43.99-.34.37-.63.85-1.05,1.07-.62.33-1.32.55-2.02.68-.36.07-.78-.17-1.17-.26.12-.35.13-.84.37-1.01.73-.54,1.55-.95,2.43-1.47Z"/>
  <path d="M275.66,143.99c-.53-.43-1.27-.79-1.25-1.09.04-.46.56-1.2.95-1.25.85-.11,1.74.11,2.6.28.13.03.29.75.23.78-.76.43-1.56.8-2.54,1.28Z"/>
  <path d="M247.76,37.69c-.42.53-.6.91-.89,1.11-.68.46-2.83-.67-2.86-1.48,0-.24.16-.67.31-.7.54-.12,1.16-.27,1.65-.11.61.21,1.11.72,1.79,1.19Z"/>
  <path d="M100.81,188.42c.73.58,1.39,1.03,1.93,1.59.12.12-.09.81-.33.97-.81.54-1.63.26-2.27-.35-.31-.29-.68-.84-.59-1.13.13-.38.68-.62,1.26-1.08Z"/>
  <path d="M114.84,213.73c-1.22-.11-2.06-.38-1.96-1.37.05-.54.68-1.02,1.05-1.53.6.62,1.26,1.2,1.75,1.9.07.11-.63.76-.84,1Z"/>
  <path d="M90.92,213.49c-.77-.54-1.4-.92-1.92-1.41-.14-.13-.03-.83.12-.89.47-.21,1.13-.46,1.51-.28.55.27.99.87,1.3,1.42.07.13-.56.65-1,1.16Z"/>
  <path d="M277.46,93.82c-.07.21-.08.38-.16.42-1.06.51-2.12,1.01-3.21,1.46-.04.02-.47-.52-.43-.74.18-.85,2.39-1.92,3.2-1.6.23.09.41.31.59.46Z"/>
  <path d="M83.13,189.69c-1.23-.15-2.08-.4-2.09-1.45,0-.32.58-.87.94-.91.88-.1,2.2.94,2.01,1.48-.15.41-.66.69-.86.88Z"/>
  <path d="M174.31,87.79c-.04,1.23-.81,2.18-1.42,1.91-.52-.23-.83-.92-1.24-1.4.61-.42,1.19-.92,1.85-1.21.17-.07.63.55.8.71Z"/>
  <path d="M276.11,116.93c-.64-.43-1.51-.74-1.51-1.06,0-.91.8-1.15,1.63-1.15.76,0,1.64.14,1.55,1.01-.04.42-1,.75-1.67,1.2Z"/>
  <path d="M106.07,208.17c-.65-.6-1.1-1-1.54-1.41.54-.39,1.05-1,1.64-1.08.37-.05.85.68,1.28,1.07-.39.41-.78.81-1.38,1.43Z"/>
  <path d="M155.95,47.75c-.6-.7-.97-1.13-1.33-1.56.51-.43.97-1.06,1.56-1.22.28-.07,1.14.76,1.12,1.16-.02.47-.71.9-1.35,1.62Z"/>
  <path d="M312.14,179.49c.61.72,1.21,1.11,1.27,1.57.11.83-.61,1.38-1.34,1.28-.44-.06-1.05-.75-1.1-1.21-.04-.41.59-.88,1.17-1.64Z"/>
  <path d="M286.98,84.83c-.64.45-1.24.99-1.94,1.31-.17.08-.66-.54-1-.83.59-.52,1.13-1.11,1.79-1.5.19-.11.72.34,1.09.53l.06.5Z"/>
  <path d="M121.85,111.52c1.07-.03,2.07.78,1.89,1.42-.12.42-.67.72-1.03,1.08-.52-.58-1.08-1.13-1.52-1.76-.05-.07.52-.59.66-.74Z"/>
  <path d="M107.68,185.17c-.59-.57-.99-.94-1.38-1.31.58-.41,1.11-.97,1.75-1.14.27-.07.76.68,1.15,1.06-.45.41-.89.81-1.52,1.39Z"/>
  <path d="M110.9,156.45c-.56-.77-1.09-1.2-1.13-1.68-.03-.31.73-1.02.99-.96.55.14,1.01.66,1.51,1.03-.36.42-.72.85-1.37,1.6Z"/>
  <path d="M220.4,151.57c-.6-.59-.96-.95-1.32-1.3.54-.42,1.04-.93,1.64-1.2.17-.07,1,.72.94.86-.23.53-.71.96-1.26,1.64Z"/>
  <path d="M242.72,43.51c-.61-.61-.99-1-1.37-1.38.42-.34.84-.94,1.26-.94.41,0,.96.56,1.16,1,.09.19-.55.71-1.05,1.32Z"/>
  <path d="M266.74,114.9c-.53-.55-.95-.99-1.38-1.43.27-.22.69-.68.79-.62.57.35,1.07.82,1.59,1.26-.27.21-.54.43-1,.79Z"/>
  <path d="M226.6,152.12c.4.58.87,1.02.79,1.17-.2.38-.62.77-1.02.89-.21.06-.87-.58-.83-.67.2-.43.57-.78,1.07-1.39Z"/>
  <path class="cls-1" d="M329.28,203.31c.15-.09.31-.19.46-.28.78.86,1.62,1.68,2.28,2.63.13.19-.32.94-.67,1.24-.16.14-.97-.1-1.06-.34"/>
  <path d="M8.14,218.03c.26-.89.53-1.79.79-2.68.13.03.25.07.38.1-.23.9-.47,1.8-.7,2.7-.15-.04-.31-.08-.46-.13Z"/>
  <path d="M363.72,56.31c-.45.28-.88.75-1.35.78-.31.02-.67-.57-1-.89.4-.36.74-.88,1.21-1.02.28-.09.74.42,1.12.66,0,.16.01.32.02.48Z"/>
  <path d="M320.5,55.1c.5.65,1.06,1.08.99,1.36-.11.43-.59.91-1.02,1.04-.23.07-.93-.56-.94-.88,0-.4.49-.81.96-1.52Z"/>
</svg>